<?xml version="1.0" encoding="utf-8"?>
<!-- Generator: Adobe Illustrator 23.0.0, SVG Export Plug-In . SVG Version: 6.00 Build 0)  -->
<svg version="1.1" id="Layer_1" xmlns="http://www.w3.org/2000/svg" xmlns:xlink="http://www.w3.org/1999/xlink" x="0px" y="0px"
	 viewBox="0 0 200 200" style="enable-background:new 0 0 200 200;" xml:space="preserve">
<style type="text/css">
	.st0{fill:#FFFFFF;}
</style>
<g>
	<path class="st0" d="M63.46,115.76h14.73h14.73v14.73H78.19H63.46H48.73v-14.73H63.46z M63.46,86.3h14.73h14.73v14.73H78.19H63.46
		V86.3z M48.73,42.11v14.73v14.73V86.3v14.73v14.73H34v14.73v14.73v14.73h14.73v-14.73h14.73h14.73h14.73v14.73h14.73v-14.73V130.5
		v-14.73v-14.73h14.73v14.73v14.73v14.73h14.73V130.5v-14.73v-14.73h14.73V86.3h-14.73h-14.73h-14.73V71.57V56.84H92.92v14.73H78.19
		H63.46V56.84h14.73h14.73V42.11H48.73z"/>
	<polygon class="st0" points="151.84,115.76 151.84,130.49 151.84,145.22 166.57,145.22 166.57,130.49 166.57,115.76 166.57,101.03 
		151.84,101.03 	"/>
</g>
</svg>
