<svg xmlns="http://www.w3.org/2000/svg" viewBox="0 0 79.09 30.8">
  <g id="BMA_2" data-name="BMA 2" transform="translate(-165 -789)">
    <path id="Path_3" data-name="Path 3" d="M7.55,10.61A3.083,3.083,0,0,0,8.7,8.06,2.766,2.766,0,0,0,7.07,5.5,2.574,2.574,0,0,0,8.46,3.1,2.963,2.963,0,0,0,7.15.63,4.8,4.8,0,0,0,4.52,0H0V11.38H4.52A4.778,4.778,0,0,0,7.55,10.61ZM2.05,1.78H4.6c.93,0,1.76.35,1.76,1.44,0,1.07-.79,1.41-1.71,1.41H2.05V1.78Zm0,4.58H4.66c1.09,0,1.94.43,1.94,1.65,0,1.15-1.04,1.51-2,1.51H2.05Z" transform="translate(165 789)"/>
    <path id="Path_4" data-name="Path 4" d="M15.41,4.89V2.96a4.213,4.213,0,0,0-.62-.04,2.407,2.407,0,0,0-2.36,1.36l-.18-1.25h-1.7v8.33h2.02V7.16A2.107,2.107,0,0,1,14.72,4.8,3.948,3.948,0,0,1,15.41,4.89Z" transform="translate(165 789)"/>
    <path id="Path_5" data-name="Path 5" d="M23.99,11.26V9.79a1.326,1.326,0,0,1-.26.03c-.34,0-.46-.14-.46-.53V6.2a4.565,4.565,0,0,0-.24-1.68c-.48-1.25-1.7-1.7-3.12-1.7-1.86,0-3.35.83-3.46,2.71h1.94c.05-.77.59-1.19,1.52-1.19,1.14,0,1.41.53,1.41,1.31v.51l-2.45.18c-1.59.11-2.82,1.03-2.82,2.61a2.692,2.692,0,0,0,3.01,2.61,2.915,2.915,0,0,0,2.53-1.25A1.3,1.3,0,0,0,23,11.48,1.886,1.886,0,0,0,23.99,11.26ZM21.31,8.04a1.886,1.886,0,0,1-2.13,1.91,1.1,1.1,0,0,1-1.19-1.04,1.171,1.171,0,0,1,1.2-1.09l2.11-.16v.38Z" transform="translate(165 789)"/>
    <path id="Path_6" data-name="Path 6" d="M32.06,10.46a4.819,4.819,0,0,0-2.71-.56H27.97c-.42,0-.91-.11-.91-.61a.732.732,0,0,1,.42-.59,4.292,4.292,0,0,0,1.35.22,3.132,3.132,0,0,0,3.4-3.03,2.889,2.889,0,0,0-.43-1.51c.13-.4.54-.53,1.01-.53.05,0,.11.02.16.02V2.32a3.321,3.321,0,0,0-.54-.03,1.8,1.8,0,0,0-1.7,1.04,3.734,3.734,0,0,0-1.89-.51c-1.87,0-3.41,1.07-3.41,3.06a2.824,2.824,0,0,0,.83,2.05,1.9,1.9,0,0,0-.99,1.68,1.669,1.669,0,0,0,.83,1.43,1.851,1.851,0,0,0-.99,1.7,2.146,2.146,0,0,0,1.01,1.83,5.006,5.006,0,0,0,2.95.69c1.86,0,4.02-.59,4.02-2.79A2.367,2.367,0,0,0,32.06,10.46ZM28.83,4.33A1.434,1.434,0,0,1,30.3,5.88a1.472,1.472,0,1,1-2.94,0A1.418,1.418,0,0,1,28.83,4.33Zm.14,9.34c-.79,0-2.1-.1-2.1-1.15a1.036,1.036,0,0,1,.75-1.03h1.57c.75,0,1.99,0,1.99,1.03C31.18,13.62,29.77,13.67,28.97,13.67Z" transform="translate(165 789)"/>
    <path id="Path_7" data-name="Path 7" d="M36.69,6.34c-1.59.11-2.82,1.03-2.82,2.61a2.692,2.692,0,0,0,3.01,2.61,2.915,2.915,0,0,0,2.53-1.25,1.3,1.3,0,0,0,1.41,1.17,2.043,2.043,0,0,0,.99-.22V9.79a1.326,1.326,0,0,1-.26.03c-.34,0-.46-.14-.46-.53V6.2a4.565,4.565,0,0,0-.24-1.68c-.48-1.25-1.7-1.7-3.12-1.7-1.86,0-3.35.83-3.46,2.71h1.94c.05-.77.59-1.19,1.52-1.19,1.14,0,1.41.53,1.41,1.31v.51Zm2.45,1.7a1.886,1.886,0,0,1-2.13,1.91,1.1,1.1,0,0,1-1.19-1.04,1.171,1.171,0,0,1,1.2-1.09l2.11-.16v.38Z" transform="translate(165 789)"/>
    <path id="Path_8" data-name="Path 8" d="M5.77,27.32,2.79,19.23H0V30.59H2V22.38l2.93,8.05H6.46l2.95-7.95v8.11h2V19.23H8.76Z" transform="translate(165 789)"/>
    <path id="Path_9" data-name="Path 9" d="M17.27,22.05a3.624,3.624,0,0,0-2.66,1.06,4.678,4.678,0,0,0-1.2,3.33,4.522,4.522,0,0,0,1.28,3.33,3.664,3.664,0,0,0,2.63,1.03,3.563,3.563,0,0,0,2.8-1.17,3.189,3.189,0,0,0,.7-1.54H18.9a1.455,1.455,0,0,1-1.62,1.11,1.75,1.75,0,0,1-1.23-.51,2.172,2.172,0,0,1-.61-1.63h5.58c0-.18.02-.56.02-.56a4.683,4.683,0,0,0-.72-2.9A3.491,3.491,0,0,0,17.27,22.05Zm-1.84,3.54a2.073,2.073,0,0,1,.43-1.3,1.728,1.728,0,0,1,1.39-.64,1.685,1.685,0,0,1,1.27.48,2.131,2.131,0,0,1,.51,1.46Z" transform="translate(165 789)"/>
    <path id="Path_10" data-name="Path 10" d="M28.04,22.83a2.823,2.823,0,0,0-2.18-.79,3.151,3.151,0,0,0-2.03.67,4.582,4.582,0,0,0-1.49,3.72,4.5,4.5,0,0,0,1.47,3.64,3.155,3.155,0,0,0,2.03.71,2.729,2.729,0,0,0,2.34-1.11l.13.91h1.73V19.02h-2v3.81ZM26.25,29.1a1.66,1.66,0,0,1-1.35-.66,3.33,3.33,0,0,1-.53-2.03,3.318,3.318,0,0,1,.53-2.02,1.646,1.646,0,0,1,1.35-.66c1.57,0,1.89,1.47,1.89,2.68S27.82,29.1,26.25,29.1Z" transform="translate(165 789)"/>
    <rect id="Rectangle_2" data-name="Rectangle 2" width="2.15" height="2.07" transform="translate(197.51 808.04)"/>
    <rect id="Rectangle_3" data-name="Rectangle 3" width="2.03" height="8.33" transform="translate(197.57 811.26)"/>
    <path id="Path_11" data-name="Path 11" d="M43.66,28.52V25.43a4.565,4.565,0,0,0-.24-1.68c-.48-1.25-1.7-1.7-3.12-1.7-1.86,0-3.35.83-3.46,2.71h1.94c.05-.77.59-1.19,1.52-1.19,1.14,0,1.41.53,1.41,1.31v.51l-2.45.18c-1.59.11-2.82,1.03-2.82,2.61a2.692,2.692,0,0,0,3.01,2.61,2.915,2.915,0,0,0,2.53-1.25,1.3,1.3,0,0,0,1.41,1.17,2.043,2.043,0,0,0,.99-.22V29.02a1.326,1.326,0,0,1-.26.03C43.79,29.05,43.66,28.91,43.66,28.52Zm-1.95-1.25a1.886,1.886,0,0,1-2.13,1.91,1.1,1.1,0,0,1-1.19-1.04,1.171,1.171,0,0,1,1.2-1.09l2.11-.16v.38Z" transform="translate(165 789)"/>
    <path id="Path_12" data-name="Path 12" d="M52.22,19.23,48.23,30.59h2.08l.74-2.18h4.52l.74,2.18h2.16L54.48,19.23Zm-.53,7.32,1.62-4.79,1.62,4.79Z" transform="translate(165 789)"/>
    <path id="Path_13" data-name="Path 13" d="M61.59,23.51l-.18-1.25h-1.7v8.33h2.02v-4.2a2.107,2.107,0,0,1,2.15-2.36,3.323,3.323,0,0,1,.69.08V22.19a4.436,4.436,0,0,0-.62-.05A2.4,2.4,0,0,0,61.59,23.51Z" transform="translate(165 789)"/>
    <path id="Path_14" data-name="Path 14" d="M68.69,27.96V23.91h2.1V22.26h-2.1V19.65l-2,.5v2.11H65.17v1.65h1.52v4.23a2.285,2.285,0,0,0,2.52,2.56,6.971,6.971,0,0,0,1.71-.22V28.8a10.723,10.723,0,0,1-1.3.08C68.98,28.87,68.69,28.6,68.69,27.96Z" transform="translate(165 789)"/>
    <path id="Path_15" data-name="Path 15" d="M76.81,25.65c-.82-.13-1.03-.14-1.78-.24-.45-.06-.96-.24-.96-.83a.955.955,0,0,1,.64-.88,2.052,2.052,0,0,1,.87-.13,1.6,1.6,0,0,1,1.09.38,1.151,1.151,0,0,1,.34.79h1.91a2.577,2.577,0,0,0-.74-1.71,3.585,3.585,0,0,0-2.61-.98,3.81,3.81,0,0,0-2.53.83,2.361,2.361,0,0,0-.85,1.87,2.315,2.315,0,0,0,1.91,2.23c.74.16,1.57.21,2.31.32a.876.876,0,0,1,.83.88c0,.91-1.03,1.06-1.7,1.06a1.853,1.853,0,0,1-1.27-.37,1.335,1.335,0,0,1-.45-.98H71.95a2.761,2.761,0,0,0,.88,1.94,3.781,3.781,0,0,0,2.69.96,3.976,3.976,0,0,0,2.85-.96A2.5,2.5,0,0,0,79.09,28,2.413,2.413,0,0,0,76.81,25.65Z" transform="translate(165 789)"/>
  </g>
</svg>
