<svg id="Group_31" data-name="Group 31" xmlns="http://www.w3.org/2000/svg" viewBox="0 0 194 81.755">
  <path id="Path_33" data-name="Path 33" d="M140.372.711A.711.711,0,1,1,139.661,0a.712.712,0,0,1,.711.711" transform="translate(-55.206)"/>
  <path id="Path_34" data-name="Path 34" d="M140.372,4.911a.711.711,0,1,1-.711-.711.712.712,0,0,1,.711.711" transform="translate(-55.206 -1.669)"/>
  <path id="Path_35" data-name="Path 35" d="M140.372,9.451a.711.711,0,1,1-.711-.711.712.712,0,0,1,.711.711" transform="translate(-55.206 -3.472)"/>
  <path id="Path_36" data-name="Path 36" d="M140.372,14a.711.711,0,1,1-.711-.711.712.712,0,0,1,.711.711" transform="translate(-55.206 -5.28)"/>
  <path id="Path_37" data-name="Path 37" d="M140.372,18.9a.711.711,0,1,1-.711-.711.712.712,0,0,1,.711.711" transform="translate(-55.206 -7.227)"/>
  <path id="Path_38" data-name="Path 38" d="M140.372,23.8a.711.711,0,1,1-.711-.711.712.712,0,0,1,.711.711" transform="translate(-55.206 -9.174)"/>
  <path id="Path_39" data-name="Path 39" d="M140.372,28.841a.711.711,0,1,1-.711-.711.712.712,0,0,1,.711.711" transform="translate(-55.206 -11.176)"/>
  <path id="Path_40" data-name="Path 40" d="M140.372,33.881a.711.711,0,1,1-.711-.711.712.712,0,0,1,.711.711" transform="translate(-55.206 -13.179)"/>
  <path id="Path_41" data-name="Path 41" d="M140.372,39.341a.711.711,0,1,1-.711-.711.712.712,0,0,1,.711.711" transform="translate(-55.206 -15.348)"/>
  <path id="Path_42" data-name="Path 42" d="M140.372,44.8a.711.711,0,1,1-.711-.711.712.712,0,0,1,.711.711" transform="translate(-55.206 -17.517)"/>
  <path id="Path_43" data-name="Path 43" d="M140.372,50.541a.711.711,0,1,1-.711-.711.712.712,0,0,1,.711.711" transform="translate(-55.206 -19.798)"/>
  <path id="Path_44" data-name="Path 44" d="M140.372,56.421a.711.711,0,1,1-.711-.711.712.712,0,0,1,.711.711" transform="translate(-55.206 -22.134)"/>
  <path id="Path_45" data-name="Path 45" d="M140.372,62.581a.711.711,0,1,1-.711-.711.712.712,0,0,1,.711.711" transform="translate(-55.206 -24.582)"/>
  <path id="Path_46" data-name="Path 46" d="M140.372,69.591a.711.711,0,1,1-.711-.711.712.712,0,0,1,.711.711" transform="translate(-55.206 -27.367)"/>
  <path id="Path_47" data-name="Path 47" d="M140.372,77.281a.711.711,0,1,1-.711-.711.712.712,0,0,1,.711.711" transform="translate(-55.206 -30.422)"/>
  <path id="Path_48" data-name="Path 48" d="M140.372,86.381a.711.711,0,1,1-.711-.711.712.712,0,0,1,.711.711" transform="translate(-55.206 -34.038)"/>
  <path id="Path_49" data-name="Path 49" d="M140.372,96.181a.711.711,0,1,1-.711-.711.712.712,0,0,1,.711.711" transform="translate(-55.206 -37.931)"/>
  <path id="Path_50" data-name="Path 50" d="M140.372,107.371a.711.711,0,1,1-.711-.711.712.712,0,0,1,.711.711" transform="translate(-55.206 -42.377)"/>
  <path id="Path_51" data-name="Path 51" d="M140.372,120a.711.711,0,1,1-.711-.711.7.7,0,0,1,.711.711" transform="translate(-55.206 -47.395)"/>
  <path id="Path_52" data-name="Path 52" d="M140.372,134a.711.711,0,1,1-.711-.711.7.7,0,0,1,.711.711" transform="translate(-55.206 -52.957)"/>
  <rect id="Rectangle_39" data-name="Rectangle 39" width="41.736" height="1.748" transform="translate(30.394 39.253)"/>
  <rect id="Rectangle_40" data-name="Rectangle 40" width="46.377" height="1.748" transform="translate(28.031 42.23)"/>
  <rect id="Rectangle_41" data-name="Rectangle 41" width="50.837" height="1.748" transform="translate(25.843 45.208)"/>
  <rect id="Rectangle_42" data-name="Rectangle 42" width="41.736" height="1.748" transform="translate(30.394 17.195)"/>
  <path id="Path_53" data-name="Path 53" d="M61.095,23.14l12.427-3.719L85.684,23.14h5.075L73.522,17.8l-17.5,5.34Z" transform="translate(-22.257 -7.072)"/>
  <path id="Path_54" data-name="Path 54" d="M50.43,21.181l20.739-6.346,21,6.346V19.3L71.3,12.87,50.43,19.3Z" transform="translate(-20.036 -5.113)"/>
  <path id="Path_55" data-name="Path 55" d="M54.5,50.178a1.348,1.348,0,0,0,1.489,1.314,1.247,1.247,0,0,0,1.4-1.314V33.2h-1.1V50.22s0,.307-.392.307-.307-.392-.307-.392V33.2H54.5Z" transform="translate(-21.653 -13.191)"/>
  <path id="Path_56" data-name="Path 56" d="M65.89,51.492h.874V40.5l1.1,10.993h.916V33.2h-.916v9.776l-1.1-9.776H65.89Z" transform="translate(-26.179 -13.191)"/>
  <path id="Path_57" data-name="Path 57" d="M77.43,51.492h2.8v-.964H78.659V42.258h1.181V41.252H78.659v-7.13h1.181V33.2H77.43Z" transform="translate(-30.764 -13.191)"/>
  <path id="Path_58" data-name="Path 58" d="M102.275,38.634v-4.11a1.367,1.367,0,0,0-1.446-1.314,1.315,1.315,0,0,0-1.4,1.314V50.188a1.277,1.277,0,0,0,1.4,1.314,1.332,1.332,0,0,0,1.446-1.314V45.6h-1.091v4.592a.342.342,0,0,1-.35.35.424.424,0,0,1-.392-.35V34.518a.384.384,0,0,1,.392-.392c.35,0,.35.392.35.392v4.11h1.091Z" transform="translate(-39.504 -13.195)"/>
  <path id="Path_59" data-name="Path 59" d="M113.727,34.514a1.269,1.269,0,0,0-1.446-1.314,1.365,1.365,0,0,0-1.531,1.314V50.178a1.33,1.33,0,0,0,1.44,1.314,1.365,1.365,0,0,0,1.531-1.314V34.514Zm-1.049,15.664s.042.35-.392.35-.434-.35-.434-.35V34.514a.384.384,0,0,1,.392-.392.4.4,0,0,1,.44.392V50.178Z" transform="translate(-44.002 -13.191)"/>
  <path id="Path_60" data-name="Path 60" d="M89.736,50.177s0,.35-.283.325a.321.321,0,0,1-.283-.325V45.585H88.03v4.592a1.282,1.282,0,0,0,1.4,1.314,1.332,1.332,0,0,0,1.446-1.314V46.223c-.006-2.146-1.706-6.238-1.706-7.594V34.513s-.042-.392.265-.392.307.392.307.392v4.11h1.139v-4.11a1.264,1.264,0,0,0-1.4-1.314,1.352,1.352,0,0,0-1.446,1.314v3.5c0,2.3,1.706,6.172,1.706,7.943v4.219Z" transform="translate(-34.975 -13.19)"/>
  <path id="Path_61" data-name="Path 61" d="M160.493,39.573h6.883v3.441H157.051V39.573Zm0-6.889h6.883v3.441h-6.883ZM157.051,22.36V39.567H153.61V49.891h3.441V46.45h10.324v3.441h3.441V36.125h3.441V46.45H177.7V36.125h3.441V32.684H170.817V25.8h-3.441v3.441h-6.883V25.8h6.883V22.36Z" transform="translate(-61.031 -8.884)"/>
  <path id="Path_62" data-name="Path 62" d="M199.31,48.651v6.883h3.441V45.21H199.31Z" transform="translate(-79.188 -17.962)"/>
  <path id="Path_63" data-name="Path 63" d="M222.08,50.307a2.291,2.291,0,0,1-1.459.374H218.44V45.19h2.182a2.293,2.293,0,0,1,1.266.3,1.418,1.418,0,0,1,.633,1.187,1.263,1.263,0,0,1-.669,1.163,1.338,1.338,0,0,1,.79,1.236,1.5,1.5,0,0,1-.561,1.229m-1.422-4.261h-1.229V47.42h1.254c.446,0,.826-.163.826-.681s-.4-.693-.85-.693m.03,2.212h-1.26v1.525h1.229c.464,0,.964-.169.964-.723,0-.591-.41-.8-.934-.8" transform="translate(-86.788 -17.954)"/>
  <path id="Path_64" data-name="Path 64" d="M228.843,48.44a1.016,1.016,0,0,0-1.037,1.139V51.6h-.976v-4.02h.82l.084.6a1.157,1.157,0,0,1,1.139-.657,1.694,1.694,0,0,1,.3.024v.928a1.251,1.251,0,0,0-.331-.042" transform="translate(-90.122 -18.884)"/>
  <path id="Path_65" data-name="Path 65" d="M234.657,51.633a.634.634,0,0,1-.681-.567,1.413,1.413,0,0,1-1.223.6,1.268,1.268,0,1,1-.09-2.519l1.181-.084v-.247c0-.38-.133-.633-.681-.633-.446,0-.711.2-.735.573h-.934c.054-.9.771-1.308,1.669-1.308a1.448,1.448,0,0,1,1.507.82,2.184,2.184,0,0,1,.115.814v1.495c0,.187.06.253.223.253a.563.563,0,0,0,.127-.018v.711a1.011,1.011,0,0,1-.476.108m-.814-1.85-1.019.078a.561.561,0,0,0-.579.524.529.529,0,0,0,.573.5.911.911,0,0,0,1.031-.922v-.181Z" transform="translate(-91.898 -18.852)"/>
  <path id="Path_66" data-name="Path 66" d="M240.4,53.28a2.4,2.4,0,0,1-1.422-.331,1.036,1.036,0,0,1-.488-.88.894.894,0,0,1,.476-.82.81.81,0,0,1-.4-.687.928.928,0,0,1,.476-.814,1.362,1.362,0,0,1-.4-.988,1.484,1.484,0,0,1,1.645-1.477,1.773,1.773,0,0,1,.91.247.862.862,0,0,1,.82-.5,1.339,1.339,0,0,1,.265.018V47.8c-.024,0-.054-.006-.078-.006-.223,0-.428.06-.488.253a1.375,1.375,0,0,1,.211.729,1.505,1.505,0,0,1-1.639,1.459,2.136,2.136,0,0,1-.651-.108.367.367,0,0,0-.2.283c0,.241.241.3.44.3h.663a2.3,2.3,0,0,1,1.308.271,1.1,1.1,0,0,1,.488.964c.012,1.055-1.031,1.344-1.929,1.344m.072-1.82h-.759a.493.493,0,0,0-.362.494c0,.512.633.554,1.013.554s1.067-.024,1.067-.554c0-.494-.6-.494-.958-.494m-.181-3.453a.745.745,0,0,0,0,1.489.745.745,0,0,0,0-1.489" transform="translate(-94.754 -18.685)"/>
  <path id="Path_67" data-name="Path 67" d="M248.817,51.633a.634.634,0,0,1-.681-.567,1.413,1.413,0,0,1-1.223.6,1.268,1.268,0,1,1-.09-2.519L248,49.065v-.247c0-.38-.133-.633-.681-.633-.446,0-.711.2-.735.573h-.934c.054-.9.771-1.308,1.669-1.308a1.448,1.448,0,0,1,1.507.82,2.183,2.183,0,0,1,.115.814v1.495c0,.187.06.253.223.253a.563.563,0,0,0,.127-.018v.711a.976.976,0,0,1-.476.108m-.808-1.85-1.019.078a.561.561,0,0,0-.579.524.529.529,0,0,0,.573.5.911.911,0,0,0,1.031-.922v-.181Z" transform="translate(-97.524 -18.852)"/>
  <path id="Path_68" data-name="Path 68" d="M221.693,63.516a2.212,2.212,0,0,1-1.567.651,2.165,2.165,0,0,1-1.555-.609,2.858,2.858,0,0,1-.681-2.224,2.85,2.85,0,0,1,.681-2.224,2.156,2.156,0,0,1,1.555-.621,2.2,2.2,0,0,1,1.567.633,1.959,1.959,0,0,1,.524,1.187H221.2a1.011,1.011,0,0,0-.247-.579,1.041,1.041,0,0,0-.826-.344,1.167,1.167,0,0,0-.844.362,3.473,3.473,0,0,0,0,3.158,1.167,1.167,0,0,0,.844.362,1.036,1.036,0,0,0,.826-.35,1.085,1.085,0,0,0,.247-.6h1.019a2.047,2.047,0,0,1-.524,1.2" transform="translate(-86.57 -23.239)"/>
  <path id="Path_69" data-name="Path 69" d="M226.35,58.49h1.037v.994H226.35Zm.03,1.555h.982v4.02h-.982Z" transform="translate(-89.931 -23.239)"/>
  <path id="Path_70" data-name="Path 70" d="M231.107,64.314a1.1,1.1,0,0,1-1.211-1.236V61.035h-.735v-.8h.735V59.221l.964-.241v1.26h1.013v.8H230.86v1.953c0,.307.139.44.446.44a4.975,4.975,0,0,0,.627-.036v.814a3.448,3.448,0,0,1-.826.108" transform="translate(-91.048 -23.433)"/>
  <path id="Path_71" data-name="Path 71" d="M236.4,65.781a1.306,1.306,0,0,1-1.236,1.006,2.744,2.744,0,0,1-.741-.1v-.8a2.321,2.321,0,0,0,.542.072.465.465,0,0,0,.464-.3l.235-.567L234.08,61.08h1.061l1.049,2.9,1.006-2.9h.982Z" transform="translate(-93.002 -24.268)"/>
  <path id="Path_72" data-name="Path 72" d="M247.265,64.5a1.893,1.893,0,0,1-2.815,0,2.573,2.573,0,0,1,0-2.965,1.854,1.854,0,0,1,1.41-.627,1.831,1.831,0,0,1,1.4.627,2.573,2.573,0,0,1,0,2.965m-.8-2.5a.85.85,0,0,0-.609-.253.828.828,0,0,0-.609.253,1.5,1.5,0,0,0-.289,1.013,1.464,1.464,0,0,0,.289,1.013.858.858,0,0,0,1.217,0,1.492,1.492,0,0,0,.283-1.013A1.449,1.449,0,0,0,246.469,62" transform="translate(-96.936 -24.2)"/>
  <path id="Path_73" data-name="Path 73" d="M253.08,59.13a.464.464,0,0,0-.524.488v.374h1.073v.8h-1.073v3.224h-.964V60.787h-.681v-.8h.681v-.386a1.232,1.232,0,0,1,1.368-1.266,3.408,3.408,0,0,1,.759.084V59.2a2.931,2.931,0,0,0-.639-.066" transform="translate(-99.689 -23.179)"/>
  <path id="Path_74" data-name="Path 74" d="M263.738,64.128V60.217l-1.422,3.833h-.735l-1.416-3.881v3.96H259.2V58.65h1.344l1.44,3.9,1.446-3.9H264.7v5.478Z" transform="translate(-102.983 -23.302)"/>
  <path id="Path_75" data-name="Path 75" d="M273.55,63.311h-2.688a1.078,1.078,0,0,0,.3.79.841.841,0,0,0,.6.247.747.747,0,0,0,.585-.193.713.713,0,0,0,.193-.338h.928a1.582,1.582,0,0,1-.344.741,1.715,1.715,0,0,1-1.35.567,1.743,1.743,0,0,1-1.266-.494,2.175,2.175,0,0,1-.621-1.609,2.273,2.273,0,0,1,.579-1.609,1.753,1.753,0,0,1,1.284-.512,1.71,1.71,0,0,1,1.471.741,2.272,2.272,0,0,1,.35,1.4c0,.006-.012.187-.012.271m-1.205-1.4a.807.807,0,0,0-.609-.229.847.847,0,0,0-.675.307,1,1,0,0,0-.211.627h1.742a1.03,1.03,0,0,0-.247-.705" transform="translate(-107.226 -24.196)"/>
  <path id="Path_76" data-name="Path 76" d="M279.861,64.065l-.06-.44a1.307,1.307,0,0,1-1.127.536,1.545,1.545,0,0,1-.982-.338,2.143,2.143,0,0,1-.711-1.754,2.222,2.222,0,0,1,.717-1.8,1.527,1.527,0,0,1,.982-.325,1.34,1.34,0,0,1,1.049.38V58.49h.964v5.581h-.832Zm-1-3.309a.79.79,0,0,0-.651.319,1.626,1.626,0,0,0-.253.976,1.645,1.645,0,0,0,.253.982.8.8,0,0,0,.651.313c.759,0,.91-.717.91-1.3s-.151-1.3-.91-1.3" transform="translate(-110.047 -23.239)"/>
  <path id="Path_77" data-name="Path 77" d="M285.06,58.49H286.1v.994H285.06Zm.03,1.555h.982v4.02h-.982Z" transform="translate(-113.257 -23.239)"/>
  <path id="Path_78" data-name="Path 78" d="M291.507,65.083a.634.634,0,0,1-.681-.567,1.413,1.413,0,0,1-1.223.6,1.268,1.268,0,1,1-.09-2.519l1.181-.084v-.247c0-.38-.133-.633-.681-.633-.446,0-.711.2-.735.573h-.934c.054-.9.771-1.308,1.669-1.308a1.448,1.448,0,0,1,1.507.82,2.184,2.184,0,0,1,.115.814v1.495c0,.187.06.253.223.253a.563.563,0,0,0,.127-.018v.711a.928.928,0,0,1-.476.108m-.814-1.844-1.019.078a.561.561,0,0,0-.579.524.529.529,0,0,0,.573.5.911.911,0,0,0,1.031-.922v-.181Z" transform="translate(-114.485 -24.196)"/>
  <path id="Path_79" data-name="Path 79" d="M301.379,64.128l-.356-1.049h-2.182l-.356,1.049H297.48L299.4,58.65h1.091l1.923,5.478Zm-1.446-4.261-.783,2.314h1.561Z" transform="translate(-118.192 -23.302)"/>
  <path id="Path_80" data-name="Path 80" d="M308.633,61.89a1.016,1.016,0,0,0-1.037,1.139v2.025h-.976v-4.02h.82l.084.6a1.157,1.157,0,0,1,1.139-.657,1.694,1.694,0,0,1,.3.024v.928a1.513,1.513,0,0,0-.332-.042" transform="translate(-121.823 -24.228)"/>
  <path id="Path_81" data-name="Path 81" d="M312.753,64.314a1.1,1.1,0,0,1-1.217-1.236V61.035H310.8v-.8h.735V59.221l.964-.241v1.26h1.013v.8H312.5v1.953c0,.307.139.44.446.44a4.975,4.975,0,0,0,.627-.036v.814a3.321,3.321,0,0,1-.82.108" transform="translate(-123.484 -23.433)"/>
  <path id="Path_82" data-name="Path 82" d="M319.278,64.661a1.913,1.913,0,0,1-1.374.464,1.812,1.812,0,0,1-1.3-.464,1.313,1.313,0,0,1-.428-.934h.9a.642.642,0,0,0,.217.47.885.885,0,0,0,.609.175c.325,0,.82-.072.82-.512a.423.423,0,0,0-.4-.422c-.356-.054-.759-.078-1.115-.157a1.119,1.119,0,0,1-.922-1.073,1.141,1.141,0,0,1,.41-.9,1.854,1.854,0,0,1,1.223-.4,1.744,1.744,0,0,1,1.26.47,1.261,1.261,0,0,1,.356.826h-.922a.538.538,0,0,0-.163-.38.782.782,0,0,0-.524-.187,1.012,1.012,0,0,0-.416.06.465.465,0,0,0-.307.428c0,.283.247.374.464.4.362.048.464.054.856.115a1.16,1.16,0,0,1,1.1,1.133,1.174,1.174,0,0,1-.344.892" transform="translate(-125.622 -24.196)"/>
  <g id="Group_18" data-name="Group 18" transform="translate(92.585 54.568)">
    <path id="Path_83" data-name="Path 83" d="M153.62,95.293V90.55h1.633a4.2,4.2,0,0,1,.844.066,1.558,1.558,0,0,1,.693.338,1.865,1.865,0,0,1,.561.814,3.135,3.135,0,0,1,.187,1.127,3.3,3.3,0,0,1-.127.958,2.388,2.388,0,0,1-.325.693,1.618,1.618,0,0,1-.434.428,1.671,1.671,0,0,1-.567.235,3.251,3.251,0,0,1-.765.078h-1.7Zm.627-.561h1.013a2.587,2.587,0,0,0,.735-.084,1.1,1.1,0,0,0,.428-.247,1.5,1.5,0,0,0,.35-.6,2.9,2.9,0,0,0,.127-.916,2.213,2.213,0,0,0-.247-1.145,1.233,1.233,0,0,0-.6-.536,2.426,2.426,0,0,0-.814-.1h-.994Z" transform="translate(-153.62 -90.544)"/>
    <path id="Path_84" data-name="Path 84" d="M163.7,94.995l.6.072a1.473,1.473,0,0,1-.53.82,1.6,1.6,0,0,1-.982.289,1.57,1.57,0,0,1-1.193-.464,1.8,1.8,0,0,1-.44-1.3,1.9,1.9,0,0,1,.446-1.344,1.5,1.5,0,0,1,1.157-.476,1.469,1.469,0,0,1,1.127.47,1.876,1.876,0,0,1,.44,1.32c0,.036,0,.084-.006.157h-2.561a1.323,1.323,0,0,0,.319.868.965.965,0,0,0,.717.3.886.886,0,0,0,.548-.169A1.2,1.2,0,0,0,163.7,94.995Zm-1.917-.94h1.923a1.111,1.111,0,0,0-.223-.651.9.9,0,0,0-.723-.338.923.923,0,0,0-.675.271A1.089,1.089,0,0,0,161.787,94.055Z" transform="translate(-156.616 -91.354)"/>
    <path id="Path_85" data-name="Path 85" d="M167.2,95.075l.579-.09a.782.782,0,0,0,.271.53,1.149,1.149,0,0,0,1.217.024.476.476,0,0,0,.193-.386.35.35,0,0,0-.175-.313,2.554,2.554,0,0,0-.6-.2,5.453,5.453,0,0,1-.886-.277.862.862,0,0,1-.374-.325.88.88,0,0,1-.127-.464.953.953,0,0,1,.1-.428.885.885,0,0,1,.289-.325,1.137,1.137,0,0,1,.374-.169,1.928,1.928,0,0,1,.5-.072,1.978,1.978,0,0,1,.711.115.962.962,0,0,1,.452.313,1.221,1.221,0,0,1,.2.53l-.573.078a.645.645,0,0,0-.223-.416.8.8,0,0,0-.524-.151.943.943,0,0,0-.573.133.394.394,0,0,0-.175.313.315.315,0,0,0,.072.2.542.542,0,0,0,.223.157c.06.024.229.072.512.151a6.58,6.58,0,0,1,.862.271.933.933,0,0,1,.386.307.83.83,0,0,1,.139.5.964.964,0,0,1-.169.548,1.109,1.109,0,0,1-.488.4,1.76,1.76,0,0,1-.723.139,1.621,1.621,0,0,1-1.025-.277A1.3,1.3,0,0,1,167.2,95.075Z" transform="translate(-159.015 -91.351)"/>
    <path id="Path_86" data-name="Path 86" d="M173.07,91.219V90.55h.585v.669Zm0,4.074V91.858h.585v3.435Z" transform="translate(-161.348 -90.544)"/>
    <path id="Path_87" data-name="Path 87" d="M175.275,96.379l.567.084a.532.532,0,0,0,.2.38.967.967,0,0,0,.591.163,1.048,1.048,0,0,0,.627-.163.761.761,0,0,0,.3-.452,3.909,3.909,0,0,0,.042-.747,1.2,1.2,0,0,1-.952.452,1.287,1.287,0,0,1-1.1-.512,1.969,1.969,0,0,1-.386-1.229,2.272,2.272,0,0,1,.181-.91,1.422,1.422,0,0,1,.518-.645,1.4,1.4,0,0,1,.8-.229,1.236,1.236,0,0,1,1.006.494v-.416h.536V95.62a2.832,2.832,0,0,1-.163,1.139,1.221,1.221,0,0,1-.518.53,1.82,1.82,0,0,1-.874.193,1.633,1.633,0,0,1-.994-.277A.891.891,0,0,1,175.275,96.379Zm.482-2.061a1.49,1.49,0,0,0,.271.988.848.848,0,0,0,.675.313.869.869,0,0,0,.675-.307,1.822,1.822,0,0,0-.006-1.923.865.865,0,0,0-1.338-.006A1.352,1.352,0,0,0,175.757,94.318Z" transform="translate(-162.178 -91.347)"/>
    <path id="Path_88" data-name="Path 88" d="M181.62,96.1V92.668h.524v.488a1.228,1.228,0,0,1,1.091-.567,1.389,1.389,0,0,1,.573.115.912.912,0,0,1,.392.3,1.193,1.193,0,0,1,.181.428,3.139,3.139,0,0,1,.03.567V96.11h-.585V94.018a1.644,1.644,0,0,0-.066-.53.58.58,0,0,0-.241-.283.746.746,0,0,0-.4-.1.956.956,0,0,0-.645.235,1.166,1.166,0,0,0-.271.9v1.88h-.579Z" transform="translate(-164.745 -91.354)"/>
    <path id="Path_89" data-name="Path 89" d="M189.821,95.682a2.159,2.159,0,0,1-.621.386,1.883,1.883,0,0,1-.645.115,1.247,1.247,0,0,1-.874-.277.908.908,0,0,1-.3-.705.946.946,0,0,1,.115-.464.96.96,0,0,1,.3-.338,1.419,1.419,0,0,1,.422-.193,3.684,3.684,0,0,1,.518-.084,5.061,5.061,0,0,0,1.037-.2v-.151a.648.648,0,0,0-.163-.5.968.968,0,0,0-.663-.2,1.03,1.03,0,0,0-.609.145.856.856,0,0,0-.289.512l-.573-.078a1.483,1.483,0,0,1,.253-.591,1.123,1.123,0,0,1,.512-.35,2.34,2.34,0,0,1,.777-.121,2.154,2.154,0,0,1,.717.1.81.81,0,0,1,.585.657,3.363,3.363,0,0,1,.03.536v.777a8.551,8.551,0,0,0,.036,1.031,1.232,1.232,0,0,0,.145.41h-.609A1.6,1.6,0,0,1,189.821,95.682Zm-.048-1.3a4.364,4.364,0,0,1-.952.223,2.287,2.287,0,0,0-.506.115.508.508,0,0,0-.229.187.519.519,0,0,0,.1.663.761.761,0,0,0,.518.157,1.214,1.214,0,0,0,.6-.145.923.923,0,0,0,.386-.4,1.446,1.446,0,0,0,.1-.585V94.38Z" transform="translate(-167.033 -91.354)"/>
    <path id="Path_90" data-name="Path 90" d="M194.787,94.842l.084.512a2.078,2.078,0,0,1-.44.054,1.023,1.023,0,0,1-.494-.1.581.581,0,0,1-.247-.265,2.048,2.048,0,0,1-.072-.687V92.377h-.428v-.452h.428V91.07l.579-.35v1.2h.585v.452H194.2v2.007a1.087,1.087,0,0,0,.03.319.234.234,0,0,0,.1.115.375.375,0,0,0,.2.042A1.339,1.339,0,0,0,194.787,94.842Z" transform="translate(-169.342 -90.612)"/>
    <path id="Path_91" data-name="Path 91" d="M198.919,94.995l.6.072a1.473,1.473,0,0,1-.53.82,1.8,1.8,0,0,1-2.182-.175,1.8,1.8,0,0,1-.44-1.3,1.9,1.9,0,0,1,.446-1.344,1.5,1.5,0,0,1,1.157-.476,1.469,1.469,0,0,1,1.127.47,1.876,1.876,0,0,1,.44,1.32v.157h-2.561a1.323,1.323,0,0,0,.319.868.965.965,0,0,0,.717.3.886.886,0,0,0,.548-.169A1.2,1.2,0,0,0,198.919,94.995ZM197,94.055h1.923a1.154,1.154,0,0,0-.223-.651.9.9,0,0,0-.723-.338.923.923,0,0,0-.675.271A1.06,1.06,0,0,0,197,94.055Z" transform="translate(-170.605 -91.354)"/>
    <path id="Path_92" data-name="Path 92" d="M204.9,95.289v-.434a1.063,1.063,0,0,1-.964.512,1.3,1.3,0,0,1-.753-.229,1.5,1.5,0,0,1-.536-.633,2.192,2.192,0,0,1-.187-.934,2.434,2.434,0,0,1,.169-.934,1.374,1.374,0,0,1,.512-.645,1.355,1.355,0,0,1,.765-.223,1.126,1.126,0,0,1,.554.133,1.1,1.1,0,0,1,.4.344V90.54h.579v4.743H204.9Zm-1.844-1.718a1.488,1.488,0,0,0,.277.988.841.841,0,0,0,.657.325.827.827,0,0,0,.651-.313,1.459,1.459,0,0,0,.265-.952,1.628,1.628,0,0,0-.271-1.037.827.827,0,0,0-.669-.331.816.816,0,0,0-.651.319A1.616,1.616,0,0,0,203.057,93.572Z" transform="translate(-173.025 -90.54)"/>
  </g>
  <g id="Group_19" data-name="Group 19" transform="translate(92.597 61.715)">
    <path id="Path_93" data-name="Path 93" d="M156.744,102.55h.627v2.742a3.2,3.2,0,0,1-.163,1.133,1.422,1.422,0,0,1-.585.687,2.083,2.083,0,0,1-1.109.265,2.307,2.307,0,0,1-1.091-.229,1.293,1.293,0,0,1-.6-.663,3.17,3.17,0,0,1-.181-1.187v-2.742h.627v2.736a2.62,2.62,0,0,0,.115.91.907.907,0,0,0,.4.452,1.412,1.412,0,0,0,.687.157,1.305,1.305,0,0,0,.988-.313,1.8,1.8,0,0,0,.3-1.205V102.55Z" transform="translate(-153.64 -102.46)"/>
    <path id="Path_94" data-name="Path 94" d="M161.63,107.293V102.55h.645l2.5,3.725V102.55h.6v4.743h-.645l-2.5-3.731v3.731Z" transform="translate(-156.814 -102.46)"/>
    <path id="Path_95" data-name="Path 95" d="M169.68,107.293V102.55h3.429v.561h-2.8v1.452h2.628v.554h-2.628v1.615h2.911v.561Z" transform="translate(-160.013 -102.46)"/>
    <path id="Path_96" data-name="Path 96" d="M176.46,105.709l.591-.054a1.341,1.341,0,0,0,.2.585,1.043,1.043,0,0,0,.476.368,1.769,1.769,0,0,0,.729.139,1.7,1.7,0,0,0,.633-.108.893.893,0,0,0,.41-.3.675.675,0,0,0,.133-.4.635.635,0,0,0-.127-.392.9.9,0,0,0-.428-.277,8.4,8.4,0,0,0-.844-.229,4.379,4.379,0,0,1-.916-.3,1.267,1.267,0,0,1-.506-.44,1.107,1.107,0,0,1-.169-.591,1.2,1.2,0,0,1,.2-.675,1.279,1.279,0,0,1,.6-.476,2.258,2.258,0,0,1,.874-.163,2.34,2.34,0,0,1,.928.169,1.322,1.322,0,0,1,.621.5,1.46,1.46,0,0,1,.235.747l-.6.048a.972.972,0,0,0-.331-.681,1.3,1.3,0,0,0-.826-.229,1.337,1.337,0,0,0-.832.211.62.62,0,0,0-.259.5.533.533,0,0,0,.187.422,2.494,2.494,0,0,0,.946.338,6.208,6.208,0,0,1,1.049.3,1.4,1.4,0,0,1,.609.482,1.218,1.218,0,0,1,.2.675,1.28,1.28,0,0,1-.217.711,1.393,1.393,0,0,1-.621.518,2.241,2.241,0,0,1-.916.187,2.7,2.7,0,0,1-1.079-.187,1.5,1.5,0,0,1-.681-.567A1.458,1.458,0,0,1,176.46,105.709Z" transform="translate(-162.707 -102.4)"/>
    <path id="Path_97" data-name="Path 97" d="M187.358,105.574l.627.157a2.108,2.108,0,0,1-.711,1.181,1.955,1.955,0,0,1-1.254.4,2.227,2.227,0,0,1-1.248-.313,1.953,1.953,0,0,1-.729-.9,3.215,3.215,0,0,1-.253-1.272,2.832,2.832,0,0,1,.283-1.3,1.937,1.937,0,0,1,.808-.838,2.328,2.328,0,0,1,1.151-.283,1.955,1.955,0,0,1,1.2.362,1.855,1.855,0,0,1,.675,1.019l-.621.145a1.483,1.483,0,0,0-.476-.753,1.267,1.267,0,0,0-.79-.235,1.539,1.539,0,0,0-.916.265,1.394,1.394,0,0,0-.518.705,2.746,2.746,0,0,0-.151.91,2.952,2.952,0,0,0,.175,1.055,1.34,1.34,0,0,0,.548.675,1.525,1.525,0,0,0,.808.223,1.365,1.365,0,0,0,.892-.3A1.548,1.548,0,0,0,187.358,105.574Z" transform="translate(-165.619 -102.404)"/>
    <path id="Path_98" data-name="Path 98" d="M191.72,104.929a2.581,2.581,0,0,1,.633-1.85,2.158,2.158,0,0,1,1.639-.669,2.234,2.234,0,0,1,1.181.313,2.044,2.044,0,0,1,.8.874,3.037,3.037,0,0,1-.012,2.561,1.97,1.97,0,0,1-.826.862,2.388,2.388,0,0,1-1.151.3,2.252,2.252,0,0,1-1.2-.325,2.109,2.109,0,0,1-.8-.886A2.641,2.641,0,0,1,191.72,104.929Zm.645.006a1.892,1.892,0,0,0,.464,1.35,1.609,1.609,0,0,0,2.326-.006,2,2,0,0,0,.458-1.416,2.409,2.409,0,0,0-.2-1.013,1.487,1.487,0,0,0-.573-.669,1.566,1.566,0,0,0-.844-.241,1.588,1.588,0,0,0-1.145.458A2.062,2.062,0,0,0,192.365,104.935Z" transform="translate(-168.77 -102.404)"/>
    <path id="Path_99" data-name="Path 99" d="M206.918,105.574l.627.157a2.108,2.108,0,0,1-.711,1.181,1.955,1.955,0,0,1-1.254.4,2.227,2.227,0,0,1-1.248-.313,1.952,1.952,0,0,1-.729-.9,3.215,3.215,0,0,1-.253-1.272,2.832,2.832,0,0,1,.283-1.3,1.937,1.937,0,0,1,.808-.838,2.328,2.328,0,0,1,1.151-.283,1.955,1.955,0,0,1,1.2.362,1.855,1.855,0,0,1,.675,1.019l-.621.145a1.483,1.483,0,0,0-.476-.753,1.267,1.267,0,0,0-.79-.235,1.539,1.539,0,0,0-.916.265,1.394,1.394,0,0,0-.518.705,2.746,2.746,0,0,0-.151.91,2.952,2.952,0,0,0,.175,1.055,1.34,1.34,0,0,0,.548.675,1.525,1.525,0,0,0,.808.223,1.365,1.365,0,0,0,.892-.3A1.58,1.58,0,0,0,206.918,105.574Z" transform="translate(-173.39 -102.404)"/>
    <path id="Path_100" data-name="Path 100" d="M211.43,108.1v-3.435h.524v.518a1.426,1.426,0,0,1,.374-.482.636.636,0,0,1,.374-.115,1.1,1.1,0,0,1,.6.187l-.2.542a.834.834,0,0,0-.428-.127.549.549,0,0,0-.344.115.609.609,0,0,0-.217.319,2.214,2.214,0,0,0-.1.681v1.8h-.585Z" transform="translate(-176.601 -103.27)"/>
    <path id="Path_101" data-name="Path 101" d="M217.3,107l.6.072a1.473,1.473,0,0,1-.53.82,1.8,1.8,0,0,1-2.182-.175,1.8,1.8,0,0,1-.44-1.3,1.9,1.9,0,0,1,.446-1.344,1.5,1.5,0,0,1,1.157-.476,1.469,1.469,0,0,1,1.127.47,1.876,1.876,0,0,1,.44,1.32v.157h-2.561a1.323,1.323,0,0,0,.319.868.965.965,0,0,0,.717.3.886.886,0,0,0,.548-.169A1.17,1.17,0,0,0,217.3,107Zm-1.911-.946h1.923a1.154,1.154,0,0,0-.223-.651.9.9,0,0,0-.723-.338.923.923,0,0,0-.675.271A1.06,1.06,0,0,0,215.389,106.059Z" transform="translate(-177.92 -103.274)"/>
    <path id="Path_102" data-name="Path 102" d="M223.3,107.682a2.159,2.159,0,0,1-.621.386,1.883,1.883,0,0,1-.645.115,1.247,1.247,0,0,1-.874-.277.908.908,0,0,1-.3-.705.946.946,0,0,1,.115-.464.96.96,0,0,1,.3-.338,1.419,1.419,0,0,1,.422-.193,3.682,3.682,0,0,1,.518-.084,5.061,5.061,0,0,0,1.037-.2v-.151a.648.648,0,0,0-.163-.5.969.969,0,0,0-.663-.2,1.03,1.03,0,0,0-.609.145.856.856,0,0,0-.289.512l-.573-.078a1.483,1.483,0,0,1,.253-.591,1.124,1.124,0,0,1,.512-.35,2.34,2.34,0,0,1,.777-.121,2.154,2.154,0,0,1,.717.1.81.81,0,0,1,.585.657,3.365,3.365,0,0,1,.03.536v.777a8.554,8.554,0,0,0,.036,1.031,1.233,1.233,0,0,0,.145.41H223.4A1.6,1.6,0,0,1,223.3,107.682Zm-.048-1.3a4.365,4.365,0,0,1-.952.223,2.287,2.287,0,0,0-.506.115.508.508,0,0,0-.229.187.519.519,0,0,0,.1.663.761.761,0,0,0,.518.157,1.215,1.215,0,0,0,.6-.145.923.923,0,0,0,.386-.4,1.446,1.446,0,0,0,.1-.585v-.211Z" transform="translate(-180.347 -103.27)"/>
    <path id="Path_103" data-name="Path 103" d="M228.277,106.846l.084.512a2.078,2.078,0,0,1-.44.054,1.023,1.023,0,0,1-.494-.1.581.581,0,0,1-.247-.265,2.048,2.048,0,0,1-.072-.687v-1.977h-.428v-.452h.428v-.85l.579-.35v1.2h.585v.452h-.585v2.007a1.087,1.087,0,0,0,.03.319.234.234,0,0,0,.1.115.375.375,0,0,0,.2.042A1.469,1.469,0,0,0,228.277,106.846Z" transform="translate(-182.66 -102.531)"/>
    <path id="Path_104" data-name="Path 104" d="M230.3,103.219v-.669h.585v.669Zm0,4.074v-3.435h.585v3.435Z" transform="translate(-184.098 -102.46)"/>
    <path id="Path_105" data-name="Path 105" d="M233.448,108.155l-1.308-3.435h.615l.735,2.061c.078.223.151.452.223.693q.081-.271.217-.651l.765-2.1h.6l-1.3,3.435h-.542Z" transform="translate(-184.829 -103.322)"/>
    <path id="Path_106" data-name="Path 106" d="M240.259,107l.6.072a1.473,1.473,0,0,1-.53.82,1.8,1.8,0,0,1-2.182-.175,1.8,1.8,0,0,1-.44-1.3,1.9,1.9,0,0,1,.446-1.344,1.5,1.5,0,0,1,1.157-.476,1.469,1.469,0,0,1,1.127.47,1.876,1.876,0,0,1,.44,1.32v.157h-2.561a1.323,1.323,0,0,0,.319.868.965.965,0,0,0,.717.3.886.886,0,0,0,.548-.169A1.17,1.17,0,0,0,240.259,107Zm-1.911-.946h1.923a1.154,1.154,0,0,0-.223-.651.9.9,0,0,0-.723-.338.923.923,0,0,0-.675.271A1.06,1.06,0,0,0,238.349,106.059Z" transform="translate(-187.042 -103.274)"/>
    <path id="Path_107" data-name="Path 107" d="M250.6,105.574l.627.157a2.108,2.108,0,0,1-.711,1.181,1.955,1.955,0,0,1-1.254.4,2.227,2.227,0,0,1-1.248-.313,1.952,1.952,0,0,1-.729-.9,3.215,3.215,0,0,1-.253-1.272,2.832,2.832,0,0,1,.283-1.3,1.938,1.938,0,0,1,.808-.838,2.328,2.328,0,0,1,1.151-.283,1.955,1.955,0,0,1,1.2.362,1.855,1.855,0,0,1,.675,1.019l-.621.145a1.483,1.483,0,0,0-.476-.753,1.267,1.267,0,0,0-.79-.235,1.539,1.539,0,0,0-.916.265,1.393,1.393,0,0,0-.518.705,2.746,2.746,0,0,0-.151.91,2.952,2.952,0,0,0,.175,1.055,1.34,1.34,0,0,0,.548.675,1.525,1.525,0,0,0,.808.223,1.365,1.365,0,0,0,.892-.3A1.516,1.516,0,0,0,250.6,105.574Z" transform="translate(-190.745 -102.404)"/>
    <path id="Path_108" data-name="Path 108" d="M255.12,103.219v-.669h.585v.669Zm0,4.074v-3.435h.585v3.435Z" transform="translate(-193.959 -102.46)"/>
    <path id="Path_109" data-name="Path 109" d="M258.577,106.846l.084.512a2.078,2.078,0,0,1-.44.054,1.023,1.023,0,0,1-.494-.1.581.581,0,0,1-.247-.265,2.048,2.048,0,0,1-.072-.687v-1.977h-.428v-.452h.428v-.85l.579-.35v1.2h.585v.452h-.585v2.007a1.086,1.086,0,0,0,.03.319.234.234,0,0,0,.1.115.375.375,0,0,0,.2.042A1.4,1.4,0,0,0,258.577,106.846Z" transform="translate(-194.698 -102.531)"/>
    <path id="Path_110" data-name="Path 110" d="M260.561,109.477l-.066-.548a1.255,1.255,0,0,0,.331.054.672.672,0,0,0,.313-.066.551.551,0,0,0,.193-.181,2.821,2.821,0,0,0,.175-.434q.018-.045.054-.145l-1.3-3.441h.627l.717,1.989c.09.253.175.518.247.8a6.934,6.934,0,0,1,.241-.783l.735-2.007h.585l-1.308,3.5a6.027,6.027,0,0,1-.325.777,1.149,1.149,0,0,1-.356.422.832.832,0,0,1-.476.133A.89.89,0,0,1,260.561,109.477Z" transform="translate(-196.001 -103.318)"/>
  </g>
  <g id="Group_20" data-name="Group 20" transform="translate(92.513 69.02)">
    <path id="Path_111" data-name="Path 111" d="M153.5,115.219v-.669h.585v.669Zm0,4.074v-3.435h.585v3.435Z" transform="translate(-153.5 -114.532)"/>
    <path id="Path_112" data-name="Path 112" d="M155.91,120.1v-3.435h.524v.488a1.231,1.231,0,0,1,1.1-.567,1.389,1.389,0,0,1,.573.115.912.912,0,0,1,.392.3,1.192,1.192,0,0,1,.181.428,3.138,3.138,0,0,1,.03.567v2.115h-.585v-2.091a1.644,1.644,0,0,0-.066-.53.575.575,0,0,0-.241-.283.747.747,0,0,0-.4-.1.956.956,0,0,0-.645.235,1.166,1.166,0,0,0-.271.9v1.88h-.585Z" transform="translate(-154.458 -115.342)"/>
    <path id="Path_113" data-name="Path 113" d="M167.823,118.725v.561h-3.134a1.017,1.017,0,0,1,.066-.4,2.1,2.1,0,0,1,.386-.633,5.746,5.746,0,0,1,.765-.717,6.236,6.236,0,0,0,1.043-1.006,1.209,1.209,0,0,0,.271-.7.788.788,0,0,0-.247-.585.894.894,0,0,0-.645-.235.909.909,0,0,0-.675.253.948.948,0,0,0-.253.7l-.6-.06a1.45,1.45,0,0,1,.464-1.019,1.57,1.57,0,0,1,1.079-.35,1.491,1.491,0,0,1,1.079.38,1.248,1.248,0,0,1,.4.94,1.414,1.414,0,0,1-.115.561,2.145,2.145,0,0,1-.386.579,9.75,9.75,0,0,1-.9.838c-.35.3-.573.494-.675.6a1.871,1.871,0,0,0-.247.313h2.32Z" transform="translate(-157.945 -114.524)"/>
    <path id="Path_114" data-name="Path 114" d="M170.93,116.943a4.384,4.384,0,0,1,.175-1.356,1.672,1.672,0,0,1,.512-.79,1.332,1.332,0,0,1,.862-.277,1.4,1.4,0,0,1,.669.151,1.3,1.3,0,0,1,.476.446,2.366,2.366,0,0,1,.3.705,4.615,4.615,0,0,1,.108,1.121,4.369,4.369,0,0,1-.175,1.35,1.677,1.677,0,0,1-.512.8,1.447,1.447,0,0,1-1.941-.217A3.114,3.114,0,0,1,170.93,116.943Zm.6,0a3,3,0,0,0,.271,1.555.784.784,0,0,0,1.35,0,3,3,0,0,0,.271-1.555,2.972,2.972,0,0,0-.271-1.555.819.819,0,0,0-.681-.386.749.749,0,0,0-.639.338A3.035,3.035,0,0,0,171.527,116.943Z" transform="translate(-160.425 -114.52)"/>
    <path id="Path_115" data-name="Path 115" d="M179.234,119.285h-.585v-3.713a3.23,3.23,0,0,1-.554.4,4.059,4.059,0,0,1-.615.3v-.561a3.544,3.544,0,0,0,.856-.554,2.14,2.14,0,0,0,.518-.633h.374v4.755Z" transform="translate(-163.027 -114.524)"/>
    <path id="Path_116" data-name="Path 116" d="M182.24,115.211v-.561h3.074v.452a6.307,6.307,0,0,0-.9,1.284,7.8,7.8,0,0,0-.687,1.645,6.109,6.109,0,0,0-.223,1.3h-.6a5.621,5.621,0,0,1,.223-1.356,7.553,7.553,0,0,1,.6-1.531,6.548,6.548,0,0,1,.838-1.242H182.24Z" transform="translate(-164.919 -114.572)"/>
  </g>
  <g id="Group_21" data-name="Group 21" transform="translate(34.239 54.67)">
    <path id="Path_117" data-name="Path 117" d="M59.914,90.72h.627v2.742a3.2,3.2,0,0,1-.163,1.133,1.422,1.422,0,0,1-.585.687,2.083,2.083,0,0,1-1.109.265,2.307,2.307,0,0,1-1.091-.229,1.292,1.292,0,0,1-.6-.663,3.17,3.17,0,0,1-.181-1.187V90.726h.627v2.736a2.621,2.621,0,0,0,.115.91.907.907,0,0,0,.4.452,1.412,1.412,0,0,0,.687.157,1.305,1.305,0,0,0,.988-.313,1.8,1.8,0,0,0,.3-1.205V90.72Z" transform="translate(-56.81 -90.714)"/>
    <path id="Path_118" data-name="Path 118" d="M64.61,96.274V92.838h.524v.488a1.231,1.231,0,0,1,1.1-.567,1.389,1.389,0,0,1,.573.115.912.912,0,0,1,.392.3,1.193,1.193,0,0,1,.181.428,3.138,3.138,0,0,1,.03.567V96.28h-.585V94.188a1.644,1.644,0,0,0-.066-.53.575.575,0,0,0-.241-.283.746.746,0,0,0-.4-.1.956.956,0,0,0-.645.235,1.166,1.166,0,0,0-.271.9v1.88H64.61Z" transform="translate(-59.909 -91.524)"/>
    <path id="Path_119" data-name="Path 119" d="M70.69,91.389V90.72h.585v.669Zm0,4.074V92.028h.585v3.435Z" transform="translate(-62.325 -90.714)"/>
    <path id="Path_120" data-name="Path 120" d="M74.157,95.016l.084.512a2.078,2.078,0,0,1-.44.054,1.023,1.023,0,0,1-.494-.1.581.581,0,0,1-.247-.265,2.048,2.048,0,0,1-.072-.687V92.551H72.56V92.1h.428v-.85l.579-.35v1.2h.585v.452h-.585v2.007a1.087,1.087,0,0,0,.03.319.234.234,0,0,0,.1.115.375.375,0,0,0,.2.042A2.436,2.436,0,0,0,74.157,95.016Z" transform="translate(-63.068 -90.785)"/>
    <path id="Path_121" data-name="Path 121" d="M78.283,95.165l.6.072a1.473,1.473,0,0,1-.53.82,1.6,1.6,0,0,1-.982.289,1.57,1.57,0,0,1-1.193-.464,1.8,1.8,0,0,1-.44-1.3,1.9,1.9,0,0,1,.446-1.344,1.509,1.509,0,0,1,1.157-.476,1.469,1.469,0,0,1,1.127.47,1.876,1.876,0,0,1,.44,1.32c0,.036,0,.084-.006.157H76.343a1.323,1.323,0,0,0,.319.868.965.965,0,0,0,.717.3.886.886,0,0,0,.548-.169A1.153,1.153,0,0,0,78.283,95.165Zm-1.911-.94H78.3a1.111,1.111,0,0,0-.223-.651.9.9,0,0,0-.723-.338.923.923,0,0,0-.675.271A1.06,1.06,0,0,0,76.373,94.225Z" transform="translate(-64.331 -91.524)"/>
    <path id="Path_122" data-name="Path 122" d="M84.271,95.459v-.434a1.063,1.063,0,0,1-.964.512,1.3,1.3,0,0,1-.753-.229,1.5,1.5,0,0,1-.536-.633,2.192,2.192,0,0,1-.187-.934A2.434,2.434,0,0,1,82,92.807a1.374,1.374,0,0,1,.512-.645,1.355,1.355,0,0,1,.765-.223,1.126,1.126,0,0,1,.554.133,1.1,1.1,0,0,1,.4.344V90.71h.579v4.743h-.536Zm-1.838-1.718a1.488,1.488,0,0,0,.277.988.841.841,0,0,0,.657.325.827.827,0,0,0,.651-.313,1.459,1.459,0,0,0,.265-.952,1.628,1.628,0,0,0-.271-1.037.827.827,0,0,0-.669-.331.816.816,0,0,0-.651.319A1.577,1.577,0,0,0,82.433,93.742Z" transform="translate(-66.751 -90.71)"/>
    <path id="Path_123" data-name="Path 123" d="M91.47,95.463V90.72h.645l2.5,3.725V90.72h.6v4.743h-.645l-2.5-3.731v3.731Z" transform="translate(-70.581 -90.714)"/>
    <path id="Path_124" data-name="Path 124" d="M101.455,95.852a2.159,2.159,0,0,1-.621.386,1.883,1.883,0,0,1-.645.115,1.221,1.221,0,0,1-.868-.277.908.908,0,0,1-.3-.705.946.946,0,0,1,.115-.464.96.96,0,0,1,.3-.338,1.419,1.419,0,0,1,.422-.193,3.684,3.684,0,0,1,.518-.084,5.061,5.061,0,0,0,1.037-.2c0-.078.006-.133.006-.151a.648.648,0,0,0-.163-.5.969.969,0,0,0-.663-.2,1.042,1.042,0,0,0-.609.145.856.856,0,0,0-.289.512l-.573-.078a1.483,1.483,0,0,1,.253-.591,1.124,1.124,0,0,1,.512-.35,2.34,2.34,0,0,1,.777-.121,2.154,2.154,0,0,1,.717.1.9.9,0,0,1,.4.259.934.934,0,0,1,.181.4,3.365,3.365,0,0,1,.03.536v.777a8.551,8.551,0,0,0,.036,1.031,1.233,1.233,0,0,0,.145.41h-.609A1.237,1.237,0,0,1,101.455,95.852Zm-.048-1.3a4.364,4.364,0,0,1-.952.223,2.287,2.287,0,0,0-.506.115.542.542,0,0,0-.229.187.482.482,0,0,0-.078.277.5.5,0,0,0,.175.386.761.761,0,0,0,.518.157,1.214,1.214,0,0,0,.6-.145.923.923,0,0,0,.386-.4,1.446,1.446,0,0,0,.1-.585V94.55Z" transform="translate(-73.58 -91.524)"/>
    <path id="Path_125" data-name="Path 125" d="M106.407,95.016l.084.512a2.078,2.078,0,0,1-.44.054,1.023,1.023,0,0,1-.494-.1.581.581,0,0,1-.247-.265,2.049,2.049,0,0,1-.072-.687V92.551h-.428V92.1h.428v-.85l.579-.35v1.2h.585v.452h-.585v2.007a1.087,1.087,0,0,0,.03.319.234.234,0,0,0,.1.115.375.375,0,0,0,.2.042A2.248,2.248,0,0,0,106.407,95.016Z" transform="translate(-75.881 -90.785)"/>
    <path id="Path_126" data-name="Path 126" d="M108.44,91.389V90.72h.585v.669Zm0,4.074V92.028h.585v3.435Z" transform="translate(-77.323 -90.714)"/>
    <path id="Path_127" data-name="Path 127" d="M110.54,94.556a1.768,1.768,0,0,1,.53-1.416,1.6,1.6,0,0,1,1.079-.38,1.543,1.543,0,0,1,1.157.464,1.781,1.781,0,0,1,.452,1.284,2.276,2.276,0,0,1-.2,1.043,1.4,1.4,0,0,1-.579.591,1.706,1.706,0,0,1-.832.211,1.561,1.561,0,0,1-1.169-.464A1.85,1.85,0,0,1,110.54,94.556Zm.6,0a1.455,1.455,0,0,0,.289.988.928.928,0,0,0,.723.325.914.914,0,0,0,.723-.331,1.5,1.5,0,0,0,.289-1.006,1.408,1.408,0,0,0-.289-.964.96.96,0,0,0-1.446-.006A1.473,1.473,0,0,0,111.137,94.556Z" transform="translate(-78.157 -91.524)"/>
    <path id="Path_128" data-name="Path 128" d="M117.02,96.274V92.838h.524v.488a1.231,1.231,0,0,1,1.1-.567,1.389,1.389,0,0,1,.573.115.912.912,0,0,1,.392.3,1.193,1.193,0,0,1,.181.428,3.137,3.137,0,0,1,.03.567V96.28h-.585V94.188a1.644,1.644,0,0,0-.066-.53.575.575,0,0,0-.241-.283.746.746,0,0,0-.4-.1.956.956,0,0,0-.645.235,1.166,1.166,0,0,0-.271.9v1.88h-.585Z" transform="translate(-80.732 -91.524)"/>
    <path id="Path_129" data-name="Path 129" d="M122.7,95.245l.579-.09a.782.782,0,0,0,.271.53,1.149,1.149,0,0,0,1.217.024.476.476,0,0,0,.193-.386.357.357,0,0,0-.169-.313,2.554,2.554,0,0,0-.6-.2,5.452,5.452,0,0,1-.886-.277.862.862,0,0,1-.374-.325.88.88,0,0,1-.127-.464.952.952,0,0,1,.1-.428.885.885,0,0,1,.289-.325,1.137,1.137,0,0,1,.374-.169,1.7,1.7,0,0,1,.5-.072,1.978,1.978,0,0,1,.711.115.962.962,0,0,1,.452.313,1.221,1.221,0,0,1,.2.53l-.573.078a.645.645,0,0,0-.223-.416.811.811,0,0,0-.524-.151.943.943,0,0,0-.573.133.387.387,0,0,0-.169.313.315.315,0,0,0,.072.2.543.543,0,0,0,.223.157c.06.024.229.072.512.151a6.579,6.579,0,0,1,.862.271.933.933,0,0,1,.386.307.83.83,0,0,1,.139.5.964.964,0,0,1-.169.548,1.109,1.109,0,0,1-.488.4,1.74,1.74,0,0,1-.723.139,1.591,1.591,0,0,1-1.019-.277A1.225,1.225,0,0,1,122.7,95.245Z" transform="translate(-82.989 -91.521)"/>
  </g>
  <g id="Group_22" data-name="Group 22" transform="translate(0 61.818)">
    <path id="Path_130" data-name="Path 130" d="M0,107.463V102.72H3.429v.561H.627v1.452H3.255v.554H.627V106.9H3.538v.561Z" transform="translate(0 -102.63)"/>
    <path id="Path_131" data-name="Path 131" d="M9.111,107.459v-.434a1.063,1.063,0,0,1-.964.512,1.3,1.3,0,0,1-.753-.229,1.5,1.5,0,0,1-.536-.633,2.192,2.192,0,0,1-.187-.934,2.434,2.434,0,0,1,.169-.934,1.373,1.373,0,0,1,.512-.645,1.355,1.355,0,0,1,.765-.223,1.126,1.126,0,0,1,.554.133,1.1,1.1,0,0,1,.4.344V102.71h.579v4.743H9.111Zm-1.844-1.712a1.488,1.488,0,0,0,.277.988.841.841,0,0,0,.657.325.827.827,0,0,0,.651-.313,1.459,1.459,0,0,0,.265-.952,1.628,1.628,0,0,0-.271-1.037.827.827,0,0,0-.669-.331.816.816,0,0,0-.651.319A1.554,1.554,0,0,0,7.267,105.748Z" transform="translate(-2.65 -102.626)"/>
    <path id="Path_132" data-name="Path 132" d="M15.326,108.321v-.506a1.265,1.265,0,0,1-1.091.585,1.36,1.36,0,0,1-.567-.115.923.923,0,0,1-.392-.3,1.136,1.136,0,0,1-.181-.434,2.906,2.906,0,0,1-.036-.542v-2.127h.585v1.9a3.3,3.3,0,0,0,.036.615.618.618,0,0,0,.235.362.747.747,0,0,0,.44.133,1.029,1.029,0,0,0,.494-.133.717.717,0,0,0,.325-.368,1.8,1.8,0,0,0,.1-.675V104.88h.585v3.435h-.53Z" transform="translate(-5.189 -103.488)"/>
    <path id="Path_133" data-name="Path 133" d="M21.293,107.01l.573.072a1.464,1.464,0,0,1-.482.928,1.4,1.4,0,0,1-.952.338,1.451,1.451,0,0,1-1.133-.464,1.879,1.879,0,0,1-.428-1.32,2.333,2.333,0,0,1,.187-.976,1.3,1.3,0,0,1,.561-.627,1.676,1.676,0,0,1,.82-.211,1.433,1.433,0,0,1,.916.283,1.307,1.307,0,0,1,.458.8l-.567.09a.966.966,0,0,0-.289-.524.75.75,0,0,0-.494-.175.907.907,0,0,0-.717.313,1.514,1.514,0,0,0-.277,1,1.56,1.56,0,0,0,.265,1.006.858.858,0,0,0,.693.313.818.818,0,0,0,.573-.211A.981.981,0,0,0,21.293,107.01Z" transform="translate(-7.497 -103.436)"/>
    <path id="Path_134" data-name="Path 134" d="M26.945,107.852a2.159,2.159,0,0,1-.621.386,1.883,1.883,0,0,1-.645.115,1.221,1.221,0,0,1-.868-.277.908.908,0,0,1-.3-.705.946.946,0,0,1,.115-.464.96.96,0,0,1,.3-.338,1.418,1.418,0,0,1,.422-.193,3.684,3.684,0,0,1,.518-.084,5.061,5.061,0,0,0,1.037-.2c0-.078.006-.133.006-.151a.648.648,0,0,0-.163-.5.968.968,0,0,0-.663-.2,1.042,1.042,0,0,0-.609.145.856.856,0,0,0-.289.512l-.573-.078a1.483,1.483,0,0,1,.253-.591,1.124,1.124,0,0,1,.512-.35,2.34,2.34,0,0,1,.777-.121,2.154,2.154,0,0,1,.717.1.9.9,0,0,1,.4.259.934.934,0,0,1,.181.4,3.365,3.365,0,0,1,.03.536v.777a8.551,8.551,0,0,0,.036,1.031,1.233,1.233,0,0,0,.145.41h-.609A1.237,1.237,0,0,1,26.945,107.852Zm-.048-1.3a4.364,4.364,0,0,1-.952.223,2.287,2.287,0,0,0-.506.115.542.542,0,0,0-.229.187.482.482,0,0,0-.078.277.5.5,0,0,0,.175.386.761.761,0,0,0,.518.157,1.214,1.214,0,0,0,.6-.145.923.923,0,0,0,.386-.4,1.446,1.446,0,0,0,.1-.585v-.211Z" transform="translate(-9.738 -103.44)"/>
    <path id="Path_135" data-name="Path 135" d="M31.917,107.016l.084.512a2.078,2.078,0,0,1-.44.054,1.023,1.023,0,0,1-.494-.1.581.581,0,0,1-.247-.265,2.048,2.048,0,0,1-.072-.687v-1.977H30.32V104.1h.428v-.85l.579-.35v1.2h.585v.452h-.579v2.007a1.087,1.087,0,0,0,.03.319.234.234,0,0,0,.1.115.375.375,0,0,0,.2.042A2.449,2.449,0,0,0,31.917,107.016Z" transform="translate(-12.046 -102.701)"/>
    <path id="Path_136" data-name="Path 136" d="M33.94,103.389v-.669h.585v.669Zm0,4.074v-3.435h.585v3.435Z" transform="translate(-13.485 -102.63)"/>
    <path id="Path_137" data-name="Path 137" d="M36.04,106.556a1.768,1.768,0,0,1,.53-1.416,1.6,1.6,0,0,1,1.079-.38,1.544,1.544,0,0,1,1.157.464,1.781,1.781,0,0,1,.452,1.284,2.276,2.276,0,0,1-.2,1.043,1.4,1.4,0,0,1-.579.591,1.706,1.706,0,0,1-.832.211,1.561,1.561,0,0,1-1.169-.464A1.877,1.877,0,0,1,36.04,106.556Zm.6,0a1.455,1.455,0,0,0,.289.988.928.928,0,0,0,.723.325.914.914,0,0,0,.723-.331,1.5,1.5,0,0,0,.289-1.006,1.408,1.408,0,0,0-.289-.964.96.96,0,0,0-1.446-.006A1.473,1.473,0,0,0,36.643,106.556Z" transform="translate(-14.319 -103.44)"/>
    <path id="Path_138" data-name="Path 138" d="M42.52,108.274v-3.435h.524v.488a1.231,1.231,0,0,1,1.1-.567,1.389,1.389,0,0,1,.573.115.912.912,0,0,1,.392.3,1.193,1.193,0,0,1,.181.428,3.137,3.137,0,0,1,.03.567v2.115h-.585v-2.091a1.644,1.644,0,0,0-.066-.53.575.575,0,0,0-.241-.283.746.746,0,0,0-.4-.1.956.956,0,0,0-.645.235,1.166,1.166,0,0,0-.271.9v1.88H42.52Z" transform="translate(-16.894 -103.44)"/>
    <path id="Path_139" data-name="Path 139" d="M50.725,107.852a2.159,2.159,0,0,1-.621.386,1.883,1.883,0,0,1-.645.115,1.221,1.221,0,0,1-.868-.277.908.908,0,0,1-.3-.705.946.946,0,0,1,.115-.464.96.96,0,0,1,.3-.338,1.418,1.418,0,0,1,.422-.193,3.684,3.684,0,0,1,.518-.084,5.061,5.061,0,0,0,1.037-.2c0-.078.006-.133.006-.151a.648.648,0,0,0-.163-.5.968.968,0,0,0-.663-.2,1.042,1.042,0,0,0-.609.145.856.856,0,0,0-.289.512l-.573-.078a1.483,1.483,0,0,1,.253-.591,1.124,1.124,0,0,1,.512-.35,2.34,2.34,0,0,1,.777-.121,2.154,2.154,0,0,1,.717.1.9.9,0,0,1,.4.259.934.934,0,0,1,.181.4,3.366,3.366,0,0,1,.03.536v.777a8.551,8.551,0,0,0,.036,1.031,1.233,1.233,0,0,0,.145.41h-.609A1.237,1.237,0,0,1,50.725,107.852Zm-.048-1.3a4.364,4.364,0,0,1-.952.223,2.287,2.287,0,0,0-.506.115.542.542,0,0,0-.229.187.482.482,0,0,0-.078.277.5.5,0,0,0,.175.386.761.761,0,0,0,.518.157,1.214,1.214,0,0,0,.6-.145.923.923,0,0,0,.386-.4,1.446,1.446,0,0,0,.1-.585v-.211Z" transform="translate(-19.186 -103.44)"/>
    <path id="Path_140" data-name="Path 140" d="M54.67,107.463V102.72h.585v4.743Z" transform="translate(-21.721 -102.63)"/>
    <path id="Path_141" data-name="Path 141" d="M57.236,110.153v-.663H57.9v.663a1.209,1.209,0,0,1-.127.591.847.847,0,0,1-.41.35l-.163-.247a.56.56,0,0,0,.271-.241.989.989,0,0,0,.1-.452Z" transform="translate(-22.726 -105.319)"/>
    <path id="Path_142" data-name="Path 142" d="M62.89,105.879l.591-.054a1.339,1.339,0,0,0,.193.585,1.043,1.043,0,0,0,.476.368,1.769,1.769,0,0,0,.729.139,1.7,1.7,0,0,0,.633-.108.893.893,0,0,0,.41-.3.675.675,0,0,0,.133-.4.635.635,0,0,0-.127-.392.9.9,0,0,0-.428-.277,8.4,8.4,0,0,0-.844-.229,4.379,4.379,0,0,1-.916-.3,1.267,1.267,0,0,1-.506-.44,1.107,1.107,0,0,1-.169-.591,1.2,1.2,0,0,1,.2-.675,1.279,1.279,0,0,1,.6-.476,2.249,2.249,0,0,1,.868-.163,2.34,2.34,0,0,1,.928.169,1.322,1.322,0,0,1,.621.5,1.46,1.46,0,0,1,.235.747l-.6.048a.972.972,0,0,0-.331-.681,1.3,1.3,0,0,0-.826-.229,1.337,1.337,0,0,0-.832.211.62.62,0,0,0-.259.5.533.533,0,0,0,.187.422,2.494,2.494,0,0,0,.946.338,6.209,6.209,0,0,1,1.049.3,1.458,1.458,0,0,1,.615.482,1.171,1.171,0,0,1,.2.675,1.28,1.28,0,0,1-.217.711,1.393,1.393,0,0,1-.621.518,2.147,2.147,0,0,1-.916.187,2.7,2.7,0,0,1-1.079-.187,1.5,1.5,0,0,1-.681-.567A1.548,1.548,0,0,1,62.89,105.879Z" transform="translate(-24.987 -102.57)"/>
    <path id="Path_143" data-name="Path 143" d="M72.583,107.01l.573.072a1.464,1.464,0,0,1-.482.928,1.4,1.4,0,0,1-.952.338,1.451,1.451,0,0,1-1.133-.464,1.879,1.879,0,0,1-.428-1.32,2.333,2.333,0,0,1,.187-.976,1.3,1.3,0,0,1,.561-.627,1.677,1.677,0,0,1,.82-.211,1.433,1.433,0,0,1,.916.283,1.307,1.307,0,0,1,.458.8l-.567.09a.966.966,0,0,0-.289-.524.75.75,0,0,0-.494-.175.907.907,0,0,0-.717.313,1.514,1.514,0,0,0-.277,1,1.56,1.56,0,0,0,.265,1.006.858.858,0,0,0,.693.313.818.818,0,0,0,.573-.211A.953.953,0,0,0,72.583,107.01Z" transform="translate(-27.875 -103.436)"/>
    <path id="Path_144" data-name="Path 144" d="M76.05,103.389v-.669h.585v.669Zm0,4.074v-3.435h.585v3.435Z" transform="translate(-30.215 -102.63)"/>
    <path id="Path_145" data-name="Path 145" d="M80.723,107.175l.6.072a1.473,1.473,0,0,1-.53.82,1.6,1.6,0,0,1-.982.289,1.57,1.57,0,0,1-1.193-.464,1.8,1.8,0,0,1-.44-1.3,1.9,1.9,0,0,1,.446-1.344,1.509,1.509,0,0,1,1.157-.476,1.469,1.469,0,0,1,1.127.47,1.876,1.876,0,0,1,.44,1.32c0,.036,0,.084-.006.157H78.783a1.323,1.323,0,0,0,.319.868.965.965,0,0,0,.717.3.886.886,0,0,0,.548-.169A1.185,1.185,0,0,0,80.723,107.175Zm-1.917-.946h1.923a1.111,1.111,0,0,0-.223-.651.9.9,0,0,0-.723-.338.923.923,0,0,0-.675.271A1.089,1.089,0,0,0,78.807,106.229Z" transform="translate(-31.062 -103.444)"/>
    <path id="Path_146" data-name="Path 146" d="M84.6,108.274v-3.435h.524v.488a1.231,1.231,0,0,1,1.1-.567,1.389,1.389,0,0,1,.573.115.912.912,0,0,1,.392.3,1.193,1.193,0,0,1,.181.428,3.137,3.137,0,0,1,.03.567v2.115h-.585v-2.091a1.644,1.644,0,0,0-.066-.53.575.575,0,0,0-.241-.283.746.746,0,0,0-.4-.1.956.956,0,0,0-.645.235,1.166,1.166,0,0,0-.271.9v1.88H84.6Z" transform="translate(-33.612 -103.44)"/>
    <path id="Path_147" data-name="Path 147" d="M91.667,107.016l.084.512a2.078,2.078,0,0,1-.44.054,1.023,1.023,0,0,1-.494-.1.581.581,0,0,1-.247-.265,2.048,2.048,0,0,1-.072-.687v-1.977H90.07V104.1H90.5v-.85l.579-.35v1.2h.585v.452h-.585v2.007a1.087,1.087,0,0,0,.03.319.234.234,0,0,0,.1.115.375.375,0,0,0,.2.042A2.439,2.439,0,0,0,91.667,107.016Z" transform="translate(-35.786 -102.701)"/>
    <path id="Path_148" data-name="Path 148" d="M93.69,103.389v-.669h.585v.669Zm0,4.074v-3.435h.585v3.435Z" transform="translate(-37.224 -102.63)"/>
    <path id="Path_149" data-name="Path 149" d="M96.1,107.408v-2.989H95.58v-.452H96.1v-.331a1.191,1.191,0,0,1,.223-.784.848.848,0,0,1,.693-.271,2.3,2.3,0,0,1,.591.072l-.09.494a2.031,2.031,0,0,0-.313-.03.554.554,0,0,0-.41.121.8.8,0,0,0-.108.506v.223h.669v.452h-.669v2.989H96.1Zm1.694-4.074v-.669h.585v.669Zm0,4.074v-3.435h.585v3.435Z" transform="translate(-37.975 -102.574)"/>
    <path id="Path_150" data-name="Path 150" d="M103.853,107.01l.573.072a1.464,1.464,0,0,1-.482.928,1.4,1.4,0,0,1-.952.338,1.451,1.451,0,0,1-1.133-.464,1.879,1.879,0,0,1-.428-1.32,2.333,2.333,0,0,1,.187-.976,1.3,1.3,0,0,1,.561-.627,1.676,1.676,0,0,1,.82-.211,1.433,1.433,0,0,1,.916.283,1.307,1.307,0,0,1,.458.8l-.567.09a.966.966,0,0,0-.289-.524.75.75,0,0,0-.494-.175.907.907,0,0,0-.717.313,1.514,1.514,0,0,0-.277,1,1.56,1.56,0,0,0,.265,1.006.858.858,0,0,0,.693.313.818.818,0,0,0,.573-.211A.981.981,0,0,0,103.853,107.01Z" transform="translate(-40.299 -103.436)"/>
    <path id="Path_151" data-name="Path 151" d="M112.4,107.852a2.159,2.159,0,0,1-.621.386,1.883,1.883,0,0,1-.645.115,1.221,1.221,0,0,1-.868-.277.908.908,0,0,1-.3-.705.946.946,0,0,1,.115-.464.96.96,0,0,1,.3-.338,1.418,1.418,0,0,1,.422-.193,3.684,3.684,0,0,1,.518-.084,5.061,5.061,0,0,0,1.037-.2c0-.078.006-.133.006-.151a.648.648,0,0,0-.163-.5.968.968,0,0,0-.663-.2,1.042,1.042,0,0,0-.609.145.856.856,0,0,0-.289.512l-.573-.078a1.483,1.483,0,0,1,.253-.591,1.124,1.124,0,0,1,.512-.35,2.34,2.34,0,0,1,.777-.121,2.154,2.154,0,0,1,.717.1.9.9,0,0,1,.4.259.934.934,0,0,1,.181.4,3.365,3.365,0,0,1,.03.536v.777a8.551,8.551,0,0,0,.036,1.031,1.233,1.233,0,0,0,.145.41h-.609A1.237,1.237,0,0,1,112.4,107.852Zm-.048-1.3a4.364,4.364,0,0,1-.952.223,2.287,2.287,0,0,0-.506.115.542.542,0,0,0-.229.187.482.482,0,0,0-.078.277.5.5,0,0,0,.175.386.761.761,0,0,0,.518.157,1.214,1.214,0,0,0,.6-.145.923.923,0,0,0,.386-.4,1.446,1.446,0,0,0,.1-.585v-.211Z" transform="translate(-43.692 -103.44)"/>
    <path id="Path_152" data-name="Path 152" d="M116.37,108.274v-3.435h.524v.488a1.231,1.231,0,0,1,1.1-.567,1.389,1.389,0,0,1,.573.115.912.912,0,0,1,.392.3,1.193,1.193,0,0,1,.181.428,3.137,3.137,0,0,1,.03.567v2.115h-.585v-2.091a1.644,1.644,0,0,0-.066-.53.575.575,0,0,0-.241-.283.746.746,0,0,0-.4-.1.956.956,0,0,0-.645.235,1.166,1.166,0,0,0-.271.9v1.88h-.585Z" transform="translate(-46.235 -103.44)"/>
    <path id="Path_153" data-name="Path 153" d="M124.571,107.459v-.434a1.063,1.063,0,0,1-.964.512,1.3,1.3,0,0,1-.753-.229,1.5,1.5,0,0,1-.536-.633,2.192,2.192,0,0,1-.187-.934,2.434,2.434,0,0,1,.169-.934,1.374,1.374,0,0,1,.512-.645,1.355,1.355,0,0,1,.765-.223,1.126,1.126,0,0,1,.554.133,1.1,1.1,0,0,1,.4.344V102.71h.579v4.743h-.536Zm-1.844-1.712a1.488,1.488,0,0,0,.277.988.841.841,0,0,0,.657.325.827.827,0,0,0,.651-.313,1.459,1.459,0,0,0,.265-.952,1.628,1.628,0,0,0-.271-1.037.827.827,0,0,0-.669-.331.816.816,0,0,0-.651.319A1.554,1.554,0,0,0,122.727,105.748Z" transform="translate(-48.523 -102.626)"/>
  </g>
  <g id="Group_23" data-name="Group 23" transform="translate(15.278 69.056)">
    <path id="Path_154" data-name="Path 154" d="M28.918,117.744l.627.157a2.108,2.108,0,0,1-.711,1.181,1.955,1.955,0,0,1-1.254.4,2.226,2.226,0,0,1-1.248-.313,1.952,1.952,0,0,1-.729-.9A3.215,3.215,0,0,1,25.35,117a2.832,2.832,0,0,1,.283-1.3,1.937,1.937,0,0,1,.808-.838,2.328,2.328,0,0,1,1.151-.283,1.955,1.955,0,0,1,1.2.362,1.855,1.855,0,0,1,.675,1.019l-.621.145a1.483,1.483,0,0,0-.476-.753,1.267,1.267,0,0,0-.79-.235,1.552,1.552,0,0,0-.916.265,1.394,1.394,0,0,0-.518.705,2.91,2.91,0,0,0-.151.91,2.952,2.952,0,0,0,.175,1.055,1.31,1.31,0,0,0,.548.675,1.525,1.525,0,0,0,.808.223,1.365,1.365,0,0,0,.892-.3A1.548,1.548,0,0,0,28.918,117.744Z" transform="translate(-25.35 -114.58)"/>
    <path id="Path_155" data-name="Path 155" d="M35.666,120.321v-.506a1.265,1.265,0,0,1-1.091.585,1.36,1.36,0,0,1-.567-.115.923.923,0,0,1-.392-.3,1.136,1.136,0,0,1-.181-.434,2.906,2.906,0,0,1-.036-.542v-2.127h.585v1.9a3.3,3.3,0,0,0,.036.615.618.618,0,0,0,.235.362.747.747,0,0,0,.44.133,1.029,1.029,0,0,0,.494-.133.717.717,0,0,0,.325-.368,1.8,1.8,0,0,0,.1-.675V116.88H36.2v3.435h-.53Z" transform="translate(-28.548 -115.494)"/>
    <path id="Path_156" data-name="Path 156" d="M39.46,119.463V114.72h.585v4.743Z" transform="translate(-30.956 -114.636)"/>
    <path id="Path_157" data-name="Path 157" d="M42.927,119.016l.084.512a2.078,2.078,0,0,1-.44.054,1.023,1.023,0,0,1-.494-.1.581.581,0,0,1-.247-.265,2.049,2.049,0,0,1-.072-.687v-1.977H41.33V116.1h.428v-.85l.579-.35v1.2h.585v.452h-.585v2.007a1.087,1.087,0,0,0,.03.319.234.234,0,0,0,.1.115.375.375,0,0,0,.2.042A1.469,1.469,0,0,0,42.927,119.016Z" transform="translate(-31.699 -114.707)"/>
    <path id="Path_158" data-name="Path 158" d="M47.146,120.321v-.506a1.265,1.265,0,0,1-1.091.585,1.36,1.36,0,0,1-.567-.115.923.923,0,0,1-.392-.3,1.136,1.136,0,0,1-.181-.434,2.905,2.905,0,0,1-.036-.542v-2.127h.585v1.9a3.3,3.3,0,0,0,.036.615.618.618,0,0,0,.235.362.747.747,0,0,0,.44.133,1.029,1.029,0,0,0,.494-.133A.717.717,0,0,0,47,119.4a1.8,1.8,0,0,0,.1-.675V116.88h.585v3.435h-.53Z" transform="translate(-33.109 -115.494)"/>
    <path id="Path_159" data-name="Path 159" d="M50.96,120.274v-3.435h.524v.518a1.508,1.508,0,0,1,.368-.482.65.65,0,0,1,.374-.115,1.1,1.1,0,0,1,.6.187l-.2.542a.834.834,0,0,0-.428-.127.549.549,0,0,0-.344.115.609.609,0,0,0-.217.319,2.215,2.215,0,0,0-.1.681v1.8H50.96Z" transform="translate(-35.525 -115.446)"/>
    <path id="Path_160" data-name="Path 160" d="M56.745,119.852a2.159,2.159,0,0,1-.621.386,1.883,1.883,0,0,1-.645.115,1.221,1.221,0,0,1-.868-.277.908.908,0,0,1-.3-.705.946.946,0,0,1,.115-.464.96.96,0,0,1,.3-.338,1.418,1.418,0,0,1,.422-.193,3.683,3.683,0,0,1,.518-.084,5.061,5.061,0,0,0,1.037-.2c0-.078.006-.133.006-.151a.648.648,0,0,0-.163-.5.968.968,0,0,0-.663-.2,1.042,1.042,0,0,0-.609.145.856.856,0,0,0-.289.512l-.573-.078a1.483,1.483,0,0,1,.253-.591,1.124,1.124,0,0,1,.512-.35,2.341,2.341,0,0,1,.777-.121,2.154,2.154,0,0,1,.717.1.9.9,0,0,1,.4.259.934.934,0,0,1,.181.4,3.365,3.365,0,0,1,.03.536v.777a8.551,8.551,0,0,0,.036,1.031,1.232,1.232,0,0,0,.145.41h-.609A1.237,1.237,0,0,1,56.745,119.852Zm-.048-1.3a4.364,4.364,0,0,1-.952.223,2.288,2.288,0,0,0-.506.115.542.542,0,0,0-.229.187.482.482,0,0,0-.078.277.5.5,0,0,0,.175.386.761.761,0,0,0,.518.157,1.214,1.214,0,0,0,.6-.145.923.923,0,0,0,.386-.4,1.446,1.446,0,0,0,.1-.585v-.211Z" transform="translate(-36.856 -115.446)"/>
    <path id="Path_161" data-name="Path 161" d="M60.69,119.463V114.72h.585v4.743Z" transform="translate(-39.391 -114.636)"/>
    <path id="Path_162" data-name="Path 162" d="M66.02,117.1a2.581,2.581,0,0,1,.633-1.85,2.158,2.158,0,0,1,1.639-.669,2.271,2.271,0,0,1,1.187.313,2.044,2.044,0,0,1,.8.874,3.037,3.037,0,0,1-.012,2.561,1.97,1.97,0,0,1-.826.862,2.388,2.388,0,0,1-1.151.3,2.252,2.252,0,0,1-1.2-.325,2.11,2.11,0,0,1-.8-.886A2.647,2.647,0,0,1,66.02,117.1Zm.645.006a1.892,1.892,0,0,0,.464,1.35,1.509,1.509,0,0,0,1.157.494,1.531,1.531,0,0,0,1.169-.5,2,2,0,0,0,.458-1.416,2.508,2.508,0,0,0-.193-1.013,1.486,1.486,0,0,0-.573-.669,1.634,1.634,0,0,0-1.989.217A2.038,2.038,0,0,0,66.665,117.105Z" transform="translate(-41.509 -114.58)"/>
    <path id="Path_163" data-name="Path 163" d="M74.86,120.274v-3.435h.524v.518a1.508,1.508,0,0,1,.368-.482.65.65,0,0,1,.374-.115,1.1,1.1,0,0,1,.6.187l-.2.542a.834.834,0,0,0-.428-.127.549.549,0,0,0-.344.115.609.609,0,0,0-.217.319,2.215,2.215,0,0,0-.1.681v1.8H74.86Z" transform="translate(-45.021 -115.446)"/>
    <path id="Path_164" data-name="Path 164" d="M78.275,120.559l.567.084a.532.532,0,0,0,.2.38.967.967,0,0,0,.591.163,1.048,1.048,0,0,0,.627-.163.761.761,0,0,0,.3-.452,3.911,3.911,0,0,0,.042-.747,1.2,1.2,0,0,1-.952.452,1.294,1.294,0,0,1-1.1-.512,1.969,1.969,0,0,1-.386-1.229,2.272,2.272,0,0,1,.181-.91,1.422,1.422,0,0,1,.518-.645,1.389,1.389,0,0,1,.8-.229,1.236,1.236,0,0,1,1.006.494v-.416H81.2V119.8a2.832,2.832,0,0,1-.163,1.139,1.221,1.221,0,0,1-.518.53,1.82,1.82,0,0,1-.874.193,1.633,1.633,0,0,1-.994-.277A.917.917,0,0,1,78.275,120.559Zm.488-2.067a1.49,1.49,0,0,0,.271.988.848.848,0,0,0,.675.313.869.869,0,0,0,.675-.307,1.446,1.446,0,0,0,.271-.97,1.414,1.414,0,0,0-.277-.952.871.871,0,0,0-.675-.319.85.85,0,0,0-.663.313A1.352,1.352,0,0,0,78.763,118.492Z" transform="translate(-46.332 -115.442)"/>
    <path id="Path_165" data-name="Path 165" d="M86.755,119.852a2.159,2.159,0,0,1-.621.386,1.883,1.883,0,0,1-.645.115,1.221,1.221,0,0,1-.868-.277.908.908,0,0,1-.3-.705.946.946,0,0,1,.115-.464.96.96,0,0,1,.3-.338,1.418,1.418,0,0,1,.422-.193,3.684,3.684,0,0,1,.518-.084,5.061,5.061,0,0,0,1.037-.2c0-.078.006-.133.006-.151a.648.648,0,0,0-.163-.5.969.969,0,0,0-.663-.2,1.042,1.042,0,0,0-.609.145A.856.856,0,0,0,85,117.9l-.573-.078a1.483,1.483,0,0,1,.253-.591,1.124,1.124,0,0,1,.512-.35,2.341,2.341,0,0,1,.777-.121,2.154,2.154,0,0,1,.717.1.9.9,0,0,1,.4.259.934.934,0,0,1,.181.4,3.365,3.365,0,0,1,.03.536v.777a8.551,8.551,0,0,0,.036,1.031,1.233,1.233,0,0,0,.145.41h-.609A1.237,1.237,0,0,1,86.755,119.852Zm-.048-1.3a4.364,4.364,0,0,1-.952.223,2.288,2.288,0,0,0-.506.115.542.542,0,0,0-.229.187.482.482,0,0,0-.078.277.5.5,0,0,0,.175.386.761.761,0,0,0,.518.157,1.214,1.214,0,0,0,.6-.145.923.923,0,0,0,.386-.4,1.446,1.446,0,0,0,.1-.585v-.211Z" transform="translate(-48.779 -115.446)"/>
    <path id="Path_166" data-name="Path 166" d="M90.72,120.274v-3.435h.524v.488a1.231,1.231,0,0,1,1.1-.567,1.389,1.389,0,0,1,.573.115.912.912,0,0,1,.392.3,1.193,1.193,0,0,1,.181.428,3.137,3.137,0,0,1,.03.567v2.115h-.585v-2.091a1.644,1.644,0,0,0-.066-.53.575.575,0,0,0-.241-.283.746.746,0,0,0-.4-.1.956.956,0,0,0-.645.235,1.166,1.166,0,0,0-.271.9v1.88H90.72Z" transform="translate(-51.322 -115.446)"/>
    <path id="Path_167" data-name="Path 167" d="M96.79,115.389v-.669h.585v.669Zm0,4.074v-3.435h.585v3.435Z" transform="translate(-53.734 -114.636)"/>
    <path id="Path_168" data-name="Path 168" d="M98.66,120.325v-.47l2.188-2.513c-.247.012-.47.018-.657.018h-1.4v-.47H101.6v.386l-1.862,2.182-.362.4c.259-.018.506-.03.735-.03H101.7v.5Z" transform="translate(-54.477 -115.498)"/>
    <path id="Path_169" data-name="Path 169" d="M106.855,119.852a2.159,2.159,0,0,1-.621.386,1.883,1.883,0,0,1-.645.115,1.221,1.221,0,0,1-.868-.277.908.908,0,0,1-.3-.705.946.946,0,0,1,.115-.464.96.96,0,0,1,.3-.338,1.418,1.418,0,0,1,.422-.193,3.684,3.684,0,0,1,.518-.084,5.061,5.061,0,0,0,1.037-.2c0-.078.006-.133.006-.151a.648.648,0,0,0-.163-.5.968.968,0,0,0-.663-.2,1.042,1.042,0,0,0-.609.145.856.856,0,0,0-.289.512l-.573-.078a1.483,1.483,0,0,1,.253-.591,1.124,1.124,0,0,1,.512-.35,2.341,2.341,0,0,1,.777-.121,2.154,2.154,0,0,1,.717.1.9.9,0,0,1,.4.259.934.934,0,0,1,.181.4,3.366,3.366,0,0,1,.03.536v.777a8.551,8.551,0,0,0,.036,1.031,1.233,1.233,0,0,0,.145.41h-.609A1.391,1.391,0,0,1,106.855,119.852Zm-.048-1.3a4.364,4.364,0,0,1-.952.223,2.287,2.287,0,0,0-.506.115.542.542,0,0,0-.229.187.482.482,0,0,0-.078.277.5.5,0,0,0,.175.386.761.761,0,0,0,.518.157,1.214,1.214,0,0,0,.6-.145.923.923,0,0,0,.386-.4,1.446,1.446,0,0,0,.1-.585v-.211Z" transform="translate(-56.765 -115.446)"/>
    <path id="Path_170" data-name="Path 170" d="M111.827,119.016l.084.512a2.078,2.078,0,0,1-.44.054,1.023,1.023,0,0,1-.494-.1.581.581,0,0,1-.247-.265,2.048,2.048,0,0,1-.072-.687v-1.977h-.428V116.1h.428v-.85l.579-.35v1.2h.585v.452h-.585v2.007a1.087,1.087,0,0,0,.03.319.234.234,0,0,0,.1.115.375.375,0,0,0,.2.042A1.435,1.435,0,0,0,111.827,119.016Z" transform="translate(-59.074 -114.707)"/>
    <path id="Path_171" data-name="Path 171" d="M113.85,115.389v-.669h.585v.669Zm0,4.074v-3.435h.585v3.435Z" transform="translate(-60.512 -114.636)"/>
    <path id="Path_172" data-name="Path 172" d="M115.95,118.556a1.768,1.768,0,0,1,.53-1.416,1.6,1.6,0,0,1,1.079-.38,1.544,1.544,0,0,1,1.157.464,1.781,1.781,0,0,1,.452,1.284,2.276,2.276,0,0,1-.2,1.043,1.4,1.4,0,0,1-.579.591,1.706,1.706,0,0,1-.832.211,1.561,1.561,0,0,1-1.169-.464A1.877,1.877,0,0,1,115.95,118.556Zm.6,0a1.455,1.455,0,0,0,.289.988.928.928,0,0,0,.723.325.914.914,0,0,0,.723-.331,1.5,1.5,0,0,0,.289-1.006,1.408,1.408,0,0,0-.289-.964.96.96,0,0,0-1.446-.006A1.473,1.473,0,0,0,116.553,118.556Z" transform="translate(-61.346 -115.446)"/>
    <path id="Path_173" data-name="Path 173" d="M122.43,120.274v-3.435h.524v.488a1.231,1.231,0,0,1,1.1-.567,1.389,1.389,0,0,1,.573.115.912.912,0,0,1,.392.3,1.193,1.193,0,0,1,.181.428,3.137,3.137,0,0,1,.03.567v2.115h-.585v-2.091a1.644,1.644,0,0,0-.066-.53.575.575,0,0,0-.241-.283.746.746,0,0,0-.4-.1.956.956,0,0,0-.645.235,1.166,1.166,0,0,0-.271.9v1.88h-.585Z" transform="translate(-63.921 -115.446)"/>
  </g>
</svg>
