<?xml version="1.0" encoding="utf-8"?>
<!-- Generator: Adobe Illustrator 19.2.0, SVG Export Plug-In . SVG Version: 6.00 Build 0)  -->
<svg version="1.1" id="Group_31" xmlns="http://www.w3.org/2000/svg" xmlns:xlink="http://www.w3.org/1999/xlink" x="0px" y="0px"
	 viewBox="0 0 194 81.8" style="enable-background:new 0 0 194 81.8;" xml:space="preserve">
<style type="text/css">
	.st0{fill:#FFFFFF;}
</style>
<path id="Path_33" class="st0" d="M85.2,0.7c0,0.4-0.3,0.7-0.7,0.7s-0.7-0.3-0.7-0.7S84.1,0,84.5,0c0,0,0,0,0,0
	C84.8,0,85.2,0.3,85.2,0.7"/>
<path id="Path_34" class="st0" d="M85.2,3.2c0,0.4-0.3,0.7-0.7,0.7s-0.7-0.3-0.7-0.7s0.3-0.7,0.7-0.7l0,0
	C84.8,2.5,85.2,2.8,85.2,3.2"/>
<path id="Path_35" class="st0" d="M85.2,6c0,0.4-0.3,0.7-0.7,0.7S83.7,6.4,83.7,6s0.3-0.7,0.7-0.7l0,0C84.8,5.3,85.2,5.6,85.2,6"/>
<path id="Path_36" class="st0" d="M85.2,8.7c0,0.4-0.3,0.7-0.7,0.7s-0.7-0.3-0.7-0.7S84.1,8,84.5,8l0,0C84.8,8,85.2,8.3,85.2,8.7"/>
<path id="Path_37" class="st0" d="M85.2,11.7c0,0.4-0.3,0.7-0.7,0.7c-0.4,0-0.7-0.3-0.7-0.7c0-0.4,0.3-0.7,0.7-0.7l0,0
	C84.8,11,85.2,11.3,85.2,11.7"/>
<path id="Path_38" class="st0" d="M85.2,14.6c0,0.4-0.3,0.7-0.7,0.7c-0.4,0-0.7-0.3-0.7-0.7c0-0.4,0.3-0.7,0.7-0.7l0,0
	C84.8,13.9,85.2,14.2,85.2,14.6"/>
<path id="Path_39" class="st0" d="M85.2,17.7c0,0.4-0.3,0.7-0.7,0.7c-0.4,0-0.7-0.3-0.7-0.7c0-0.4,0.3-0.7,0.7-0.7l0,0
	C84.8,17,85.2,17.3,85.2,17.7"/>
<path id="Path_40" class="st0" d="M85.2,20.7c0,0.4-0.3,0.7-0.7,0.7s-0.7-0.3-0.7-0.7s0.3-0.7,0.7-0.7l0,0
	C84.8,20,85.2,20.3,85.2,20.7"/>
<path id="Path_41" class="st0" d="M85.2,24c0,0.4-0.3,0.7-0.7,0.7s-0.7-0.3-0.7-0.7s0.3-0.7,0.7-0.7l0,0
	C84.8,23.3,85.2,23.6,85.2,24"/>
<path id="Path_42" class="st0" d="M85.2,27.3c0,0.4-0.3,0.7-0.7,0.7s-0.7-0.3-0.7-0.7s0.3-0.7,0.7-0.7l0,0
	C84.8,26.6,85.2,26.9,85.2,27.3"/>
<path id="Path_43" class="st0" d="M85.2,30.7c0,0.4-0.3,0.7-0.7,0.7s-0.7-0.3-0.7-0.7s0.3-0.7,0.7-0.7l0,0
	C84.8,30,85.2,30.4,85.2,30.7"/>
<path id="Path_44" class="st0" d="M85.2,34.3c0,0.4-0.3,0.7-0.7,0.7s-0.7-0.3-0.7-0.7s0.3-0.7,0.7-0.7l0,0
	C84.8,33.6,85.2,33.9,85.2,34.3"/>
<path id="Path_45" class="st0" d="M85.2,38c0,0.4-0.3,0.7-0.7,0.7s-0.7-0.3-0.7-0.7s0.3-0.7,0.7-0.7l0,0
	C84.8,37.3,85.2,37.6,85.2,38"/>
<path id="Path_46" class="st0" d="M85.2,42.2c0,0.4-0.3,0.7-0.7,0.7c-0.4,0-0.7-0.3-0.7-0.7c0-0.4,0.3-0.7,0.7-0.7l0,0
	C84.8,41.5,85.2,41.8,85.2,42.2"/>
<path id="Path_47" class="st0" d="M85.2,46.9c0,0.4-0.3,0.7-0.7,0.7c-0.4,0-0.7-0.3-0.7-0.7c0-0.4,0.3-0.7,0.7-0.7l0,0
	C84.8,46.1,85.2,46.5,85.2,46.9"/>
<path id="Path_48" class="st0" d="M85.2,52.3c0,0.4-0.3,0.7-0.7,0.7c-0.4,0-0.7-0.3-0.7-0.7c0-0.4,0.3-0.7,0.7-0.7l0,0
	C84.8,51.6,85.2,52,85.2,52.3"/>
<path id="Path_49" class="st0" d="M85.2,58.3c0,0.4-0.3,0.7-0.7,0.7c-0.4,0-0.7-0.3-0.7-0.7c0-0.4,0.3-0.7,0.7-0.7l0,0
	C84.8,57.5,85.2,57.9,85.2,58.3"/>
<path id="Path_50" class="st0" d="M85.2,65c0,0.4-0.3,0.7-0.7,0.7c-0.4,0-0.7-0.3-0.7-0.7c0-0.4,0.3-0.7,0.7-0.7l0,0
	C84.8,64.3,85.2,64.6,85.2,65"/>
<path id="Path_51" class="st0" d="M85.2,72.6c0,0.4-0.3,0.7-0.7,0.7c-0.4,0-0.7-0.3-0.7-0.7c0-0.4,0.3-0.7,0.7-0.7l0,0
	C84.8,71.9,85.2,72.2,85.2,72.6C85.2,72.6,85.2,72.6,85.2,72.6"/>
<path id="Path_52" class="st0" d="M85.2,81c0,0.4-0.3,0.7-0.7,0.7s-0.7-0.3-0.7-0.7c0-0.4,0.3-0.7,0.7-0.7l0,0
	C84.8,80.3,85.2,80.6,85.2,81C85.2,81,85.2,81,85.2,81"/>
<rect id="Rectangle_39" x="30.4" y="39.3" class="st0" width="41.7" height="1.7"/>
<rect id="Rectangle_40" x="28" y="42.2" class="st0" width="46.4" height="1.7"/>
<rect id="Rectangle_41" x="25.8" y="45.2" class="st0" width="50.8" height="1.7"/>
<rect id="Rectangle_42" x="30.4" y="17.2" class="st0" width="41.7" height="1.7"/>
<path id="Path_53" class="st0" d="M38.8,16.1l12.4-3.7l12.2,3.7h5.1l-17.2-5.3l-17.5,5.3H38.8z"/>
<path id="Path_54" class="st0" d="M30.4,16.1l20.7-6.3l21,6.3v-1.9L51.3,7.8l-20.9,6.4V16.1z"/>
<path id="Path_55" class="st0" d="M32.8,37c0,0.7,0.6,1.3,1.4,1.3c0,0,0.1,0,0.1,0c0.7,0.1,1.3-0.4,1.4-1.1c0-0.1,0-0.2,0-0.2V20
	h-1.1v17c0,0,0,0.3-0.4,0.3s-0.3-0.4-0.3-0.4V20h-1.1V37z"/>
<path id="Path_56" class="st0" d="M39.7,38.3h0.9v-11l1.1,11h0.9V20h-0.9v9.8L40.6,20h-0.9V38.3z"/>
<path id="Path_57" class="st0" d="M46.7,38.3h2.8v-1h-1.6v-8.3h1.2v-1h-1.2v-7.1h1.2V20h-2.4V38.3z"/>
<path id="Path_58" class="st0" d="M62.8,25.4v-4.1c0-0.8-0.7-1.3-1.4-1.3c0,0,0,0,0,0c-0.7,0-1.4,0.5-1.4,1.2c0,0,0,0.1,0,0.1V37
	c0,0.7,0.5,1.3,1.2,1.3c0.1,0,0.1,0,0.2,0c0.7,0.1,1.4-0.5,1.4-1.2c0,0,0-0.1,0-0.1v-4.6h-1.1V37c0,0.2-0.1,0.3-0.3,0.3c0,0,0,0,0,0
	c-0.2,0-0.4-0.2-0.4-0.3V21.3c0-0.2,0.2-0.4,0.4-0.4c0,0,0,0,0,0c0.3,0,0.3,0.4,0.3,0.4v4.1L62.8,25.4L62.8,25.4z"/>
<path id="Path_59" class="st0" d="M69.7,21.3c0-0.7-0.5-1.3-1.2-1.3c-0.1,0-0.2,0-0.2,0c-0.7-0.1-1.4,0.4-1.5,1.2c0,0,0,0.1,0,0.1
	V37c0,0.7,0.6,1.3,1.3,1.3c0,0,0.1,0,0.1,0c0.7,0.1,1.4-0.4,1.5-1.2c0,0,0-0.1,0-0.1L69.7,21.3L69.7,21.3z M68.7,37
	c0,0,0,0.3-0.4,0.3S67.8,37,67.8,37V21.3c0-0.2,0.2-0.4,0.4-0.4c0,0,0,0,0,0c0.2,0,0.4,0.1,0.4,0.4c0,0,0,0,0,0L68.7,37L68.7,37z"/>
<path id="Path_60" class="st0" d="M54.8,37c0,0,0,0.3-0.3,0.3c-0.2,0-0.3-0.2-0.3-0.3v-4.6h-1.1V37c0,0.7,0.5,1.3,1.2,1.3
	c0.1,0,0.1,0,0.2,0c0.7,0.1,1.4-0.5,1.4-1.2c0,0,0-0.1,0-0.1v-4c0-2.1-1.7-6.2-1.7-7.6v-4.1c0,0,0-0.4,0.3-0.4s0.3,0.4,0.3,0.4v4.1
	h1.1v-4.1c0-0.7-0.5-1.3-1.2-1.3c-0.1,0-0.1,0-0.2,0c-0.7-0.1-1.4,0.5-1.4,1.3c0,0,0,0,0,0.1v3.5c0,2.3,1.7,6.2,1.7,7.9L54.8,37
	L54.8,37z"/>
<path id="Path_61" class="st0" d="M99.5,30.7h6.9v3.4H96v-3.4H99.5z M99.5,23.8h6.9v3.4h-6.9V23.8z M96,13.5v17.2h-3.4V41H96v-3.4
	h10.3V41h3.4V27.2h3.4v10.3h3.4V27.2h3.4v-3.4h-10.3v-6.9h-3.4v3.4h-6.9v-3.4h6.9v-3.4H96z"/>
<path id="Path_62" class="st0" d="M120.1,30.7v6.9h3.4V27.2h-3.4V30.7z"/>
<path id="Path_63" class="st0" d="M135.3,32.4c-0.4,0.3-0.9,0.4-1.5,0.4h-2.2v-5.5h2.2c0.4,0,0.9,0.1,1.3,0.3
	c0.4,0.3,0.6,0.7,0.6,1.2c0,0.5-0.2,0.9-0.7,1.2c0.5,0.2,0.8,0.7,0.8,1.2C135.9,31.6,135.7,32.1,135.3,32.4 M133.9,28.1h-1.2v1.4
	h1.3c0.4,0,0.8-0.2,0.8-0.7S134.3,28.1,133.9,28.1 M133.9,30.3h-1.3v1.5h1.2c0.5,0,1-0.2,1-0.7C134.8,30.5,134.4,30.3,133.9,30.3"/>
<path id="Path_64" class="st0" d="M138.7,29.6c-0.6,0-1,0.4-1,1c0,0.1,0,0.1,0,0.2v2h-1v-4h0.8l0.1,0.6c0.2-0.4,0.7-0.7,1.1-0.7
	c0.1,0,0.2,0,0.3,0v0.9C138.9,29.6,138.8,29.5,138.7,29.6"/>
<path id="Path_65" class="st0" d="M142.8,32.8c-0.3,0-0.6-0.2-0.7-0.6c-0.3,0.4-0.7,0.6-1.2,0.6c-0.7,0.1-1.3-0.4-1.4-1.1
	c-0.1-0.7,0.4-1.3,1.1-1.4c0.1,0,0.2,0,0.3,0l1.2-0.1V30c0-0.4-0.1-0.6-0.7-0.6c-0.4,0-0.7,0.2-0.7,0.6h-0.9
	c0.1-0.9,0.8-1.3,1.7-1.3c0.6-0.1,1.2,0.2,1.5,0.8c0.1,0.3,0.1,0.5,0.1,0.8v1.5c0,0.2,0.1,0.3,0.2,0.3c0,0,0.1,0,0.1,0v0.7
	C143.1,32.7,142.9,32.8,142.8,32.8 M141.9,30.9l-1,0.1c-0.3,0-0.6,0.2-0.6,0.5c0,0.3,0.3,0.5,0.6,0.5c0,0,0,0,0,0
	c0.5,0.1,1-0.3,1-0.8c0,0,0-0.1,0-0.1L141.9,30.9L141.9,30.9z"/>
<path id="Path_66" class="st0" d="M145.6,34.6c-0.5,0-1-0.1-1.4-0.3c-0.3-0.2-0.5-0.5-0.5-0.9c0-0.3,0.2-0.7,0.5-0.8
	c-0.2-0.1-0.4-0.4-0.4-0.7c0-0.3,0.2-0.6,0.5-0.8c-0.3-0.3-0.4-0.6-0.4-1c0-0.8,0.7-1.5,1.5-1.5c0.1,0,0.1,0,0.2,0
	c0.3,0,0.6,0.1,0.9,0.2c0.1-0.3,0.5-0.5,0.8-0.5c0.1,0,0.2,0,0.3,0v0.8c0,0-0.1,0-0.1,0c-0.2,0-0.4,0.1-0.5,0.3
	c0.1,0.2,0.2,0.5,0.2,0.7c0,0.8-0.7,1.5-1.5,1.5c0,0-0.1,0-0.1,0c-0.2,0-0.4,0-0.7-0.1c-0.1,0.1-0.2,0.2-0.2,0.3
	c0,0.2,0.2,0.3,0.4,0.3h0.7c0.5,0,0.9,0.1,1.3,0.3c0.3,0.2,0.5,0.6,0.5,1C147.6,34.3,146.6,34.6,145.6,34.6 M145.7,32.8H145
	c-0.2,0.1-0.4,0.3-0.4,0.5c0,0.5,0.6,0.6,1,0.6s1.1,0,1.1-0.6C146.7,32.8,146.1,32.8,145.7,32.8 M145.5,29.3c-0.4,0-0.7,0.4-0.7,0.8
	c0,0.4,0.3,0.7,0.7,0.7c0.4,0,0.7-0.4,0.7-0.8C146.2,29.7,145.9,29.3,145.5,29.3"/>
<path id="Path_67" class="st0" d="M151.3,32.8c-0.3,0-0.6-0.2-0.7-0.6c-0.3,0.4-0.7,0.6-1.2,0.6c-0.7,0.1-1.3-0.4-1.4-1.1
	c-0.1-0.7,0.4-1.3,1.1-1.4c0.1,0,0.2,0,0.3,0l1.2-0.1V30c0-0.4-0.1-0.6-0.7-0.6c-0.4,0-0.7,0.2-0.7,0.6h-0.9
	c0.1-0.9,0.8-1.3,1.7-1.3c0.6-0.1,1.2,0.2,1.5,0.8c0.1,0.3,0.1,0.5,0.1,0.8v1.5c0,0.2,0.1,0.3,0.2,0.3c0,0,0.1,0,0.1,0v0.7
	C151.6,32.7,151.5,32.8,151.3,32.8 M150.5,30.9l-1,0.1c-0.3,0-0.6,0.2-0.6,0.5c0,0.3,0.3,0.5,0.6,0.5c0,0,0,0,0,0
	c0.5,0.1,1-0.3,1-0.8c0,0,0-0.1,0-0.1L150.5,30.9L150.5,30.9z"/>
<path id="Path_68" class="st0" d="M135.1,40.3c-0.4,0.4-1,0.7-1.6,0.7c-0.6,0-1.1-0.2-1.6-0.6c-0.5-0.6-0.8-1.4-0.7-2.2
	c-0.1-0.8,0.1-1.6,0.7-2.2c0.4-0.4,1-0.6,1.6-0.6c0.6,0,1.1,0.2,1.6,0.6c0.3,0.3,0.5,0.7,0.5,1.2h-1c0-0.2-0.1-0.4-0.2-0.6
	c-0.2-0.2-0.5-0.4-0.8-0.3c-0.3,0-0.6,0.1-0.8,0.4c-0.5,1-0.5,2.2,0,3.2c0.2,0.2,0.5,0.4,0.8,0.4c0.3,0,0.6-0.1,0.8-0.3
	c0.1-0.2,0.2-0.4,0.2-0.6h1C135.6,39.5,135.4,39.9,135.1,40.3"/>
<path id="Path_69" class="st0" d="M136.4,35.3h1v1h-1V35.3z M136.4,36.8h1v4h-1V36.8z"/>
<path id="Path_70" class="st0" d="M140.1,40.9c-0.6,0.1-1.1-0.4-1.2-1c0-0.1,0-0.2,0-0.3v-2h-0.7v-0.8h0.7v-1l1-0.2v1.3h1v0.8h-1v2
	c0,0.3,0.1,0.4,0.4,0.4c0.2,0,0.4,0,0.6,0v0.8C140.6,40.8,140.3,40.9,140.1,40.9"/>
<path id="Path_71" class="st0" d="M143.4,41.5c-0.1,0.6-0.6,1-1.2,1c-0.3,0-0.5,0-0.7-0.1v-0.8c0.2,0,0.4,0.1,0.5,0.1
	c0.2,0,0.4-0.1,0.5-0.3l0.2-0.6l-1.6-4h1.1l1,2.9l1-2.9h1L143.4,41.5z"/>
<path id="Path_72" class="st0" d="M150.3,40.3c-0.7,0.8-1.9,0.8-2.7,0.1c0,0-0.1-0.1-0.1-0.1c-0.6-0.9-0.6-2.1,0-3
	c0.4-0.4,0.9-0.6,1.4-0.6c0.5,0,1,0.2,1.4,0.6C151,38.2,151,39.4,150.3,40.3 M149.5,37.8c-0.2-0.2-0.4-0.3-0.6-0.3
	c-0.2,0-0.4,0.1-0.6,0.3c-0.2,0.3-0.3,0.7-0.3,1c0,0.4,0.1,0.7,0.3,1c0.3,0.3,0.9,0.3,1.2,0c0,0,0,0,0,0c0.2-0.3,0.3-0.7,0.3-1
	C149.8,38.5,149.7,38.1,149.5,37.8"/>
<path id="Path_73" class="st0" d="M153.4,36c-0.3,0-0.5,0.1-0.5,0.4c0,0,0,0.1,0,0.1v0.4h1.1v0.8h-1.1v3.2h-1v-3.2h-0.7v-0.8h0.7
	v-0.4c0-0.7,0.5-1.2,1.2-1.3c0.1,0,0.1,0,0.2,0c0.3,0,0.5,0,0.8,0.1V36C153.8,36,153.6,36,153.4,36"/>
<path id="Path_74" class="st0" d="M160.8,40.8v-3.9l-1.4,3.8h-0.7l-1.4-3.9v4h-1v-5.5h1.3l1.4,3.9l1.4-3.9h1.3v5.5H160.8z"/>
<path id="Path_75" class="st0" d="M166.3,39.1h-2.7c0,0.3,0.1,0.6,0.3,0.8c0.2,0.2,0.4,0.2,0.6,0.2c0.2,0,0.4,0,0.6-0.2
	c0.1-0.1,0.2-0.2,0.2-0.3h0.9c0,0.3-0.2,0.5-0.3,0.7c-0.3,0.4-0.8,0.6-1.4,0.6c-0.5,0-0.9-0.2-1.3-0.5c-0.4-0.4-0.6-1-0.6-1.6
	c0-0.6,0.2-1.2,0.6-1.6c0.3-0.3,0.8-0.5,1.3-0.5c0.6,0,1.1,0.3,1.5,0.7c0.3,0.4,0.4,0.9,0.4,1.4C166.3,38.9,166.3,39,166.3,39.1
	 M165.1,37.7c-0.2-0.2-0.4-0.2-0.6-0.2c-0.3,0-0.5,0.1-0.7,0.3c-0.1,0.2-0.2,0.4-0.2,0.6h1.7C165.4,38.2,165.3,37.9,165.1,37.7"/>
<path id="Path_76" class="st0" d="M169.8,40.8l-0.1-0.4c-0.3,0.4-0.7,0.6-1.1,0.5c-0.4,0-0.7-0.1-1-0.3c-0.5-0.4-0.8-1.1-0.7-1.8
	c0-0.7,0.2-1.3,0.7-1.8c0.3-0.2,0.6-0.3,1-0.3c0.4,0,0.8,0.1,1,0.4v-1.8h1v5.6L169.8,40.8L169.8,40.8z M168.8,37.5
	c-0.3,0-0.5,0.1-0.7,0.3c-0.2,0.3-0.3,0.6-0.3,1c0,0.3,0.1,0.7,0.3,1c0.2,0.2,0.4,0.3,0.7,0.3c0.8,0,0.9-0.7,0.9-1.3
	S169.6,37.5,168.8,37.5"/>
<path id="Path_77" class="st0" d="M171.8,35.3h1v1h-1V35.3z M171.8,36.8h1v4h-1V36.8z"/>
<path id="Path_78" class="st0" d="M177,40.9c-0.3,0-0.6-0.2-0.7-0.6c-0.3,0.4-0.7,0.6-1.2,0.6c-0.7,0.1-1.3-0.4-1.4-1.1
	c-0.1-0.7,0.4-1.3,1.1-1.4c0.1,0,0.2,0,0.3,0l1.2-0.1v-0.2c0-0.4-0.1-0.6-0.7-0.6c-0.4,0-0.7,0.2-0.7,0.6h-0.9
	c0.1-0.9,0.8-1.3,1.7-1.3c0.6-0.1,1.2,0.2,1.5,0.8c0.1,0.3,0.1,0.5,0.1,0.8v1.5c0,0.2,0.1,0.3,0.2,0.3c0,0,0.1,0,0.1,0v0.7
	C177.4,40.9,177.2,40.9,177,40.9 M176.2,39l-1,0.1c-0.3,0-0.6,0.2-0.6,0.5c0,0.3,0.3,0.5,0.6,0.5c0,0,0,0,0,0c0.5,0.1,1-0.3,1-0.8
	c0,0,0-0.1,0-0.1L176.2,39L176.2,39z"/>
<path id="Path_79" class="st0" d="M183.2,40.8l-0.4-1h-2.2l-0.4,1h-1l1.9-5.5h1.1l1.9,5.5H183.2z M181.7,36.6l-0.8,2.3h1.6
	L181.7,36.6z"/>
<path id="Path_80" class="st0" d="M186.8,37.7c-0.6,0-1,0.4-1,1c0,0.1,0,0.1,0,0.2v2h-1v-4h0.8l0.1,0.6c0.2-0.4,0.7-0.7,1.1-0.7
	c0.1,0,0.2,0,0.3,0v0.9C187,37.7,186.9,37.7,186.8,37.7"/>
<path id="Path_81" class="st0" d="M189.3,40.9c-0.6,0.1-1.1-0.4-1.2-1c0-0.1,0-0.2,0-0.3v-2h-0.7v-0.8h0.7v-1l1-0.2v1.3h1v0.8h-1v2
	c0,0.3,0.1,0.4,0.4,0.4c0.2,0,0.4,0,0.6,0v0.8C189.8,40.8,189.5,40.9,189.3,40.9"/>
<path id="Path_82" class="st0" d="M193.7,40.5c-0.4,0.3-0.9,0.5-1.4,0.5c-0.5,0-0.9-0.1-1.3-0.5c-0.3-0.2-0.4-0.6-0.4-0.9h0.9
	c0,0.2,0.1,0.4,0.2,0.5c0.2,0.1,0.4,0.2,0.6,0.2c0.3,0,0.8-0.1,0.8-0.5c0-0.2-0.2-0.4-0.4-0.4c-0.4-0.1-0.8-0.1-1.1-0.2
	c-0.5-0.1-0.9-0.5-0.9-1.1c0-0.3,0.1-0.7,0.4-0.9c0.3-0.3,0.8-0.4,1.2-0.4c0.5,0,0.9,0.2,1.3,0.5c0.2,0.2,0.3,0.5,0.4,0.8H193
	c0-0.1-0.1-0.3-0.2-0.4c-0.1-0.1-0.3-0.2-0.5-0.2c-0.1,0-0.3,0-0.4,0.1c-0.2,0.1-0.3,0.2-0.3,0.4c0,0.3,0.2,0.4,0.5,0.4
	c0.4,0,0.5,0.1,0.9,0.1c0.6,0,1.1,0.5,1.1,1.1C194,39.9,193.9,40.2,193.7,40.5"/>
<g id="Group_18" transform="translate(92.585 54.568)">
	<path id="Path_83" class="st0" d="M0,4.7V0h1.6c0.3,0,0.6,0,0.8,0.1C2.7,0.1,3,0.2,3.2,0.4c0.3,0.2,0.5,0.5,0.6,0.8
		C3.9,1.6,3.9,2,3.9,2.4c0,0.3,0,0.6-0.1,1C3.7,3.6,3.6,3.8,3.5,4C3.3,4.2,3.2,4.3,3,4.4C2.9,4.5,2.7,4.6,2.5,4.7
		C2.2,4.7,2,4.7,1.7,4.7L0,4.7L0,4.7z M0.6,4.2h1c0.2,0,0.5,0,0.7-0.1c0.2,0,0.3-0.1,0.4-0.2C3,3.7,3.1,3.5,3.2,3.3
		C3.2,3,3.3,2.7,3.3,2.3c0-0.4-0.1-0.8-0.2-1.1C2.9,1,2.7,0.8,2.4,0.7C2.2,0.6,1.9,0.5,1.6,0.6h-1L0.6,4.2z"/>
	<path id="Path_84" class="st0" d="M7.1,3.6l0.6,0.1C7.6,4,7.4,4.3,7.2,4.5c-0.3,0.2-0.6,0.3-1,0.3C5.7,4.8,5.3,4.7,5,4.4
		C4.7,4,4.5,3.5,4.5,3.1c0-0.5,0.1-1,0.4-1.3c0.3-0.3,0.7-0.5,1.2-0.5c0.4,0,0.8,0.2,1.1,0.5C7.6,2.1,7.7,2.5,7.7,3c0,0,0,0.1,0,0.2
		H5.1c0,0.3,0.1,0.6,0.3,0.9c0.2,0.2,0.4,0.3,0.7,0.3c0.2,0,0.4-0.1,0.5-0.2C6.9,4,7,3.9,7.1,3.6z M5.2,2.7h1.9
		c0-0.2-0.1-0.5-0.2-0.7C6.7,1.8,6.4,1.7,6.1,1.7C5.9,1.7,5.6,1.8,5.5,2C5.3,2.2,5.2,2.4,5.2,2.7L5.2,2.7z"/>
	<path id="Path_85" class="st0" d="M8.2,3.7l0.6-0.1C8.8,3.8,8.9,4,9,4.2c0.4,0.2,0.8,0.2,1.2,0c0.1-0.1,0.2-0.2,0.2-0.4
		c0-0.1-0.1-0.2-0.2-0.3c-0.2-0.1-0.4-0.2-0.6-0.2C9.4,3.2,9.1,3.1,8.8,3C8.6,2.9,8.5,2.8,8.4,2.7C8.3,2.5,8.3,2.4,8.3,2.2
		c0-0.1,0-0.3,0.1-0.4c0.1-0.1,0.2-0.2,0.3-0.3C8.8,1.4,8.9,1.3,9,1.3c0.2,0,0.3-0.1,0.5-0.1c0.2,0,0.5,0,0.7,0.1
		c0.2,0.1,0.3,0.2,0.5,0.3c0.1,0.2,0.2,0.3,0.2,0.5l-0.6,0.1c0-0.2-0.1-0.3-0.2-0.4C10,1.7,9.8,1.7,9.6,1.7c-0.2,0-0.4,0-0.6,0.1
		C8.9,1.9,8.8,2,8.8,2.1c0,0.1,0,0.1,0.1,0.2C9,2.4,9,2.5,9.1,2.5c0.1,0,0.2,0.1,0.5,0.2c0.3,0.1,0.6,0.2,0.9,0.3
		c0.2,0.1,0.3,0.2,0.4,0.3C11,3.4,11,3.6,11,3.7c0,0.2-0.1,0.4-0.2,0.5c-0.1,0.2-0.3,0.3-0.5,0.4c-0.2,0.1-0.5,0.1-0.7,0.1
		c-0.4,0-0.7-0.1-1-0.3C8.4,4.3,8.2,4,8.2,3.7z"/>
	<path id="Path_86" class="st0" d="M11.7,0.7V0h0.6v0.7H11.7z M11.7,4.7V1.3h0.6v3.4H11.7z"/>
	<path id="Path_87" class="st0" d="M13.1,5l0.6,0.1c0,0.1,0.1,0.3,0.2,0.4c0.2,0.1,0.4,0.2,0.6,0.2c0.2,0,0.4,0,0.6-0.2
		c0.2-0.1,0.3-0.3,0.3-0.5c0-0.2,0.1-0.5,0-0.7c-0.2,0.3-0.6,0.5-1,0.5c-0.4,0-0.8-0.2-1.1-0.5C13.1,3.9,13,3.4,13,3
		c0-0.3,0.1-0.6,0.2-0.9c0.1-0.3,0.3-0.5,0.5-0.6c0.2-0.2,0.5-0.2,0.8-0.2c0.4,0,0.8,0.2,1,0.5V1.3H16v3c0,0.4,0,0.8-0.2,1.1
		c-0.1,0.2-0.3,0.4-0.5,0.5c-0.3,0.1-0.6,0.2-0.9,0.2c-0.4,0-0.7-0.1-1-0.3C13.2,5.7,13.1,5.4,13.1,5z M13.6,3c0,0.4,0.1,0.7,0.3,1
		c0.2,0.2,0.4,0.3,0.7,0.3c0.3,0,0.5-0.1,0.7-0.3c0.4-0.6,0.4-1.3,0-1.9c-0.3-0.4-0.8-0.4-1.2-0.1c0,0-0.1,0.1-0.1,0.1
		C13.7,2.3,13.6,2.6,13.6,3L13.6,3z"/>
	<path id="Path_88" class="st0" d="M16.9,4.7V1.3h0.5v0.5c0.2-0.4,0.7-0.6,1.1-0.6c0.2,0,0.4,0,0.6,0.1c0.2,0.1,0.3,0.2,0.4,0.3
		c0.1,0.1,0.1,0.3,0.2,0.4c0,0.2,0,0.4,0,0.6v2.1h-0.6V2.7c0-0.2,0-0.4-0.1-0.5c0-0.1-0.1-0.2-0.2-0.3c-0.1-0.1-0.3-0.1-0.4-0.1
		c-0.2,0-0.5,0.1-0.6,0.2c-0.2,0.2-0.3,0.6-0.3,0.9v1.9L16.9,4.7L16.9,4.7z"/>
	<path id="Path_89" class="st0" d="M22.8,4.3c-0.2,0.2-0.4,0.3-0.6,0.4c-0.2,0.1-0.4,0.1-0.6,0.1c-0.3,0-0.6-0.1-0.9-0.3
		c-0.2-0.2-0.3-0.4-0.3-0.7c0-0.2,0-0.3,0.1-0.5c0.1-0.1,0.2-0.3,0.3-0.3C20.9,3,21,2.9,21.2,2.9c0.2,0,0.3-0.1,0.5-0.1
		c0.4,0,0.7-0.1,1-0.2V2.4c0-0.2,0-0.4-0.2-0.5c-0.2-0.1-0.4-0.2-0.7-0.2c-0.2,0-0.4,0-0.6,0.1C21.2,2,21,2.2,21,2.4l-0.6-0.1
		c0-0.2,0.1-0.4,0.3-0.6c0.1-0.2,0.3-0.3,0.5-0.3c0.3-0.1,0.5-0.1,0.8-0.1c0.2,0,0.5,0,0.7,0.1C23,1.4,23.2,1.7,23.3,2
		c0,0.2,0,0.4,0,0.5v0.8c0,0.3,0,0.7,0,1c0,0.1,0.1,0.3,0.1,0.4h-0.6C22.8,4.6,22.8,4.5,22.8,4.3z M22.7,3c-0.3,0.1-0.6,0.2-1,0.2
		c-0.2,0-0.3,0.1-0.5,0.1c-0.1,0-0.2,0.1-0.2,0.2C20.9,3.8,21,4,21.2,4.2c0.1,0.1,0.3,0.2,0.5,0.2c0.2,0,0.4,0,0.6-0.1
		c0.2-0.1,0.3-0.2,0.4-0.4c0.1-0.2,0.1-0.4,0.1-0.6L22.7,3L22.7,3z"/>
	<path id="Path_90" class="st0" d="M25.4,4.2l0.1,0.5c-0.1,0-0.3,0.1-0.4,0.1c-0.2,0-0.3,0-0.5-0.1c-0.1-0.1-0.2-0.2-0.2-0.3
		c-0.1-0.2-0.1-0.5-0.1-0.7v-2h-0.4V1.3h0.4V0.5l0.6-0.3v1.2h0.6v0.5h-0.6v2c0,0.1,0,0.2,0,0.3c0,0,0.1,0.1,0.1,0.1
		c0.1,0,0.1,0,0.2,0C25.3,4.2,25.4,4.2,25.4,4.2z"/>
	<path id="Path_91" class="st0" d="M28.3,3.6l0.6,0.1c-0.1,0.3-0.3,0.6-0.5,0.8c-0.7,0.4-1.6,0.4-2.2-0.2c-0.3-0.4-0.5-0.8-0.4-1.3
		c0-0.5,0.1-1,0.4-1.3c0.3-0.3,0.7-0.5,1.2-0.5c0.4,0,0.8,0.2,1.1,0.5C28.8,2.1,29,2.5,28.9,3v0.2h-2.6c0,0.3,0.1,0.6,0.3,0.9
		c0.2,0.2,0.4,0.3,0.7,0.3c0.2,0,0.4-0.1,0.5-0.2C28.1,4,28.2,3.9,28.3,3.6z M26.4,2.7h1.9c0-0.2-0.1-0.5-0.2-0.7
		c-0.2-0.2-0.4-0.3-0.7-0.3c-0.3,0-0.5,0.1-0.7,0.3C26.5,2.2,26.4,2.4,26.4,2.7z"/>
	<path id="Path_92" class="st0" d="M31.9,4.7V4.3c-0.2,0.3-0.6,0.5-1,0.5c-0.3,0-0.5-0.1-0.8-0.2c-0.2-0.2-0.4-0.4-0.5-0.6
		c-0.1-0.3-0.2-0.6-0.2-0.9c0-0.3,0.1-0.6,0.2-0.9c0.1-0.3,0.3-0.5,0.5-0.6c0.2-0.1,0.5-0.2,0.8-0.2c0.2,0,0.4,0,0.6,0.1
		c0.2,0.1,0.3,0.2,0.4,0.3V0h0.6v4.7L31.9,4.7L31.9,4.7z M30,3c0,0.4,0.1,0.7,0.3,1c0.2,0.2,0.4,0.3,0.7,0.3c0.3,0,0.5-0.1,0.7-0.3
		c0.2-0.3,0.3-0.6,0.3-1c0-0.4-0.1-0.7-0.3-1c-0.2-0.2-0.4-0.3-0.7-0.3c-0.3,0-0.5,0.1-0.7,0.3C30.1,2.3,30,2.7,30,3L30,3z"/>
</g>
<g id="Group_19" transform="translate(92.597 61.715)">
	<path id="Path_93" class="st0" d="M3.1,0.1h0.6v2.7c0,0.4,0,0.8-0.2,1.1C3.5,4.3,3.2,4.5,3,4.7C2.6,4.8,2.3,4.9,1.9,4.9
		c-0.4,0-0.8-0.1-1.1-0.2C0.5,4.5,0.3,4.3,0.2,4C0,3.6,0,3.2,0,2.8V0.1h0.6v2.7c0,0.3,0,0.6,0.1,0.9C0.8,3.9,1,4.1,1.1,4.2
		c0.2,0.1,0.4,0.2,0.7,0.2c0.4,0,0.7-0.1,1-0.3c0.2-0.4,0.3-0.8,0.3-1.2L3.1,0.1L3.1,0.1z"/>
	<path id="Path_94" class="st0" d="M4.8,4.8V0.1h0.6L8,3.8V0.1h0.6v4.7H7.9L5.4,1.1v3.7H4.8z"/>
	<path id="Path_95" class="st0" d="M9.7,4.8V0.1h3.4v0.6h-2.8v1.5h2.6v0.6h-2.6v1.6h2.9v0.6H9.7z"/>
	<path id="Path_96" class="st0" d="M13.8,3.3l0.6-0.1c0,0.2,0.1,0.4,0.2,0.6C14.7,4,14.8,4.1,15,4.2c0.2,0.1,0.5,0.1,0.7,0.1
		c0.2,0,0.4,0,0.6-0.1c0.2-0.1,0.3-0.2,0.4-0.3c0.1-0.1,0.1-0.3,0.1-0.4c0-0.1,0-0.3-0.1-0.4c-0.1-0.1-0.3-0.2-0.4-0.3
		c-0.3-0.1-0.6-0.2-0.8-0.2c-0.3-0.1-0.6-0.2-0.9-0.3c-0.2-0.1-0.4-0.3-0.5-0.4c-0.1-0.2-0.2-0.4-0.2-0.6c0-0.2,0.1-0.5,0.2-0.7
		c0.1-0.2,0.4-0.4,0.6-0.5C15,0,15.3,0,15.6,0c0.3,0,0.6,0.1,0.9,0.2c0.3,0.1,0.5,0.3,0.6,0.5c0.1,0.2,0.2,0.5,0.2,0.7l-0.6,0
		c0-0.3-0.1-0.5-0.3-0.7c-0.2-0.2-0.5-0.2-0.8-0.2c-0.3,0-0.6,0.1-0.8,0.2c-0.2,0.1-0.3,0.3-0.3,0.5c0,0.2,0.1,0.3,0.2,0.4
		C15,1.9,15.3,2,15.7,2c0.4,0.1,0.7,0.2,1,0.3c0.2,0.1,0.5,0.3,0.6,0.5c0.1,0.2,0.2,0.4,0.2,0.7c0,0.3-0.1,0.5-0.2,0.7
		c-0.2,0.2-0.4,0.4-0.6,0.5c-0.3,0.1-0.6,0.2-0.9,0.2c-0.4,0-0.7-0.1-1.1-0.2c-0.3-0.1-0.5-0.3-0.7-0.6C13.8,3.9,13.8,3.6,13.8,3.3z
		"/>
	<path id="Path_97" class="st0" d="M21.7,3.2l0.6,0.2c-0.1,0.5-0.3,0.9-0.7,1.2c-0.4,0.3-0.8,0.4-1.3,0.4c-0.4,0-0.9-0.1-1.2-0.3
		c-0.3-0.2-0.6-0.5-0.7-0.9c-0.2-0.4-0.3-0.8-0.3-1.3c0-0.4,0.1-0.9,0.3-1.3c0.2-0.4,0.5-0.6,0.8-0.8C19.6,0.1,20,0,20.4,0
		c0.4,0,0.9,0.1,1.2,0.4c0.3,0.3,0.6,0.6,0.7,1l-0.6,0.1c-0.1-0.3-0.2-0.6-0.5-0.8c-0.2-0.2-0.5-0.2-0.8-0.2c-0.3,0-0.6,0.1-0.9,0.3
		C19.2,1,19.1,1.2,19,1.5c-0.1,0.3-0.2,0.6-0.2,0.9c0,0.4,0.1,0.7,0.2,1.1c0.1,0.3,0.3,0.5,0.5,0.7c0.2,0.1,0.5,0.2,0.8,0.2
		c0.3,0,0.6-0.1,0.9-0.3C21.5,3.8,21.7,3.5,21.7,3.2z"/>
	<path id="Path_98" class="st0" d="M22.9,2.5c0-0.7,0.2-1.3,0.6-1.8C24,0.2,24.6,0,25.2,0c0.4,0,0.8,0.1,1.2,0.3
		c0.3,0.2,0.6,0.5,0.8,0.9c0.4,0.8,0.4,1.8,0,2.6c-0.2,0.4-0.5,0.7-0.8,0.9c-0.4,0.2-0.7,0.3-1.2,0.3c-0.4,0-0.8-0.1-1.2-0.3
		c-0.3-0.2-0.6-0.5-0.8-0.9C23,3.3,22.9,2.9,22.9,2.5z M23.6,2.5c0,0.5,0.1,1,0.5,1.3c0.6,0.6,1.6,0.7,2.3,0c0,0,0,0,0.1-0.1
		c0.3-0.4,0.5-0.9,0.5-1.4c0-0.3-0.1-0.7-0.2-1c-0.1-0.3-0.3-0.5-0.6-0.7c-0.3-0.2-0.5-0.2-0.8-0.2c-0.4,0-0.8,0.2-1.1,0.5
		C23.7,1.4,23.5,2,23.6,2.5z"/>
	<path id="Path_99" class="st0" d="M33.5,3.2l0.6,0.2c-0.1,0.5-0.3,0.9-0.7,1.2c-0.4,0.3-0.8,0.4-1.3,0.4c-0.4,0-0.9-0.1-1.2-0.3
		c-0.3-0.2-0.6-0.5-0.7-0.9C30,3.3,30,2.9,30,2.4c0-0.4,0.1-0.9,0.3-1.3c0.2-0.4,0.5-0.6,0.8-0.8C31.4,0.1,31.8,0,32.2,0
		c0.4,0,0.9,0.1,1.2,0.4c0.3,0.3,0.6,0.6,0.7,1l-0.6,0.1C33.4,1.2,33.2,1,33,0.8c-0.2-0.2-0.5-0.2-0.8-0.2c-0.3,0-0.6,0.1-0.9,0.3
		C31,1,30.8,1.2,30.8,1.5c-0.1,0.3-0.2,0.6-0.2,0.9c0,0.4,0.1,0.7,0.2,1.1c0.1,0.3,0.3,0.5,0.5,0.7c0.2,0.1,0.5,0.2,0.8,0.2
		c0.3,0,0.6-0.1,0.9-0.3C33.3,3.8,33.5,3.5,33.5,3.2z"/>
	<path id="Path_100" class="st0" d="M34.8,4.8V1.4h0.5v0.5c0.1-0.2,0.2-0.4,0.4-0.5c0.1-0.1,0.2-0.1,0.4-0.1c0.2,0,0.4,0.1,0.6,0.2
		L36.5,2c-0.1-0.1-0.3-0.1-0.4-0.1c-0.1,0-0.2,0-0.3,0.1c-0.1,0.1-0.2,0.2-0.2,0.3c-0.1,0.2-0.1,0.5-0.1,0.7v1.8L34.8,4.8L34.8,4.8z
		"/>
	<path id="Path_101" class="st0" d="M39.4,3.7L40,3.8c-0.1,0.3-0.3,0.6-0.5,0.8c-0.7,0.4-1.6,0.4-2.2-0.2c-0.3-0.4-0.5-0.8-0.4-1.3
		c0-0.5,0.1-1,0.4-1.3c0.3-0.3,0.7-0.5,1.2-0.5c0.4,0,0.8,0.2,1.1,0.5C39.9,2.2,40,2.6,40,3.1v0.2h-2.6c0,0.3,0.1,0.6,0.3,0.9
		c0.2,0.2,0.4,0.3,0.7,0.3c0.2,0,0.4-0.1,0.5-0.2C39.2,4.1,39.3,3.9,39.4,3.7z M37.5,2.8h1.9c0-0.2-0.1-0.5-0.2-0.7
		c-0.2-0.2-0.4-0.3-0.7-0.3c-0.3,0-0.5,0.1-0.7,0.3C37.6,2.3,37.5,2.5,37.5,2.8L37.5,2.8z"/>
	<path id="Path_102" class="st0" d="M43,4.4c-0.2,0.2-0.4,0.3-0.6,0.4c-0.2,0.1-0.4,0.1-0.6,0.1c-0.3,0-0.6-0.1-0.9-0.3
		c-0.2-0.2-0.3-0.4-0.3-0.7c0-0.2,0-0.3,0.1-0.5c0.1-0.1,0.2-0.3,0.3-0.3C41.1,3,41.2,3,41.4,2.9c0.2,0,0.3-0.1,0.5-0.1
		c0.4,0,0.7-0.1,1-0.2V2.5c0-0.2,0-0.4-0.2-0.5c-0.2-0.1-0.4-0.2-0.7-0.2c-0.2,0-0.4,0-0.6,0.1c-0.2,0.1-0.3,0.3-0.3,0.5l-0.6-0.1
		c0-0.2,0.1-0.4,0.3-0.6c0.1-0.2,0.3-0.3,0.5-0.3c0.3-0.1,0.5-0.1,0.8-0.1c0.2,0,0.5,0,0.7,0.1c0.3,0.1,0.5,0.3,0.6,0.7
		c0,0.2,0,0.4,0,0.5v0.8c0,0.3,0,0.7,0,1c0,0.1,0.1,0.3,0.1,0.4h-0.6C43,4.7,43,4.6,43,4.4z M42.9,3.1c-0.3,0.1-0.6,0.2-1,0.2
		c-0.2,0-0.3,0.1-0.5,0.1c-0.1,0-0.2,0.1-0.2,0.2c-0.1,0.2-0.1,0.5,0.1,0.7c0.1,0.1,0.3,0.2,0.5,0.2c0.2,0,0.4,0,0.6-0.1
		c0.2-0.1,0.3-0.2,0.4-0.4c0.1-0.2,0.1-0.4,0.1-0.6L42.9,3.1L42.9,3.1z"/>
	<path id="Path_103" class="st0" d="M45.6,4.3l0.1,0.5c-0.1,0-0.3,0.1-0.4,0.1c-0.2,0-0.3,0-0.5-0.1c-0.1-0.1-0.2-0.2-0.2-0.3
		c-0.1-0.2-0.1-0.5-0.1-0.7v-2H44V1.4h0.4V0.6L45,0.2v1.2h0.6v0.5H45v2c0,0.1,0,0.2,0,0.3c0,0,0.1,0.1,0.1,0.1c0.1,0,0.1,0,0.2,0
		C45.4,4.3,45.5,4.3,45.6,4.3z"/>
	<path id="Path_104" class="st0" d="M46.2,0.8V0.1h0.6v0.7H46.2z M46.2,4.8V1.4h0.6v3.4H46.2z"/>
	<path id="Path_105" class="st0" d="M48.6,4.8l-1.3-3.4h0.6l0.7,2.1c0.1,0.2,0.2,0.5,0.2,0.7C48.9,4,49,3.8,49.1,3.5l0.8-2.1h0.6
		l-1.3,3.4L48.6,4.8L48.6,4.8z"/>
	<path id="Path_106" class="st0" d="M53.2,3.7l0.6,0.1c-0.1,0.3-0.3,0.6-0.5,0.8c-0.7,0.4-1.6,0.4-2.2-0.2c-0.3-0.4-0.5-0.8-0.4-1.3
		c0-0.5,0.1-1,0.4-1.3c0.3-0.3,0.7-0.5,1.2-0.5c0.4,0,0.8,0.2,1.1,0.5c0.3,0.4,0.5,0.8,0.4,1.3v0.2h-2.6c0,0.3,0.1,0.6,0.3,0.9
		c0.2,0.2,0.4,0.3,0.7,0.3c0.2,0,0.4-0.1,0.5-0.2C53,4.1,53.2,3.9,53.2,3.7z M51.3,2.8h1.9c0-0.2-0.1-0.5-0.2-0.7
		c-0.2-0.2-0.4-0.3-0.7-0.3c-0.3,0-0.5,0.1-0.7,0.3C51.4,2.3,51.3,2.5,51.3,2.8L51.3,2.8z"/>
	<path id="Path_107" class="st0" d="M59.9,3.2l0.6,0.2c-0.1,0.5-0.3,0.9-0.7,1.2c-0.4,0.3-0.8,0.4-1.3,0.4c-0.4,0-0.9-0.1-1.2-0.3
		c-0.3-0.2-0.6-0.5-0.7-0.9c-0.2-0.4-0.3-0.8-0.3-1.3c0-0.4,0.1-0.9,0.3-1.3c0.2-0.4,0.5-0.6,0.8-0.8C57.7,0.1,58.1,0,58.5,0
		c0.4,0,0.9,0.1,1.2,0.4c0.3,0.3,0.6,0.6,0.7,1l-0.6,0.1c-0.1-0.3-0.2-0.6-0.5-0.8c-0.2-0.2-0.5-0.2-0.8-0.2c-0.3,0-0.6,0.1-0.9,0.3
		c-0.2,0.2-0.4,0.4-0.5,0.7c-0.1,0.3-0.2,0.6-0.2,0.9c0,0.4,0.1,0.7,0.2,1.1c0.1,0.3,0.3,0.5,0.5,0.7c0.2,0.1,0.5,0.2,0.8,0.2
		c0.3,0,0.6-0.1,0.9-0.3C59.6,3.8,59.8,3.5,59.9,3.2z"/>
	<path id="Path_108" class="st0" d="M61.2,0.8V0.1h0.6v0.7H61.2z M61.2,4.8V1.4h0.6v3.4H61.2z"/>
	<path id="Path_109" class="st0" d="M63.9,4.3L64,4.8c-0.1,0-0.3,0.1-0.4,0.1c-0.2,0-0.3,0-0.5-0.1c-0.1-0.1-0.2-0.2-0.2-0.3
		c-0.1-0.2-0.1-0.5-0.1-0.7v-2h-0.4V1.4h0.4V0.6l0.6-0.3v1.2h0.6v0.5h-0.6v2c0,0.1,0,0.2,0,0.3c0,0,0.1,0.1,0.1,0.1
		c0.1,0,0.1,0,0.2,0C63.7,4.3,63.8,4.3,63.9,4.3z"/>
	<path id="Path_110" class="st0" d="M64.6,6.2l-0.1-0.5c0.1,0,0.2,0.1,0.3,0.1c0.1,0,0.2,0,0.3-0.1c0.1,0,0.1-0.1,0.2-0.2
		c0.1-0.1,0.1-0.3,0.2-0.4c0,0,0-0.1,0.1-0.1l-1.3-3.4h0.6l0.7,2c0.1,0.3,0.2,0.5,0.2,0.8c0.1-0.3,0.1-0.5,0.2-0.8l0.7-2h0.6
		l-1.3,3.5c-0.1,0.3-0.2,0.5-0.3,0.8c-0.1,0.2-0.2,0.3-0.4,0.4c-0.1,0.1-0.3,0.1-0.5,0.1C64.8,6.2,64.7,6.2,64.6,6.2z"/>
</g>
<g id="Group_20" transform="translate(92.513 69.02)">
	<path id="Path_111" class="st0" d="M0,0.7V0h0.6v0.7H0z M0,4.8V1.3h0.6v3.4H0z"/>
	<path id="Path_112" class="st0" d="M1.5,4.8V1.3H2v0.5c0.2-0.4,0.7-0.6,1.1-0.6c0.2,0,0.4,0,0.6,0.1C3.8,1.4,3.9,1.5,4,1.7
		c0.1,0.1,0.1,0.3,0.2,0.4c0,0.2,0,0.4,0,0.6v2.1H3.7V2.7c0-0.2,0-0.4-0.1-0.5c0-0.1-0.1-0.2-0.2-0.3C3.2,1.8,3.1,1.8,3,1.8
		C2.7,1.8,2.5,1.8,2.3,2C2.1,2.2,2,2.6,2,2.9v1.9L1.5,4.8L1.5,4.8z"/>
	<path id="Path_113" class="st0" d="M9.9,4.2v0.6H6.7c0-0.1,0-0.3,0.1-0.4C6.9,4.1,7,3.9,7.2,3.7C7.4,3.5,7.7,3.2,8,3
		c0.4-0.3,0.7-0.6,1-1c0.2-0.2,0.3-0.4,0.3-0.7c0-0.2-0.1-0.4-0.2-0.6C8.9,0.6,8.6,0.5,8.4,0.5c-0.3,0-0.5,0.1-0.7,0.3
		C7.5,0.9,7.4,1.2,7.5,1.4L6.9,1.4c0-0.4,0.2-0.8,0.5-1C7.6,0.1,8,0,8.4,0c0.4,0,0.8,0.1,1.1,0.4C9.7,0.6,9.9,1,9.9,1.3
		c0,0.2,0,0.4-0.1,0.6C9.7,2.1,9.5,2.3,9.4,2.5C9.1,2.8,8.8,3,8.5,3.3C8.1,3.6,7.9,3.8,7.8,3.9C7.7,4,7.6,4.1,7.6,4.2L9.9,4.2
		L9.9,4.2z"/>
	<path id="Path_114" class="st0" d="M10.5,2.4c0-0.5,0-0.9,0.2-1.4c0.1-0.3,0.3-0.6,0.5-0.8C11.4,0.1,11.7,0,12.1,0
		c0.2,0,0.5,0,0.7,0.2c0.2,0.1,0.4,0.3,0.5,0.4c0.1,0.2,0.2,0.5,0.3,0.7c0.1,0.4,0.1,0.7,0.1,1.1c0,0.5,0,0.9-0.2,1.3
		c-0.1,0.3-0.3,0.6-0.5,0.8C12.3,5,11.5,4.9,11,4.4C10.6,3.8,10.4,3.1,10.5,2.4z M11.1,2.4c-0.1,0.5,0,1.1,0.3,1.6
		c0.2,0.4,0.7,0.5,1.1,0.3c0.1-0.1,0.2-0.2,0.3-0.3C13,3.5,13,3,13,2.4c0.1-0.5,0-1.1-0.3-1.6c-0.1-0.2-0.4-0.4-0.7-0.4
		c-0.3,0-0.5,0.1-0.6,0.3C11.2,1.3,11.1,1.9,11.1,2.4L11.1,2.4z"/>
	<path id="Path_115" class="st0" d="M16.2,4.8h-0.6V1c-0.2,0.2-0.4,0.3-0.6,0.4c-0.2,0.1-0.4,0.2-0.6,0.3V1.2
		c0.3-0.1,0.6-0.3,0.9-0.6c0.2-0.2,0.4-0.4,0.5-0.6h0.4L16.2,4.8L16.2,4.8z"/>
	<path id="Path_116" class="st0" d="M17.3,0.6V0.1h3.1v0.5c-0.4,0.4-0.7,0.8-0.9,1.3c-0.3,0.5-0.5,1.1-0.7,1.6
		c-0.1,0.4-0.2,0.9-0.2,1.3H18c0-0.5,0.1-0.9,0.2-1.4c0.1-0.5,0.3-1,0.6-1.5C19,1.4,19.3,1,19.6,0.6L17.3,0.6L17.3,0.6z"/>
</g>
<g id="Group_21" transform="translate(34.239 54.67)">
	<path id="Path_117" class="st0" d="M3.1,0h0.6v2.7c0,0.4,0,0.8-0.2,1.1C3.5,4.2,3.2,4.4,3,4.6C2.6,4.8,2.3,4.8,1.9,4.8
		c-0.4,0-0.8-0.1-1.1-0.2C0.5,4.5,0.3,4.2,0.2,3.9C0,3.6,0,3.2,0,2.8V0h0.6v2.7c0,0.3,0,0.6,0.1,0.9C0.8,3.8,1,4,1.1,4.1
		c0.2,0.1,0.4,0.2,0.7,0.2c0.4,0,0.7-0.1,1-0.3c0.2-0.4,0.3-0.8,0.3-1.2L3.1,0L3.1,0z"/>
	<path id="Path_118" class="st0" d="M4.7,4.8V1.3h0.5v0.5c0.2-0.4,0.7-0.6,1.1-0.6c0.2,0,0.4,0,0.6,0.1c0.2,0.1,0.3,0.2,0.4,0.3
		c0.1,0.1,0.1,0.3,0.2,0.4c0,0.2,0,0.4,0,0.6v2.1H6.9V2.7c0-0.2,0-0.4-0.1-0.5c0-0.1-0.1-0.2-0.2-0.3C6.5,1.8,6.3,1.7,6.2,1.8
		C6,1.7,5.7,1.8,5.6,2C5.4,2.2,5.3,2.6,5.3,2.9v1.9L4.7,4.8L4.7,4.8z"/>
	<path id="Path_119" class="st0" d="M8.4,0.7V0H9v0.7H8.4z M8.4,4.7V1.3H9v3.4H8.4z"/>
	<path id="Path_120" class="st0" d="M11.1,4.2l0.1,0.5c-0.1,0-0.3,0.1-0.4,0.1c-0.2,0-0.3,0-0.5-0.1C10.1,4.6,10,4.5,10,4.4
		C9.9,4.2,9.9,4,9.9,3.7v-2H9.5V1.3h0.4V0.5l0.6-0.3v1.2h0.6v0.5h-0.6v2c0,0.1,0,0.2,0,0.3c0,0,0.1,0.1,0.1,0.1c0.1,0,0.1,0,0.2,0
		C10.9,4.2,11,4.2,11.1,4.2z"/>
	<path id="Path_121" class="st0" d="M14,3.6l0.6,0.1C14.5,4,14.3,4.3,14,4.5c-0.3,0.2-0.6,0.3-1,0.3c-0.4,0-0.9-0.1-1.2-0.5
		c-0.3-0.4-0.5-0.8-0.4-1.3c0-0.5,0.1-1,0.4-1.3c0.3-0.3,0.7-0.5,1.2-0.5c0.4,0,0.8,0.2,1.1,0.5c0.3,0.4,0.5,0.8,0.4,1.3
		c0,0,0,0.1,0,0.2H12c0,0.3,0.1,0.6,0.3,0.9c0.2,0.2,0.4,0.3,0.7,0.3c0.2,0,0.4-0.1,0.5-0.2C13.8,4,13.9,3.9,14,3.6z M12,2.7H14
		c0-0.2-0.1-0.5-0.2-0.7c-0.2-0.2-0.4-0.3-0.7-0.3c-0.3,0-0.5,0.1-0.7,0.3C12.2,2.2,12,2.4,12,2.7L12,2.7z"/>
	<path id="Path_122" class="st0" d="M17.5,4.7V4.3c-0.2,0.3-0.6,0.5-1,0.5c-0.3,0-0.5-0.1-0.8-0.2c-0.2-0.2-0.4-0.4-0.5-0.6
		c-0.1-0.3-0.2-0.6-0.2-0.9c0-0.3,0.1-0.6,0.2-0.9c0.1-0.3,0.3-0.5,0.5-0.6c0.2-0.1,0.5-0.2,0.8-0.2c0.2,0,0.4,0,0.6,0.1
		c0.2,0.1,0.3,0.2,0.4,0.3V0h0.6v4.7L17.5,4.7L17.5,4.7z M15.7,3c0,0.4,0.1,0.7,0.3,1c0.2,0.2,0.4,0.3,0.7,0.3
		c0.3,0,0.5-0.1,0.7-0.3c0.2-0.3,0.3-0.6,0.3-1c0-0.4-0.1-0.7-0.3-1c-0.2-0.2-0.4-0.3-0.7-0.3c-0.3,0-0.5,0.1-0.7,0.3
		C15.7,2.3,15.7,2.7,15.7,3L15.7,3z"/>
	<path id="Path_123" class="st0" d="M20.9,4.7V0h0.6L24,3.7V0h0.6v4.7H24L21.5,1v3.7H20.9z"/>
	<path id="Path_124" class="st0" d="M27.9,4.3c-0.2,0.2-0.4,0.3-0.6,0.4c-0.2,0.1-0.4,0.1-0.6,0.1c-0.3,0-0.6-0.1-0.9-0.3
		c-0.2-0.2-0.3-0.4-0.3-0.7c0-0.2,0-0.3,0.1-0.5c0.1-0.1,0.2-0.3,0.3-0.3C26,3,26.1,2.9,26.3,2.9c0.2,0,0.3-0.1,0.5-0.1
		c0.4,0,0.7-0.1,1-0.2c0-0.1,0-0.1,0-0.2c0-0.2,0-0.4-0.2-0.5c-0.2-0.1-0.4-0.2-0.7-0.2c-0.2,0-0.4,0-0.6,0.1
		c-0.2,0.1-0.3,0.3-0.3,0.5l-0.6-0.1c0-0.2,0.1-0.4,0.3-0.6c0.1-0.2,0.3-0.3,0.5-0.3c0.3-0.1,0.5-0.1,0.8-0.1c0.2,0,0.5,0,0.7,0.1
		c0.2,0,0.3,0.1,0.4,0.3c0.1,0.1,0.2,0.3,0.2,0.4c0,0.2,0,0.4,0,0.5v0.8c0,0.3,0,0.7,0,1c0,0.1,0.1,0.3,0.1,0.4H28
		C27.9,4.6,27.9,4.5,27.9,4.3z M27.8,3c-0.3,0.1-0.6,0.2-1,0.2c-0.2,0-0.3,0.1-0.5,0.1c-0.1,0-0.2,0.1-0.2,0.2
		c-0.1,0.1-0.1,0.2-0.1,0.3c0,0.1,0.1,0.3,0.2,0.4c0.1,0.1,0.3,0.2,0.5,0.2c0.2,0,0.4,0,0.6-0.1c0.2-0.1,0.3-0.2,0.4-0.4
		c0.1-0.2,0.1-0.4,0.1-0.6L27.8,3L27.8,3z"/>
	<path id="Path_125" class="st0" d="M30.5,4.2l0.1,0.5c-0.1,0-0.3,0.1-0.4,0.1c-0.2,0-0.3,0-0.5-0.1c-0.1-0.1-0.2-0.2-0.2-0.3
		c-0.1-0.2-0.1-0.5-0.1-0.7v-2h-0.4V1.3h0.4V0.5l0.6-0.3v1.2h0.6v0.5h-0.6v2c0,0.1,0,0.2,0,0.3c0,0,0.1,0.1,0.1,0.1
		c0.1,0,0.1,0,0.2,0C30.4,4.2,30.4,4.2,30.5,4.2z"/>
	<path id="Path_126" class="st0" d="M31.1,0.7V0h0.6v0.7H31.1z M31.1,4.7V1.3h0.6v3.4H31.1z"/>
	<path id="Path_127" class="st0" d="M32.4,3c0-0.5,0.2-1,0.5-1.4c0.3-0.3,0.7-0.4,1.1-0.4c0.4,0,0.9,0.2,1.2,0.5
		c0.3,0.4,0.5,0.8,0.5,1.3c0,0.4-0.1,0.7-0.2,1c-0.1,0.3-0.3,0.5-0.6,0.6c-0.3,0.1-0.5,0.2-0.8,0.2c-0.4,0-0.9-0.2-1.2-0.5
		C32.5,4,32.3,3.5,32.4,3z M33,3c0,0.4,0.1,0.7,0.3,1c0.2,0.2,0.4,0.3,0.7,0.3c0.3,0,0.5-0.1,0.7-0.3C34.9,3.7,35,3.4,35,3
		c0-0.3-0.1-0.7-0.3-1c-0.3-0.4-1-0.4-1.4-0.1c0,0-0.1,0.1-0.1,0.1C33.1,2.3,33,2.7,33,3L33,3z"/>
	<path id="Path_128" class="st0" d="M36.3,4.8V1.3h0.5v0.5c0.2-0.4,0.7-0.6,1.1-0.6c0.2,0,0.4,0,0.6,0.1c0.2,0.1,0.3,0.2,0.4,0.3
		C39,1.8,39,1.9,39.1,2.1c0,0.2,0,0.4,0,0.6v2.1h-0.6V2.7c0-0.2,0-0.4-0.1-0.5c0-0.1-0.1-0.2-0.2-0.3c-0.1-0.1-0.3-0.1-0.4-0.1
		c-0.2,0-0.5,0.1-0.6,0.2c-0.2,0.2-0.3,0.6-0.3,0.9v1.9L36.3,4.8L36.3,4.8z"/>
	<path id="Path_129" class="st0" d="M39.7,3.7l0.6-0.1c0,0.2,0.1,0.4,0.3,0.5c0.4,0.2,0.8,0.2,1.2,0C41.9,4.1,42,4,42,3.8
		c0-0.1-0.1-0.2-0.2-0.3c-0.2-0.1-0.4-0.2-0.6-0.2c-0.3-0.1-0.6-0.2-0.9-0.3c-0.2-0.1-0.3-0.2-0.4-0.3c-0.1-0.1-0.1-0.3-0.1-0.5
		c0-0.1,0-0.3,0.1-0.4c0.1-0.1,0.2-0.2,0.3-0.3c0.1-0.1,0.2-0.1,0.4-0.2c0.2,0,0.3-0.1,0.5-0.1c0.2,0,0.5,0,0.7,0.1
		c0.2,0.1,0.3,0.2,0.5,0.3c0.1,0.2,0.2,0.3,0.2,0.5l-0.6,0.1c0-0.2-0.1-0.3-0.2-0.4c-0.2-0.1-0.3-0.2-0.5-0.2c-0.2,0-0.4,0-0.6,0.1
		c-0.1,0.1-0.2,0.2-0.2,0.3c0,0.1,0,0.1,0.1,0.2c0.1,0.1,0.1,0.1,0.2,0.2c0.1,0,0.2,0.1,0.5,0.2c0.3,0.1,0.6,0.2,0.9,0.3
		c0.2,0.1,0.3,0.2,0.4,0.3c0.1,0.1,0.1,0.3,0.1,0.5c0,0.2-0.1,0.4-0.2,0.5c-0.1,0.2-0.3,0.3-0.5,0.4c-0.2,0.1-0.5,0.1-0.7,0.1
		c-0.4,0-0.7-0.1-1-0.3C39.9,4.3,39.8,4,39.7,3.7z"/>
</g>
<g id="Group_22" transform="translate(0 61.818)">
	<path id="Path_130" class="st0" d="M0,4.8V0.1h3.4v0.6H0.6v1.5h2.6v0.6H0.6v1.6h2.9v0.6L0,4.8z"/>
	<path id="Path_131" class="st0" d="M6.5,4.8V4.4c-0.2,0.3-0.6,0.5-1,0.5C5.2,4.9,5,4.8,4.7,4.7C4.5,4.5,4.3,4.3,4.2,4
		C4.1,3.8,4,3.4,4,3.1c0-0.3,0.1-0.6,0.2-0.9c0.1-0.3,0.3-0.5,0.5-0.6c0.2-0.1,0.5-0.2,0.8-0.2c0.2,0,0.4,0,0.6,0.1
		c0.2,0.1,0.3,0.2,0.4,0.3V0.1H7v4.7L6.5,4.8L6.5,4.8z M4.6,3.1c0,0.4,0.1,0.7,0.3,1c0.2,0.2,0.4,0.3,0.7,0.3c0.3,0,0.5-0.1,0.7-0.3
		c0.2-0.3,0.3-0.6,0.3-1c0-0.4-0.1-0.7-0.3-1C6,1.9,5.8,1.8,5.5,1.8C5.3,1.8,5,1.9,4.9,2.1C4.7,2.4,4.6,2.8,4.6,3.1L4.6,3.1z"/>
	<path id="Path_132" class="st0" d="M10.1,4.8V4.3C9.9,4.7,9.5,4.9,9,4.9c-0.2,0-0.4,0-0.6-0.1C8.3,4.7,8.2,4.6,8.1,4.5
		C8,4.4,7.9,4.2,7.9,4.1c0-0.2,0-0.4,0-0.5V1.4h0.6v1.9c0,0.2,0,0.4,0,0.6c0,0.1,0.1,0.3,0.2,0.4C8.9,4.4,9,4.4,9.2,4.4
		c0.2,0,0.3,0,0.5-0.1C9.8,4.2,9.9,4.1,10,3.9c0.1-0.2,0.1-0.4,0.1-0.7V1.4h0.6v3.4L10.1,4.8L10.1,4.8z"/>
	<path id="Path_133" class="st0" d="M13.8,3.6l0.6,0.1c0,0.4-0.2,0.7-0.5,0.9c-0.3,0.2-0.6,0.3-1,0.3c-0.4,0-0.8-0.1-1.1-0.5
		c-0.3-0.4-0.5-0.8-0.4-1.3c0-0.3,0.1-0.7,0.2-1c0.1-0.3,0.3-0.5,0.6-0.6c0.3-0.1,0.5-0.2,0.8-0.2c0.3,0,0.7,0.1,0.9,0.3
		c0.2,0.2,0.4,0.5,0.5,0.8l-0.6,0.1c0-0.2-0.1-0.4-0.3-0.5c-0.1-0.1-0.3-0.2-0.5-0.2c-0.3,0-0.5,0.1-0.7,0.3c-0.2,0.3-0.3,0.6-0.3,1
		c0,0.4,0.1,0.7,0.3,1c0.2,0.2,0.4,0.3,0.7,0.3c0.2,0,0.4-0.1,0.6-0.2C13.7,4,13.8,3.8,13.8,3.6z"/>
	<path id="Path_134" class="st0" d="M17.2,4.4c-0.2,0.2-0.4,0.3-0.6,0.4c-0.2,0.1-0.4,0.1-0.6,0.1c-0.3,0-0.6-0.1-0.9-0.3
		c-0.2-0.2-0.3-0.4-0.3-0.7c0-0.2,0-0.3,0.1-0.5c0.1-0.1,0.2-0.3,0.3-0.3C15.3,3,15.5,3,15.6,2.9c0.2,0,0.3-0.1,0.5-0.1
		c0.4,0,0.7-0.1,1-0.2c0-0.1,0-0.1,0-0.2c0-0.2,0-0.4-0.2-0.5c-0.2-0.1-0.4-0.2-0.7-0.2c-0.2,0-0.4,0-0.6,0.1
		c-0.2,0.1-0.3,0.3-0.3,0.5l-0.6-0.1c0-0.2,0.1-0.4,0.3-0.6c0.1-0.2,0.3-0.3,0.5-0.3c0.3-0.1,0.5-0.1,0.8-0.1c0.2,0,0.5,0,0.7,0.1
		c0.2,0,0.3,0.1,0.4,0.3c0.1,0.1,0.2,0.3,0.2,0.4c0,0.2,0,0.4,0,0.5v0.8c0,0.3,0,0.7,0,1c0,0.1,0.1,0.3,0.1,0.4h-0.6
		C17.3,4.7,17.2,4.6,17.2,4.4z M17.2,3.1c-0.3,0.1-0.6,0.2-1,0.2c-0.2,0-0.3,0.1-0.5,0.1c-0.1,0-0.2,0.1-0.2,0.2
		c-0.1,0.1-0.1,0.2-0.1,0.3c0,0.1,0.1,0.3,0.2,0.4c0.1,0.1,0.3,0.2,0.5,0.2c0.2,0,0.4,0,0.6-0.1c0.2-0.1,0.3-0.2,0.4-0.4
		c0.1-0.2,0.1-0.4,0.1-0.6L17.2,3.1L17.2,3.1z"/>
	<path id="Path_135" class="st0" d="M19.9,4.3L20,4.8c-0.1,0-0.3,0.1-0.4,0.1c-0.2,0-0.3,0-0.5-0.1c-0.1-0.1-0.2-0.2-0.2-0.3
		c-0.1-0.2-0.1-0.5-0.1-0.7v-2h-0.4V1.4h0.4V0.5l0.6-0.3v1.2h0.6v0.5h-0.6v2c0,0.1,0,0.2,0,0.3c0,0,0.1,0.1,0.1,0.1
		c0.1,0,0.1,0,0.2,0C19.7,4.3,19.8,4.3,19.9,4.3z"/>
	<path id="Path_136" class="st0" d="M20.5,0.8V0.1H21v0.7H20.5z M20.5,4.8V1.4H21v3.4H20.5z"/>
	<path id="Path_137" class="st0" d="M21.7,3.1c0-0.5,0.2-1,0.5-1.4c0.3-0.3,0.7-0.4,1.1-0.4c0.4,0,0.9,0.2,1.2,0.5
		c0.3,0.4,0.5,0.8,0.5,1.3c0,0.4-0.1,0.7-0.2,1c-0.1,0.3-0.3,0.5-0.6,0.6c-0.3,0.1-0.5,0.2-0.8,0.2c-0.4,0-0.9-0.2-1.2-0.5
		C21.8,4.1,21.7,3.6,21.7,3.1z M22.3,3.1c0,0.4,0.1,0.7,0.3,1c0.2,0.2,0.4,0.3,0.7,0.3c0.3,0,0.5-0.1,0.7-0.3c0.2-0.3,0.3-0.6,0.3-1
		c0-0.3-0.1-0.7-0.3-1c-0.3-0.4-1-0.4-1.4-0.1c0,0-0.1,0.1-0.1,0.1C22.4,2.4,22.3,2.8,22.3,3.1L22.3,3.1z"/>
	<path id="Path_138" class="st0" d="M25.6,4.8V1.4h0.5v0.5c0.2-0.4,0.7-0.6,1.1-0.6c0.2,0,0.4,0,0.6,0.1c0.2,0.1,0.3,0.2,0.4,0.3
		c0.1,0.1,0.1,0.3,0.2,0.4c0,0.2,0,0.4,0,0.6v2.1h-0.6V2.8c0-0.2,0-0.4-0.1-0.5c0-0.1-0.1-0.2-0.2-0.3c-0.1-0.1-0.3-0.1-0.4-0.1
		c-0.2,0-0.5,0.1-0.6,0.2c-0.2,0.2-0.3,0.6-0.3,0.9v1.9L25.6,4.8L25.6,4.8z"/>
	<path id="Path_139" class="st0" d="M31.5,4.4c-0.2,0.2-0.4,0.3-0.6,0.4c-0.2,0.1-0.4,0.1-0.6,0.1c-0.3,0-0.6-0.1-0.9-0.3
		c-0.2-0.2-0.3-0.4-0.3-0.7c0-0.2,0-0.3,0.1-0.5c0.1-0.1,0.2-0.3,0.3-0.3C29.6,3,29.8,3,29.9,2.9c0.2,0,0.3-0.1,0.5-0.1
		c0.4,0,0.7-0.1,1-0.2c0-0.1,0-0.1,0-0.2c0-0.2,0-0.4-0.2-0.5c-0.2-0.1-0.4-0.2-0.7-0.2c-0.2,0-0.4,0-0.6,0.1
		c-0.2,0.1-0.3,0.3-0.3,0.5l-0.6-0.1c0-0.2,0.1-0.4,0.3-0.6c0.1-0.2,0.3-0.3,0.5-0.3c0.3-0.1,0.5-0.1,0.8-0.1c0.2,0,0.5,0,0.7,0.1
		c0.2,0,0.3,0.1,0.4,0.3C32,1.8,32,1.9,32,2.1c0,0.2,0,0.4,0,0.5v0.8c0,0.3,0,0.7,0,1c0,0.1,0.1,0.3,0.1,0.4h-0.6
		C31.6,4.7,31.6,4.6,31.5,4.4z M31.5,3.1c-0.3,0.1-0.6,0.2-1,0.2c-0.2,0-0.3,0.1-0.5,0.1c-0.1,0-0.2,0.1-0.2,0.2
		c-0.1,0.1-0.1,0.2-0.1,0.3c0,0.1,0.1,0.3,0.2,0.4c0.1,0.1,0.3,0.2,0.5,0.2c0.2,0,0.4,0,0.6-0.1c0.2-0.1,0.3-0.2,0.4-0.4
		c0.1-0.2,0.1-0.4,0.1-0.6L31.5,3.1L31.5,3.1z"/>
	<path id="Path_140" class="st0" d="M32.9,4.8V0.1h0.6v4.7H32.9z"/>
	<path id="Path_141" class="st0" d="M34.5,4.8V4.2h0.7v0.7c0,0.2,0,0.4-0.1,0.6c-0.1,0.2-0.2,0.3-0.4,0.3l-0.2-0.2
		c0.1,0,0.2-0.1,0.3-0.2c0.1-0.1,0.1-0.3,0.1-0.5L34.5,4.8z"/>
	<path id="Path_142" class="st0" d="M37.9,3.3l0.6-0.1c0,0.2,0.1,0.4,0.2,0.6C38.8,4,39,4.1,39.2,4.2c0.2,0.1,0.5,0.1,0.7,0.1
		c0.2,0,0.4,0,0.6-0.1c0.2-0.1,0.3-0.2,0.4-0.3c0.1-0.1,0.1-0.3,0.1-0.4c0-0.1,0-0.3-0.1-0.4c-0.1-0.1-0.3-0.2-0.4-0.3
		c-0.3-0.1-0.6-0.2-0.8-0.2c-0.3-0.1-0.6-0.2-0.9-0.3c-0.2-0.1-0.4-0.3-0.5-0.4c-0.1-0.2-0.2-0.4-0.2-0.6c0-0.2,0.1-0.5,0.2-0.7
		c0.1-0.2,0.4-0.4,0.6-0.5C39.2,0,39.4,0,39.7,0c0.3,0,0.6,0.1,0.9,0.2c0.3,0.1,0.5,0.3,0.6,0.5c0.1,0.2,0.2,0.5,0.2,0.7l-0.6,0
		c0-0.3-0.1-0.5-0.3-0.7c-0.2-0.2-0.5-0.2-0.8-0.2c-0.3,0-0.6,0.1-0.8,0.2c-0.2,0.1-0.3,0.3-0.3,0.5c0,0.2,0.1,0.3,0.2,0.4
		C39.2,1.9,39.5,2,39.8,2c0.4,0.1,0.7,0.2,1,0.3c0.2,0.1,0.5,0.3,0.6,0.5c0.1,0.2,0.2,0.4,0.2,0.7c0,0.3-0.1,0.5-0.2,0.7
		c-0.2,0.2-0.4,0.4-0.6,0.5c-0.3,0.1-0.6,0.2-0.9,0.2c-0.4,0-0.7-0.1-1.1-0.2c-0.3-0.1-0.5-0.3-0.7-0.6C38,3.9,37.9,3.6,37.9,3.3z"
		/>
	<path id="Path_143" class="st0" d="M44.7,3.6l0.6,0.1c0,0.4-0.2,0.7-0.5,0.9c-0.3,0.2-0.6,0.3-1,0.3c-0.4,0-0.8-0.1-1.1-0.5
		c-0.3-0.4-0.5-0.8-0.4-1.3c0-0.3,0.1-0.7,0.2-1c0.1-0.3,0.3-0.5,0.6-0.6c0.3-0.1,0.5-0.2,0.8-0.2c0.3,0,0.7,0.1,0.9,0.3
		c0.2,0.2,0.4,0.5,0.5,0.8l-0.6,0.1c0-0.2-0.1-0.4-0.3-0.5c-0.1-0.1-0.3-0.2-0.5-0.2c-0.3,0-0.5,0.1-0.7,0.3c-0.2,0.3-0.3,0.6-0.3,1
		c0,0.4,0.1,0.7,0.3,1c0.2,0.2,0.4,0.3,0.7,0.3c0.2,0,0.4-0.1,0.6-0.2C44.6,4,44.7,3.8,44.7,3.6z"/>
	<path id="Path_144" class="st0" d="M45.8,0.8V0.1h0.6v0.7H45.8z M45.8,4.8V1.4h0.6v3.4H45.8z"/>
	<path id="Path_145" class="st0" d="M49.7,3.7l0.6,0.1c-0.1,0.3-0.3,0.6-0.5,0.8c-0.3,0.2-0.6,0.3-1,0.3c-0.4,0-0.9-0.1-1.2-0.5
		c-0.3-0.4-0.5-0.8-0.4-1.3c0-0.5,0.1-1,0.4-1.3c0.3-0.3,0.7-0.5,1.2-0.5c0.4,0,0.8,0.2,1.1,0.5c0.3,0.4,0.5,0.8,0.4,1.3
		c0,0,0,0.1,0,0.2h-2.6c0,0.3,0.1,0.6,0.3,0.9c0.2,0.2,0.4,0.3,0.7,0.3c0.2,0,0.4-0.1,0.5-0.2C49.5,4.1,49.6,3.9,49.7,3.7z
		 M47.7,2.8h1.9c0-0.2-0.1-0.5-0.2-0.7c-0.2-0.2-0.4-0.3-0.7-0.3c-0.3,0-0.5,0.1-0.7,0.3C47.9,2.3,47.8,2.5,47.7,2.8L47.7,2.8z"/>
	<path id="Path_146" class="st0" d="M51,4.8V1.4h0.5v0.5c0.2-0.4,0.7-0.6,1.1-0.6c0.2,0,0.4,0,0.6,0.1c0.2,0.1,0.3,0.2,0.4,0.3
		c0.1,0.1,0.1,0.3,0.2,0.4c0,0.2,0,0.4,0,0.6v2.1h-0.6V2.8c0-0.2,0-0.4-0.1-0.5c0-0.1-0.1-0.2-0.2-0.3c-0.1-0.1-0.3-0.1-0.4-0.1
		c-0.2,0-0.5,0.1-0.6,0.2c-0.2,0.2-0.3,0.6-0.3,0.9v1.9L51,4.8L51,4.8z"/>
	<path id="Path_147" class="st0" d="M55.9,4.3L56,4.8c-0.1,0-0.3,0.1-0.4,0.1c-0.2,0-0.3,0-0.5-0.1c-0.1-0.1-0.2-0.2-0.2-0.3
		c-0.1-0.2-0.1-0.5-0.1-0.7v-2h-0.4V1.4h0.4V0.5l0.6-0.3v1.2h0.6v0.5h-0.6v2c0,0.1,0,0.2,0,0.3c0,0,0.1,0.1,0.1,0.1
		c0.1,0,0.1,0,0.2,0C55.7,4.3,55.8,4.3,55.9,4.3z"/>
	<path id="Path_148" class="st0" d="M56.5,0.8V0.1h0.6v0.7H56.5z M56.5,4.8V1.4h0.6v3.4H56.5z"/>
	<path id="Path_149" class="st0" d="M58.1,4.8v-3h-0.5V1.4h0.5V1.1c0-0.3,0.1-0.6,0.2-0.8C58.5,0.1,58.8,0,59,0c0.2,0,0.4,0,0.6,0.1
		l-0.1,0.5c-0.1,0-0.2,0-0.3,0c-0.1,0-0.3,0-0.4,0.1c-0.1,0.2-0.1,0.3-0.1,0.5v0.2h0.7v0.5h-0.7v3H58.1z M59.8,0.8V0.1h0.6v0.7H59.8
		z M59.8,4.8V1.4h0.6v3.4H59.8z"/>
	<path id="Path_150" class="st0" d="M63.6,3.6l0.6,0.1c0,0.4-0.2,0.7-0.5,0.9c-0.3,0.2-0.6,0.3-1,0.3c-0.4,0-0.8-0.1-1.1-0.5
		c-0.3-0.4-0.5-0.8-0.4-1.3c0-0.3,0.1-0.7,0.2-1c0.1-0.3,0.3-0.5,0.6-0.6c0.3-0.1,0.5-0.2,0.8-0.2c0.3,0,0.7,0.1,0.9,0.3
		c0.2,0.2,0.4,0.5,0.5,0.8l-0.6,0.1c0-0.2-0.1-0.4-0.3-0.5c-0.1-0.1-0.3-0.2-0.5-0.2c-0.3,0-0.5,0.1-0.7,0.3c-0.2,0.3-0.3,0.6-0.3,1
		c0,0.4,0.1,0.7,0.3,1c0.2,0.2,0.4,0.3,0.7,0.3c0.2,0,0.4-0.1,0.6-0.2C63.4,4,63.5,3.8,63.6,3.6z"/>
	<path id="Path_151" class="st0" d="M68.7,4.4c-0.2,0.2-0.4,0.3-0.6,0.4c-0.2,0.1-0.4,0.1-0.6,0.1c-0.3,0-0.6-0.1-0.9-0.3
		c-0.2-0.2-0.3-0.4-0.3-0.7c0-0.2,0-0.3,0.1-0.5c0.1-0.1,0.2-0.3,0.3-0.3C66.8,3,67,3,67.1,2.9c0.2,0,0.3-0.1,0.5-0.1
		c0.4,0,0.7-0.1,1-0.2c0-0.1,0-0.1,0-0.2c0-0.2,0-0.4-0.2-0.5c-0.2-0.1-0.4-0.2-0.7-0.2c-0.2,0-0.4,0-0.6,0.1
		c-0.2,0.1-0.3,0.3-0.3,0.5l-0.6-0.1c0-0.2,0.1-0.4,0.3-0.6c0.1-0.2,0.3-0.3,0.5-0.3c0.3-0.1,0.5-0.1,0.8-0.1c0.2,0,0.5,0,0.7,0.1
		c0.2,0,0.3,0.1,0.4,0.3c0.1,0.1,0.2,0.3,0.2,0.4c0,0.2,0,0.4,0,0.5v0.8c0,0.3,0,0.7,0,1c0,0.1,0.1,0.3,0.1,0.4h-0.6
		C68.8,4.7,68.7,4.6,68.7,4.4z M68.7,3.1c-0.3,0.1-0.6,0.2-1,0.2c-0.2,0-0.3,0.1-0.5,0.1c-0.1,0-0.2,0.1-0.2,0.2
		c-0.1,0.1-0.1,0.2-0.1,0.3c0,0.1,0.1,0.3,0.2,0.4c0.1,0.1,0.3,0.2,0.5,0.2c0.2,0,0.4,0,0.6-0.1c0.2-0.1,0.3-0.2,0.4-0.4
		c0.1-0.2,0.1-0.4,0.1-0.6L68.7,3.1L68.7,3.1z"/>
	<path id="Path_152" class="st0" d="M70.1,4.8V1.4h0.5v0.5c0.2-0.4,0.7-0.6,1.1-0.6c0.2,0,0.4,0,0.6,0.1c0.2,0.1,0.3,0.2,0.4,0.3
		c0.1,0.1,0.1,0.3,0.2,0.4c0,0.2,0,0.4,0,0.6v2.1h-0.6V2.8c0-0.2,0-0.4-0.1-0.5c0-0.1-0.1-0.2-0.2-0.3c-0.1-0.1-0.3-0.1-0.4-0.1
		c-0.2,0-0.5,0.1-0.6,0.2c-0.2,0.2-0.3,0.6-0.3,0.9v1.9L70.1,4.8L70.1,4.8z"/>
	<path id="Path_153" class="st0" d="M76,4.8V4.4c-0.2,0.3-0.6,0.5-1,0.5c-0.3,0-0.5-0.1-0.8-0.2c-0.2-0.2-0.4-0.4-0.5-0.6
		c-0.1-0.3-0.2-0.6-0.2-0.9c0-0.3,0.1-0.6,0.2-0.9c0.1-0.3,0.3-0.5,0.5-0.6c0.2-0.1,0.5-0.2,0.8-0.2c0.2,0,0.4,0,0.6,0.1
		c0.2,0.1,0.3,0.2,0.4,0.3V0.1h0.6v4.7L76,4.8L76,4.8z M74.2,3.1c0,0.4,0.1,0.7,0.3,1c0.2,0.2,0.4,0.3,0.7,0.3
		c0.3,0,0.5-0.1,0.7-0.3c0.2-0.3,0.3-0.6,0.3-1c0-0.4-0.1-0.7-0.3-1c-0.2-0.2-0.4-0.3-0.7-0.3c-0.3,0-0.5,0.1-0.7,0.3
		C74.3,2.4,74.2,2.8,74.2,3.1L74.2,3.1z"/>
</g>
<g id="Group_23" transform="translate(15.278 69.056)">
	<path id="Path_154" class="st0" d="M3.6,3.2l0.6,0.2C4.1,3.8,3.8,4.2,3.5,4.5C3.1,4.8,2.7,4.9,2.2,4.9C1.8,4.9,1.4,4.8,1,4.6
		C0.7,4.4,0.4,4.1,0.3,3.7C0.1,3.3,0,2.9,0,2.4C0,2,0.1,1.5,0.3,1.1c0.2-0.4,0.5-0.6,0.8-0.8C1.4,0.1,1.8,0,2.2,0
		c0.4,0,0.9,0.1,1.2,0.4C3.8,0.6,4,1,4.1,1.4L3.5,1.5C3.4,1.2,3.3,1,3,0.8C2.8,0.6,2.5,0.5,2.2,0.5c-0.3,0-0.6,0.1-0.9,0.3
		C1.1,1,0.9,1.2,0.8,1.5C0.7,1.8,0.6,2.1,0.6,2.4c0,0.4,0.1,0.7,0.2,1.1C0.9,3.8,1.1,4,1.4,4.1c0.2,0.1,0.5,0.2,0.8,0.2
		c0.3,0,0.6-0.1,0.9-0.3C3.3,3.8,3.5,3.5,3.6,3.2z"/>
	<path id="Path_155" class="st0" d="M7.1,4.8V4.3C6.9,4.7,6.5,4.9,6,4.9c-0.2,0-0.4,0-0.6-0.1C5.3,4.7,5.2,4.6,5.1,4.5
		C5,4.4,4.9,4.2,4.9,4.1c0-0.2,0-0.4,0-0.5V1.4h0.6v1.9c0,0.2,0,0.4,0,0.6c0,0.1,0.1,0.3,0.2,0.4C5.8,4.4,6,4.4,6.1,4.4
		c0.2,0,0.3,0,0.5-0.1C6.8,4.2,6.9,4.1,7,3.9C7,3.7,7.1,3.5,7.1,3.2V1.4h0.6v3.4L7.1,4.8L7.1,4.8z"/>
	<path id="Path_156" class="st0" d="M8.5,4.8V0.1h0.6v4.7H8.5z"/>
	<path id="Path_157" class="st0" d="M11.2,4.3l0.1,0.5c-0.1,0-0.3,0.1-0.4,0.1c-0.2,0-0.3,0-0.5-0.1c-0.1-0.1-0.2-0.2-0.2-0.3
		c-0.1-0.2-0.1-0.5-0.1-0.7v-2H9.6V1.4h0.4V0.5l0.6-0.3v1.2h0.6v0.5h-0.6v2c0,0.1,0,0.2,0,0.3c0,0,0.1,0.1,0.1,0.1
		c0.1,0,0.1,0,0.2,0C11.1,4.3,11.1,4.3,11.2,4.3z"/>
	<path id="Path_158" class="st0" d="M14,4.8V4.3c-0.2,0.4-0.7,0.6-1.1,0.6c-0.2,0-0.4,0-0.6-0.1c-0.2-0.1-0.3-0.2-0.4-0.3
		c-0.1-0.1-0.2-0.3-0.2-0.4c0-0.2,0-0.4,0-0.5V1.4h0.6v1.9c0,0.2,0,0.4,0,0.6c0,0.1,0.1,0.3,0.2,0.4c0.1,0.1,0.3,0.1,0.4,0.1
		c0.2,0,0.3,0,0.5-0.1c0.1-0.1,0.3-0.2,0.3-0.4C14,3.7,14,3.5,14,3.2V1.4h0.6v3.4L14,4.8L14,4.8z"/>
	<path id="Path_159" class="st0" d="M15.4,4.8V1.4H16v0.5c0.1-0.2,0.2-0.3,0.4-0.5c0.1-0.1,0.2-0.1,0.4-0.1c0.2,0,0.4,0.1,0.6,0.2
		L17.1,2C17,2,16.8,1.9,16.7,1.9c-0.1,0-0.2,0-0.3,0.1c-0.1,0.1-0.2,0.2-0.2,0.3C16,2.6,16,2.8,16,3v1.8L15.4,4.8L15.4,4.8z"/>
	<path id="Path_160" class="st0" d="M19.9,4.4c-0.2,0.2-0.4,0.3-0.6,0.4c-0.2,0.1-0.4,0.1-0.6,0.1c-0.3,0-0.6-0.1-0.9-0.3
		c-0.2-0.2-0.3-0.4-0.3-0.7c0-0.2,0-0.3,0.1-0.5c0.1-0.1,0.2-0.3,0.3-0.3C18,3,18.1,3,18.3,2.9c0.2,0,0.3-0.1,0.5-0.1
		c0.4,0,0.7-0.1,1-0.2c0-0.1,0-0.1,0-0.2c0-0.2,0-0.4-0.2-0.5c-0.2-0.1-0.4-0.2-0.7-0.2c-0.2,0-0.4,0-0.6,0.1
		c-0.2,0.1-0.3,0.3-0.3,0.5l-0.6-0.1c0-0.2,0.1-0.4,0.3-0.6c0.1-0.2,0.3-0.3,0.5-0.3c0.3-0.1,0.5-0.1,0.8-0.1c0.2,0,0.5,0,0.7,0.1
		c0.2,0,0.3,0.1,0.4,0.3c0.1,0.1,0.2,0.3,0.2,0.4c0,0.2,0,0.4,0,0.5v0.8c0,0.3,0,0.7,0,1c0,0.1,0.1,0.3,0.1,0.4H20
		C19.9,4.7,19.9,4.6,19.9,4.4z M19.8,3.1c-0.3,0.1-0.6,0.2-1,0.2c-0.2,0-0.3,0.1-0.5,0.1c-0.1,0-0.2,0.1-0.2,0.2
		c-0.1,0.1-0.1,0.2-0.1,0.3c0,0.1,0.1,0.3,0.2,0.4c0.1,0.1,0.3,0.2,0.5,0.2c0.2,0,0.4,0,0.6-0.1c0.2-0.1,0.3-0.2,0.4-0.4
		c0.1-0.2,0.1-0.4,0.1-0.6L19.8,3.1L19.8,3.1z"/>
	<path id="Path_161" class="st0" d="M21.3,4.8V0.1h0.6v4.7H21.3z"/>
	<path id="Path_162" class="st0" d="M24.5,2.5c0-0.7,0.2-1.3,0.6-1.8c0.4-0.4,1-0.7,1.6-0.7c0.4,0,0.8,0.1,1.2,0.3
		c0.3,0.2,0.6,0.5,0.8,0.9c0.4,0.8,0.4,1.8,0,2.6c-0.2,0.4-0.5,0.7-0.8,0.9c-0.4,0.2-0.7,0.3-1.2,0.3c-0.4,0-0.8-0.1-1.2-0.3
		c-0.3-0.2-0.6-0.5-0.8-0.9C24.6,3.3,24.5,2.9,24.5,2.5z M25.2,2.5c0,0.5,0.1,1,0.5,1.3c0.3,0.3,0.7,0.5,1.2,0.5
		c0.4,0,0.9-0.2,1.2-0.5c0.3-0.4,0.5-0.9,0.5-1.4c0-0.3-0.1-0.7-0.2-1c-0.1-0.3-0.3-0.5-0.6-0.7c-0.6-0.4-1.5-0.3-2,0.2
		C25.3,1.4,25.1,2,25.2,2.5L25.2,2.5z"/>
	<path id="Path_163" class="st0" d="M29.8,4.8V1.4h0.5v0.5c0.1-0.2,0.2-0.3,0.4-0.5c0.1-0.1,0.2-0.1,0.4-0.1c0.2,0,0.4,0.1,0.6,0.2
		L31.5,2c-0.1-0.1-0.3-0.1-0.4-0.1c-0.1,0-0.2,0-0.3,0.1c-0.1,0.1-0.2,0.2-0.2,0.3c-0.1,0.2-0.1,0.5-0.1,0.7v1.8L29.8,4.8L29.8,4.8z
		"/>
	<path id="Path_164" class="st0" d="M31.9,5.1l0.6,0.1c0,0.1,0.1,0.3,0.2,0.4c0.2,0.1,0.4,0.2,0.6,0.2c0.2,0,0.4,0,0.6-0.2
		c0.2-0.1,0.3-0.3,0.3-0.5c0-0.2,0.1-0.5,0-0.7c-0.2,0.3-0.6,0.5-1,0.5c-0.4,0-0.8-0.2-1.1-0.5C32,4,31.8,3.5,31.8,3.1
		c0-0.3,0.1-0.6,0.2-0.9c0.1-0.3,0.3-0.5,0.5-0.6c0.2-0.2,0.5-0.2,0.8-0.2c0.4,0,0.8,0.2,1,0.5V1.4h0.5v3c0,0.4,0,0.8-0.2,1.1
		c-0.1,0.2-0.3,0.4-0.5,0.5c-0.3,0.1-0.6,0.2-0.9,0.2c-0.4,0-0.7-0.1-1-0.3C32.1,5.8,31.9,5.4,31.9,5.1z M32.4,3.1
		c0,0.4,0.1,0.7,0.3,1c0.2,0.2,0.4,0.3,0.7,0.3c0.3,0,0.5-0.1,0.7-0.3c0.2-0.3,0.3-0.6,0.3-1c0-0.3-0.1-0.7-0.3-1
		c-0.2-0.2-0.4-0.3-0.7-0.3c-0.3,0-0.5,0.1-0.7,0.3C32.5,2.4,32.4,2.7,32.4,3.1z"/>
	<path id="Path_165" class="st0" d="M38,4.4c-0.2,0.2-0.4,0.3-0.6,0.4c-0.2,0.1-0.4,0.1-0.6,0.1c-0.3,0-0.6-0.1-0.9-0.3
		c-0.2-0.2-0.3-0.4-0.3-0.7c0-0.2,0-0.3,0.1-0.5c0.1-0.1,0.2-0.3,0.3-0.3C36.1,3,36.2,3,36.4,2.9c0.2,0,0.3-0.1,0.5-0.1
		c0.4,0,0.7-0.1,1-0.2c0-0.1,0-0.1,0-0.2c0-0.2,0-0.4-0.2-0.5c-0.2-0.1-0.4-0.2-0.7-0.2c-0.2,0-0.4,0-0.6,0.1
		c-0.2,0.1-0.3,0.3-0.3,0.5l-0.6-0.1c0-0.2,0.1-0.4,0.3-0.6c0.1-0.2,0.3-0.3,0.5-0.3c0.3-0.1,0.5-0.1,0.8-0.1c0.2,0,0.5,0,0.7,0.1
		c0.2,0,0.3,0.1,0.4,0.3c0.1,0.1,0.2,0.3,0.2,0.4c0,0.2,0,0.4,0,0.5v0.8c0,0.3,0,0.7,0,1c0,0.1,0.1,0.3,0.1,0.4h-0.6
		C38,4.7,38,4.6,38,4.4z M37.9,3.1c-0.3,0.1-0.6,0.2-1,0.2c-0.2,0-0.3,0.1-0.5,0.1c-0.1,0-0.2,0.1-0.2,0.2c-0.1,0.1-0.1,0.2-0.1,0.3
		c0,0.1,0.1,0.3,0.2,0.4c0.1,0.1,0.3,0.2,0.5,0.2c0.2,0,0.4,0,0.6-0.1c0.2-0.1,0.3-0.2,0.4-0.4c0.1-0.2,0.1-0.4,0.1-0.6L37.9,3.1
		L37.9,3.1z"/>
	<path id="Path_166" class="st0" d="M39.4,4.8V1.4h0.5v0.5c0.2-0.4,0.7-0.6,1.1-0.6c0.2,0,0.4,0,0.6,0.1c0.2,0.1,0.3,0.2,0.4,0.3
		c0.1,0.1,0.1,0.3,0.2,0.4c0,0.2,0,0.4,0,0.6v2.1h-0.6V2.7c0-0.2,0-0.4-0.1-0.5c0-0.1-0.1-0.2-0.2-0.3c-0.1-0.1-0.3-0.1-0.4-0.1
		c-0.2,0-0.5,0.1-0.6,0.2C40,2.3,40,2.6,40,3v1.9L39.4,4.8L39.4,4.8z"/>
	<path id="Path_167" class="st0" d="M43.1,0.8V0.1h0.6v0.7H43.1z M43.1,4.8V1.4h0.6v3.4H43.1z"/>
	<path id="Path_168" class="st0" d="M44.2,4.8V4.4l2.2-2.5c-0.2,0-0.5,0-0.7,0h-1.4V1.4h2.8v0.4L45.3,4l-0.4,0.4c0.3,0,0.5,0,0.7,0
		h1.6v0.5L44.2,4.8z"/>
	<path id="Path_169" class="st0" d="M50.1,4.4c-0.2,0.2-0.4,0.3-0.6,0.4c-0.2,0.1-0.4,0.1-0.6,0.1c-0.3,0-0.6-0.1-0.9-0.3
		c-0.2-0.2-0.3-0.4-0.3-0.7c0-0.2,0-0.3,0.1-0.5c0.1-0.1,0.2-0.3,0.3-0.3C48.2,3,48.3,3,48.5,2.9c0.2,0,0.3-0.1,0.5-0.1
		c0.4,0,0.7-0.1,1-0.2c0-0.1,0-0.1,0-0.2c0-0.2,0-0.4-0.2-0.5c-0.2-0.1-0.4-0.2-0.7-0.2c-0.2,0-0.4,0-0.6,0.1
		c-0.2,0.1-0.3,0.3-0.3,0.5l-0.6-0.1c0-0.2,0.1-0.4,0.3-0.6c0.1-0.2,0.3-0.3,0.5-0.3c0.3-0.1,0.5-0.1,0.8-0.1c0.2,0,0.5,0,0.7,0.1
		c0.2,0,0.3,0.1,0.4,0.3c0.1,0.1,0.2,0.3,0.2,0.4c0,0.2,0,0.4,0,0.5v0.8c0,0.3,0,0.7,0,1c0,0.1,0.1,0.3,0.1,0.4h-0.6
		C50.1,4.7,50.1,4.6,50.1,4.4z M50,3.1c-0.3,0.1-0.6,0.2-1,0.2c-0.2,0-0.3,0.1-0.5,0.1c-0.1,0-0.2,0.1-0.2,0.2
		c-0.1,0.1-0.1,0.2-0.1,0.3c0,0.1,0.1,0.3,0.2,0.4c0.1,0.1,0.3,0.2,0.5,0.2c0.2,0,0.4,0,0.6-0.1c0.2-0.1,0.3-0.2,0.4-0.4
		c0.1-0.2,0.1-0.4,0.1-0.6L50,3.1L50,3.1z"/>
	<path id="Path_170" class="st0" d="M52.8,4.3l0.1,0.5c-0.1,0-0.3,0.1-0.4,0.1c-0.2,0-0.3,0-0.5-0.1c-0.1-0.1-0.2-0.2-0.2-0.3
		c-0.1-0.2-0.1-0.5-0.1-0.7v-2h-0.4V1.4h0.4V0.5l0.6-0.3v1.2h0.6v0.5h-0.6v2c0,0.1,0,0.2,0,0.3c0,0,0.1,0.1,0.1,0.1
		c0.1,0,0.1,0,0.2,0C52.6,4.3,52.7,4.3,52.8,4.3z"/>
	<path id="Path_171" class="st0" d="M53.3,0.8V0.1h0.6v0.7H53.3z M53.3,4.8V1.4h0.6v3.4H53.3z"/>
	<path id="Path_172" class="st0" d="M54.6,3.1c0-0.5,0.2-1,0.5-1.4c0.3-0.3,0.7-0.4,1.1-0.4c0.4,0,0.9,0.2,1.2,0.5
		c0.3,0.4,0.5,0.8,0.5,1.3c0,0.4-0.1,0.7-0.2,1c-0.1,0.3-0.3,0.5-0.6,0.6c-0.3,0.1-0.5,0.2-0.8,0.2c-0.4,0-0.9-0.2-1.2-0.5
		C54.7,4.1,54.6,3.6,54.6,3.1z M55.2,3.1c0,0.4,0.1,0.7,0.3,1c0.2,0.2,0.4,0.3,0.7,0.3c0.3,0,0.5-0.1,0.7-0.3c0.2-0.3,0.3-0.6,0.3-1
		c0-0.3-0.1-0.7-0.3-1c-0.3-0.4-1-0.4-1.4-0.1c0,0-0.1,0.1-0.1,0.1C55.3,2.4,55.2,2.8,55.2,3.1L55.2,3.1z"/>
	<path id="Path_173" class="st0" d="M58.5,4.8V1.4H59v0.5c0.2-0.4,0.7-0.6,1.1-0.6c0.2,0,0.4,0,0.6,0.1c0.2,0.1,0.3,0.2,0.4,0.3
		c0.1,0.1,0.1,0.3,0.2,0.4c0,0.2,0,0.4,0,0.6v2.1h-0.6V2.7c0-0.2,0-0.4-0.1-0.5c0-0.1-0.1-0.2-0.2-0.3c-0.1-0.1-0.3-0.1-0.4-0.1
		c-0.2,0-0.5,0.1-0.6,0.2c-0.2,0.2-0.3,0.6-0.3,0.9v1.9L58.5,4.8L58.5,4.8z"/>
</g>
</svg>
