<?xml version="1.0" encoding="utf-8"?>
<!-- Generator: Adobe Illustrator 19.2.0, SVG Export Plug-In . SVG Version: 6.00 Build 0)  -->
<svg version="1.1" id="Capa_1" xmlns="http://www.w3.org/2000/svg" xmlns:xlink="http://www.w3.org/1999/xlink" x="0px" y="0px"
	 viewBox="0 0 79.1 30.8" style="enable-background:new 0 0 79.1 30.8;" xml:space="preserve">
<style type="text/css">
	.st0{fill:#FFFFFF;}
</style>
<g id="BMA_2" transform="translate(-165 -789)">
	<path id="Path_3" class="st0" d="M172.6,799.6c0.8-0.6,1.2-1.6,1.1-2.6c0-1.1-0.6-2.1-1.6-2.6c0.9-0.5,1.4-1.4,1.4-2.4
		c0-1-0.5-1.9-1.3-2.5c-0.8-0.5-1.7-0.7-2.6-0.6H165v11.4h4.5C170.6,800.5,171.7,800.2,172.6,799.6z M167.1,790.8h2.6
		c0.9,0,1.8,0.3,1.8,1.4c0,1.1-0.8,1.4-1.7,1.4h-2.6V790.8z M167.1,795.4h2.6c1.1,0,1.9,0.4,1.9,1.6c0,1.2-1,1.5-2,1.5h-2.6V795.4z"
		/>
	<path id="Path_4" class="st0" d="M180.4,793.9V792c-0.2,0-0.4,0-0.6,0c-1-0.1-1.9,0.5-2.4,1.4l-0.2-1.2h-1.7v8.3h2v-4.2
		c-0.1-1.2,0.7-2.2,1.8-2.3c0.1,0,0.2,0,0.3,0C180,793.8,180.2,793.8,180.4,793.9z"/>
	<path id="Path_5" class="st0" d="M189,800.3v-1.5c-0.1,0-0.2,0-0.3,0c-0.3,0-0.5-0.1-0.5-0.5v-3.1c0-0.6-0.1-1.1-0.2-1.7
		c-0.5-1.2-1.7-1.7-3.1-1.7c-1.9,0-3.4,0.8-3.5,2.7h1.9c0.1-0.8,0.6-1.2,1.5-1.2c1.1,0,1.4,0.5,1.4,1.3v0.5l-2.5,0.2
		c-1.6,0.1-2.8,1-2.8,2.6c0,1.5,1.3,2.7,2.8,2.6c0.1,0,0.2,0,0.3,0c1,0,2-0.4,2.5-1.2c0.1,0.7,0.7,1.2,1.4,1.2
		C188.3,800.5,188.7,800.4,189,800.3z M186.3,797c0,1-0.8,1.9-1.8,1.9c-0.1,0-0.2,0-0.3,0c-0.6,0.1-1.1-0.4-1.2-1c0,0,0,0,0,0
		c0-0.6,0.6-1.1,1.2-1.1l2.1-0.2L186.3,797L186.3,797z"/>
	<path id="Path_6" class="st0" d="M197.1,799.5c-0.8-0.4-1.8-0.6-2.7-0.6H193c-0.4,0-0.9-0.1-0.9-0.6c0-0.3,0.2-0.5,0.4-0.6
		c0.4,0.1,0.9,0.2,1.4,0.2c1.7,0.1,3.2-1.1,3.4-2.9c0-0.1,0-0.1,0-0.2c0-0.5-0.2-1.1-0.4-1.5c0.1-0.4,0.5-0.5,1-0.5
		c0.1,0,0.1,0,0.2,0v-1.6c-0.2,0-0.4,0-0.5,0c-0.7,0-1.4,0.4-1.7,1c-0.6-0.3-1.2-0.5-1.9-0.5c-1.9,0-3.4,1.1-3.4,3.1
		c0,0.8,0.3,1.5,0.8,2.1c-0.6,0.3-1,1-1,1.7c0,0.6,0.3,1.1,0.8,1.4c-0.6,0.3-1,1-1,1.7c0,0.7,0.4,1.4,1,1.8c0.9,0.5,1.9,0.8,2.9,0.7
		c1.9,0,4-0.6,4-2.8C198.1,800.7,197.7,799.9,197.1,799.5z M193.8,793.3c0.8,0,1.5,0.6,1.5,1.4c0,0.1,0,0.1,0,0.2
		c0,0.8-0.6,1.5-1.4,1.5c-0.8,0-1.5-0.6-1.5-1.4c0-0.1,0-0.1,0-0.2c-0.1-0.8,0.5-1.5,1.3-1.5C193.7,793.3,193.8,793.3,193.8,793.3z
		 M194,802.7c-0.8,0-2.1-0.1-2.1-1.2c0-0.5,0.3-0.9,0.8-1h1.6c0.8,0,2,0,2,1C196.2,802.6,194.8,802.7,194,802.7z"/>
	<path id="Path_7" class="st0" d="M201.7,795.3c-1.6,0.1-2.8,1-2.8,2.6c0,1.5,1.3,2.7,2.8,2.6c0.1,0,0.2,0,0.3,0c1,0,2-0.4,2.5-1.2
		c0.1,0.7,0.7,1.2,1.4,1.2c0.3,0,0.7-0.1,1-0.2v-1.5c-0.1,0-0.2,0-0.3,0c-0.3,0-0.5-0.1-0.5-0.5v-3.1c0-0.6-0.1-1.1-0.2-1.7
		c-0.5-1.2-1.7-1.7-3.1-1.7c-1.9,0-3.3,0.8-3.5,2.7h1.9c0.1-0.8,0.6-1.2,1.5-1.2c1.1,0,1.4,0.5,1.4,1.3v0.5L201.7,795.3z M204.1,797
		c0,1-0.8,1.9-1.8,1.9c-0.1,0-0.2,0-0.3,0c-0.6,0.1-1.1-0.4-1.2-1c0,0,0,0,0,0c0-0.6,0.6-1.1,1.2-1.1l2.1-0.2L204.1,797L204.1,797z"
		/>
	<path id="Path_8" class="st0" d="M170.8,816.3l-3-8.1H165v11.4h2v-8.2l2.9,8.1h1.5l2.9-8v8.1h2v-11.4h-2.7L170.8,816.3z"/>
	<path id="Path_9" class="st0" d="M182.3,811.1c-1,0-2,0.4-2.7,1.1c-0.8,0.9-1.3,2.1-1.2,3.3c0,1.2,0.4,2.4,1.3,3.3
		c0.7,0.7,1.7,1.1,2.6,1c1.1,0,2.1-0.4,2.8-1.2c0.4-0.4,0.6-1,0.7-1.5h-1.9c-0.2,0.7-0.9,1.2-1.6,1.1c-0.5,0-0.9-0.2-1.2-0.5
		c-0.4-0.4-0.6-1-0.6-1.6h5.6c0-0.2,0-0.6,0-0.6c0.1-1-0.2-2-0.7-2.9C184.6,811.6,183.5,811,182.3,811.1z M180.4,814.6
		c0-0.5,0.1-0.9,0.4-1.3c0.3-0.4,0.9-0.7,1.4-0.6c0.5,0,0.9,0.1,1.3,0.5c0.3,0.4,0.5,0.9,0.5,1.5H180.4z"/>
	<path id="Path_10" class="st0" d="M193,811.8c-0.6-0.6-1.4-0.9-2.2-0.8c-0.7,0-1.5,0.2-2,0.7c-1,0.9-1.6,2.3-1.5,3.7
		c-0.1,1.4,0.4,2.7,1.5,3.6c0.6,0.5,1.3,0.7,2,0.7c0.9,0,1.8-0.4,2.3-1.1l0.1,0.9h1.7V808h-2C193,808,193,811.8,193,811.8z
		 M191.2,818.1c-0.5,0-1-0.2-1.4-0.7c-0.4-0.6-0.6-1.3-0.5-2c0-0.7,0.1-1.4,0.5-2c0.3-0.4,0.8-0.7,1.4-0.7c1.6,0,1.9,1.5,1.9,2.7
		S192.8,818.1,191.2,818.1z"/>
	<rect id="Rectangle_2" x="197.5" y="808" class="st0" width="2.2" height="2.1"/>
	<rect id="Rectangle_3" x="197.6" y="811.3" class="st0" width="2" height="8.3"/>
	<path id="Path_11" class="st0" d="M208.7,817.5v-3.1c0-0.6-0.1-1.1-0.2-1.7c-0.5-1.2-1.7-1.7-3.1-1.7c-1.9,0-3.4,0.8-3.5,2.7h1.9
		c0.1-0.8,0.6-1.2,1.5-1.2c1.1,0,1.4,0.5,1.4,1.3v0.5l-2.4,0.2c-1.6,0.1-2.8,1-2.8,2.6c0,1.5,1.3,2.7,2.8,2.6c0.1,0,0.2,0,0.3,0
		c1,0,2-0.4,2.5-1.2c0.1,0.7,0.7,1.2,1.4,1.2c0.3,0,0.7-0.1,1-0.2V818c-0.1,0-0.2,0-0.3,0C208.8,818.1,208.7,817.9,208.7,817.5z
		 M206.7,816.3c0,1-0.8,1.9-1.8,1.9c-0.1,0-0.2,0-0.3,0c-0.6,0.1-1.1-0.4-1.2-1c0,0,0,0,0,0c0-0.6,0.6-1.1,1.2-1.1l2.1-0.2
		L206.7,816.3L206.7,816.3z"/>
	<path id="Path_12" class="st0" d="M217.2,808.2l-4,11.4h2.1l0.7-2.2h4.5l0.7,2.2h2.2l-4-11.4H217.2z M216.7,815.6l1.6-4.8l1.6,4.8
		H216.7z"/>
	<path id="Path_13" class="st0" d="M226.6,812.5l-0.2-1.2h-1.7v8.3h2v-4.2c-0.1-1.2,0.7-2.2,1.8-2.3c0.1,0,0.2,0,0.3,0
		c0.2,0,0.5,0,0.7,0.1v-1.9c-0.2,0-0.4,0-0.6,0C228,811.1,227,811.6,226.6,812.5z"/>
	<path id="Path_14" class="st0" d="M233.7,817v-4h2.1v-1.7h-2.1v-2.6l-2,0.5v2.1h-1.5v1.7h1.5v4.2c-0.2,1.3,0.7,2.4,2,2.6
		c0.2,0,0.4,0,0.5,0c0.6,0,1.2-0.1,1.7-0.2v-1.7c-0.4,0.1-0.9,0.1-1.3,0.1C234,817.9,233.7,817.6,233.7,817z"/>
	<path id="Path_15" class="st0" d="M241.8,814.7c-0.8-0.1-1-0.1-1.8-0.2c-0.4-0.1-1-0.2-1-0.8c0-0.4,0.3-0.7,0.6-0.9
		c0.3-0.1,0.6-0.2,0.9-0.1c0.4,0,0.8,0.1,1.1,0.4c0.2,0.2,0.3,0.5,0.3,0.8h1.9c0-0.6-0.3-1.3-0.7-1.7c-0.7-0.7-1.6-1-2.6-1
		c-0.9,0-1.8,0.3-2.5,0.8c-0.6,0.5-0.9,1.1-0.9,1.9c0,1.1,0.8,2,1.9,2.2c0.7,0.2,1.6,0.2,2.3,0.3c0.5,0,0.8,0.4,0.8,0.9
		c0,0.9-1,1.1-1.7,1.1c-0.5,0-0.9-0.1-1.3-0.4c-0.3-0.2-0.4-0.6-0.5-1h-1.9c0,0.7,0.3,1.4,0.9,1.9c0.7,0.7,1.7,1,2.7,1
		c1,0.1,2.1-0.3,2.9-1c0.5-0.5,0.7-1.1,0.7-1.8C244.1,815.7,243.1,814.7,241.8,814.7z"/>
</g>
</svg>
